<?xml version="1.0" encoding="us-ascii" standalone="no"?><svg xmlns="http://www.w3.org/2000/svg" xmlns:xlink="http://www.w3.org/1999/xlink" contentStyleType="text/css" height="766px" preserveAspectRatio="none" style="width:1880px;height:766px;background:#FFFFFF;" version="1.1" viewBox="0 0 1880 766" width="1880px" zoomAndPan="magnify"><defs/><g><!--class Sections_Format--><g id="elem_Sections_Format"><rect codeLine="3" fill="#F1F1F1" height="96.8906" id="Sections_Format" rx="2.5" ry="2.5" style="stroke:#181818;stroke-width:0.5;" width="153" x="8.5" y="663"/><ellipse cx="23.5" cy="679" fill="#EB937F" rx="11" ry="11" style="stroke:#181818;stroke-width:1.0;"/><path d="M22.2969,679.875 L23.75,679.875 L23.75,679.9844 C23.75,680.3906 23.7813,680.5469 23.8594,680.7031 C24.0156,680.9531 24.2969,681.1094 24.5938,681.1094 C24.8438,681.1094 25.1094,680.9688 25.2656,680.75 C25.3906,680.5938 25.4219,680.4375 25.4219,679.9844 L25.4219,678.0625 C25.4219,677.9063 25.4219,677.8594 25.4063,677.7031 C25.3438,677.2344 25.0313,676.9219 24.5781,676.9219 C24.3281,676.9219 24.0625,677.0625 23.8906,677.2813 C23.7813,677.4531 23.75,677.6094 23.75,678.0625 L23.75,678.1875 L22.2969,678.1875 L22.2969,675.7813 L26.2813,675.7813 L26.2813,676.6406 C26.2813,677.0469 26.3125,677.2188 26.3906,677.375 C26.5625,677.625 26.8438,677.7813 27.125,677.7813 C27.3906,677.7813 27.6563,677.6406 27.8281,677.4219 C27.9375,677.25 27.9688,677.1094 27.9688,676.6406 L27.9688,674.0938 L20.3438,674.0938 C19.9063,674.0938 19.7813,674.1094 19.625,674.2031 C19.375,674.3594 19.2188,674.6563 19.2188,674.9375 C19.2188,675.2188 19.3594,675.4688 19.5781,675.6406 C19.7344,675.75 19.9219,675.7813 20.3438,675.7813 L20.5938,675.7813 L20.5938,682.2969 L20.3438,682.2969 C19.9375,682.2969 19.7813,682.3125 19.625,682.4219 C19.375,682.5938 19.2188,682.8594 19.2188,683.1563 C19.2188,683.4219 19.3594,683.6719 19.5781,683.8281 C19.7188,683.9531 19.9531,684 20.3438,684 L28.3438,684 L28.3438,681.4219 C28.3438,680.9844 28.3125,680.8438 28.2344,680.6875 C28.0625,680.4375 27.7813,680.2813 27.5,680.2813 C27.2344,680.2813 26.9688,680.3906 26.7969,680.6406 C26.6875,680.7969 26.6563,680.9375 26.6563,681.4219 L26.6563,682.2969 L22.2969,682.2969 L22.2969,679.875 Z " fill="#000000"/><text fill="#000000" font-family="sans-serif" font-size="14" lengthAdjust="spacing" textLength="121" x="37.5" y="683.8467">Sections_Format</text><line style="stroke:#181818;stroke-width:0.5;" x1="9.5" x2="160.5" y1="695" y2="695"/><text fill="#000000" font-family="sans-serif" font-size="14" lengthAdjust="spacing" textLength="55" x="14.5" y="711.9951">Lecture</text><text fill="#000000" font-family="sans-serif" font-size="14" lengthAdjust="spacing" textLength="59" x="14.5" y="728.292">Seminar</text><text fill="#000000" font-family="sans-serif" font-size="14" lengthAdjust="spacing" textLength="26" x="14.5" y="744.5889">Lab</text><line style="stroke:#181818;stroke-width:0.5;" x1="9.5" x2="160.5" y1="751.8906" y2="751.8906"/></g><!--class Sections_Modality--><g id="elem_Sections_Modality"><rect codeLine="9" fill="#F1F1F1" height="96.8906" id="Sections_Modality" rx="2.5" ry="2.5" style="stroke:#181818;stroke-width:0.5;" width="162" x="197" y="663"/><ellipse cx="212" cy="679" fill="#EB937F" rx="11" ry="11" style="stroke:#181818;stroke-width:1.0;"/><path d="M210.7969,679.875 L212.25,679.875 L212.25,679.9844 C212.25,680.3906 212.2813,680.5469 212.3594,680.7031 C212.5156,680.9531 212.7969,681.1094 213.0938,681.1094 C213.3438,681.1094 213.6094,680.9688 213.7656,680.75 C213.8906,680.5938 213.9219,680.4375 213.9219,679.9844 L213.9219,678.0625 C213.9219,677.9063 213.9219,677.8594 213.9063,677.7031 C213.8438,677.2344 213.5313,676.9219 213.0781,676.9219 C212.8281,676.9219 212.5625,677.0625 212.3906,677.2813 C212.2813,677.4531 212.25,677.6094 212.25,678.0625 L212.25,678.1875 L210.7969,678.1875 L210.7969,675.7813 L214.7813,675.7813 L214.7813,676.6406 C214.7813,677.0469 214.8125,677.2188 214.8906,677.375 C215.0625,677.625 215.3438,677.7813 215.625,677.7813 C215.8906,677.7813 216.1563,677.6406 216.3281,677.4219 C216.4375,677.25 216.4688,677.1094 216.4688,676.6406 L216.4688,674.0938 L208.8438,674.0938 C208.4063,674.0938 208.2813,674.1094 208.125,674.2031 C207.875,674.3594 207.7188,674.6563 207.7188,674.9375 C207.7188,675.2188 207.8594,675.4688 208.0781,675.6406 C208.2344,675.75 208.4219,675.7813 208.8438,675.7813 L209.0938,675.7813 L209.0938,682.2969 L208.8438,682.2969 C208.4375,682.2969 208.2813,682.3125 208.125,682.4219 C207.875,682.5938 207.7188,682.8594 207.7188,683.1563 C207.7188,683.4219 207.8594,683.6719 208.0781,683.8281 C208.2188,683.9531 208.4531,684 208.8438,684 L216.8438,684 L216.8438,681.4219 C216.8438,680.9844 216.8125,680.8438 216.7344,680.6875 C216.5625,680.4375 216.2813,680.2813 216,680.2813 C215.7344,680.2813 215.4688,680.3906 215.2969,680.6406 C215.1875,680.7969 215.1563,680.9375 215.1563,681.4219 L215.1563,682.2969 L210.7969,682.2969 L210.7969,679.875 Z " fill="#000000"/><text fill="#000000" font-family="sans-serif" font-size="14" lengthAdjust="spacing" textLength="130" x="226" y="683.8467">Sections_Modality</text><line style="stroke:#181818;stroke-width:0.5;" x1="198" x2="358" y1="695" y2="695"/><text fill="#000000" font-family="sans-serif" font-size="14" lengthAdjust="spacing" textLength="46" x="203" y="711.9951">Online</text><text fill="#000000" font-family="sans-serif" font-size="14" lengthAdjust="spacing" textLength="62" x="203" y="728.292">InPerson</text><text fill="#000000" font-family="sans-serif" font-size="14" lengthAdjust="spacing" textLength="30" x="203" y="744.5889">TBD</text><line style="stroke:#181818;stroke-width:0.5;" x1="198" x2="358" y1="751.8906" y2="751.8906"/></g><!--class Courses--><g id="elem_Courses"><rect codeLine="15" fill="#F1F1F1" height="210.9688" id="Courses" rx="2.5" ry="2.5" style="stroke:#181818;stroke-width:0.5;" width="348" x="7" y="7"/><ellipse cx="148.75" cy="23" fill="#ADD1B2" rx="11" ry="11" style="stroke:#181818;stroke-width:1.0;"/><path d="M147.5469,23.875 L149,23.875 L149,23.9844 C149,24.3906 149.0313,24.5469 149.1094,24.7031 C149.2656,24.9531 149.5469,25.1094 149.8438,25.1094 C150.0938,25.1094 150.3594,24.9688 150.5156,24.75 C150.6406,24.5938 150.6719,24.4375 150.6719,23.9844 L150.6719,22.0625 C150.6719,21.9063 150.6719,21.8594 150.6563,21.7031 C150.5938,21.2344 150.2813,20.9219 149.8281,20.9219 C149.5781,20.9219 149.3125,21.0625 149.1406,21.2813 C149.0313,21.4531 149,21.6094 149,22.0625 L149,22.1875 L147.5469,22.1875 L147.5469,19.7813 L151.5313,19.7813 L151.5313,20.6406 C151.5313,21.0469 151.5625,21.2188 151.6406,21.375 C151.8125,21.625 152.0938,21.7813 152.375,21.7813 C152.6406,21.7813 152.9063,21.6406 153.0781,21.4219 C153.1875,21.25 153.2188,21.1094 153.2188,20.6406 L153.2188,18.0938 L145.5938,18.0938 C145.1563,18.0938 145.0313,18.1094 144.875,18.2031 C144.625,18.3594 144.4688,18.6563 144.4688,18.9375 C144.4688,19.2188 144.6094,19.4688 144.8281,19.6406 C144.9844,19.75 145.1719,19.7813 145.5938,19.7813 L145.8438,19.7813 L145.8438,26.2969 L145.5938,26.2969 C145.1875,26.2969 145.0313,26.3125 144.875,26.4219 C144.625,26.5938 144.4688,26.8594 144.4688,27.1563 C144.4688,27.4219 144.6094,27.6719 144.8281,27.8281 C144.9688,27.9531 145.2031,28 145.5938,28 L153.5938,28 L153.5938,25.4219 C153.5938,24.9844 153.5625,24.8438 153.4844,24.6875 C153.3125,24.4375 153.0313,24.2813 152.75,24.2813 C152.4844,24.2813 152.2188,24.3906 152.0469,24.6406 C151.9375,24.7969 151.9063,24.9375 151.9063,25.4219 L151.9063,26.2969 L147.5469,26.2969 L147.5469,23.875 Z " fill="#000000"/><text fill="#000000" font-family="sans-serif" font-size="14" lengthAdjust="spacing" textLength="56" x="169.25" y="27.8467">Courses</text><line style="stroke:#181818;stroke-width:0.5;" x1="8" x2="354" y1="39" y2="39"/><ellipse cx="18" cy="52.6484" fill="#000000" rx="3" ry="3" style="stroke:#000000;stroke-width:1.0;"/><text fill="#000000" font-family="sans-serif" font-size="14" lengthAdjust="spacing" textLength="90" x="27" y="55.9951">Code: String</text><ellipse cx="18" cy="68.9453" fill="#000000" rx="3" ry="3" style="stroke:#000000;stroke-width:1.0;"/><text fill="#000000" font-family="sans-serif" font-size="14" lengthAdjust="spacing" textLength="95" x="27" y="72.292">Prefix: String</text><ellipse cx="18" cy="85.2422" fill="#000000" rx="3" ry="3" style="stroke:#000000;stroke-width:1.0;"/><text fill="#000000" font-family="sans-serif" font-size="14" lengthAdjust="spacing" textLength="86" x="27" y="88.5889">Number: Int</text><ellipse cx="18" cy="101.5391" fill="#000000" rx="3" ry="3" style="stroke:#000000;stroke-width:1.0;"/><text fill="#000000" font-family="sans-serif" font-size="14" lengthAdjust="spacing" textLength="90" x="27" y="104.8857">MinUnits: Int</text><ellipse cx="18" cy="117.8359" fill="#000000" rx="3" ry="3" style="stroke:#000000;stroke-width:1.0;"/><text fill="#000000" font-family="sans-serif" font-size="14" lengthAdjust="spacing" textLength="93" x="27" y="121.1826">MaxUnits: Int</text><ellipse cx="18" cy="134.1328" fill="#000000" rx="3" ry="3" style="stroke:#000000;stroke-width:1.0;"/><text fill="#000000" font-family="sans-serif" font-size="14" lengthAdjust="spacing" textLength="94" x="27" y="137.4795">Name: String</text><text fill="#000000" font-family="sans-serif" font-size="14" lengthAdjust="spacing" textLength="144" x="27" y="153.7764">Description: String?</text><text fill="#000000" font-family="sans-serif" font-size="14" lengthAdjust="spacing" textLength="100" x="27" y="170.0732">Prereqs: Json?</text><ellipse cx="18" cy="183.0234" fill="#000000" rx="3" ry="3" style="stroke:#000000;stroke-width:1.0;"/><text fill="#000000" font-family="sans-serif" font-size="14" lengthAdjust="spacing" textLength="143" x="27" y="186.3701">Sections: Sections[]</text><ellipse cx="18" cy="199.3203" fill="#000000" rx="3" ry="3" style="stroke:#000000;stroke-width:1.0;"/><text fill="#000000" font-family="sans-serif" font-size="14" lengthAdjust="spacing" textLength="322" x="27" y="202.667">CourseCodeMappings: CourseCodeMapping[]</text><line style="stroke:#181818;stroke-width:0.5;" x1="8" x2="354" y1="209.9688" y2="209.9688"/></g><!--class Enrolled--><g id="elem_Enrolled"><rect codeLine="28" fill="#F1F1F1" height="80.5938" id="Enrolled" rx="2.5" ry="2.5" style="stroke:#181818;stroke-width:0.5;" width="123" x="567.5" y="72"/><ellipse cx="596.9" cy="88" fill="#ADD1B2" rx="11" ry="11" style="stroke:#181818;stroke-width:1.0;"/><path d="M595.6969,88.875 L597.15,88.875 L597.15,88.9844 C597.15,89.3906 597.1813,89.5469 597.2594,89.7031 C597.4156,89.9531 597.6969,90.1094 597.9938,90.1094 C598.2438,90.1094 598.5094,89.9688 598.6656,89.75 C598.7906,89.5938 598.8219,89.4375 598.8219,88.9844 L598.8219,87.0625 C598.8219,86.9063 598.8219,86.8594 598.8063,86.7031 C598.7438,86.2344 598.4313,85.9219 597.9781,85.9219 C597.7281,85.9219 597.4625,86.0625 597.2906,86.2813 C597.1813,86.4531 597.15,86.6094 597.15,87.0625 L597.15,87.1875 L595.6969,87.1875 L595.6969,84.7813 L599.6813,84.7813 L599.6813,85.6406 C599.6813,86.0469 599.7125,86.2188 599.7906,86.375 C599.9625,86.625 600.2438,86.7813 600.525,86.7813 C600.7906,86.7813 601.0563,86.6406 601.2281,86.4219 C601.3375,86.25 601.3688,86.1094 601.3688,85.6406 L601.3688,83.0938 L593.7438,83.0938 C593.3063,83.0938 593.1813,83.1094 593.025,83.2031 C592.775,83.3594 592.6188,83.6563 592.6188,83.9375 C592.6188,84.2188 592.7594,84.4688 592.9781,84.6406 C593.1344,84.75 593.3219,84.7813 593.7438,84.7813 L593.9938,84.7813 L593.9938,91.2969 L593.7438,91.2969 C593.3375,91.2969 593.1813,91.3125 593.025,91.4219 C592.775,91.5938 592.6188,91.8594 592.6188,92.1563 C592.6188,92.4219 592.7594,92.6719 592.9781,92.8281 C593.1188,92.9531 593.3531,93 593.7438,93 L601.7438,93 L601.7438,90.4219 C601.7438,89.9844 601.7125,89.8438 601.6344,89.6875 C601.4625,89.4375 601.1813,89.2813 600.9,89.2813 C600.6344,89.2813 600.3688,89.3906 600.1969,89.6406 C600.0875,89.7969 600.0563,89.9375 600.0563,90.4219 L600.0563,91.2969 L595.6969,91.2969 L595.6969,88.875 Z " fill="#000000"/><text fill="#000000" font-family="sans-serif" font-size="14" lengthAdjust="spacing" textLength="59" x="614.1" y="92.8467">Enrolled</text><line style="stroke:#181818;stroke-width:0.5;" x1="568.5" x2="689.5" y1="104" y2="104"/><ellipse cx="578.5" cy="117.6484" fill="#000000" rx="3" ry="3" style="stroke:#000000;stroke-width:1.0;"/><text fill="#000000" font-family="sans-serif" font-size="14" lengthAdjust="spacing" textLength="84" x="587.5" y="120.9951">User: String</text><ellipse cx="578.5" cy="133.9453" fill="#000000" rx="3" ry="3" style="stroke:#000000;stroke-width:1.0;"/><text fill="#000000" font-family="sans-serif" font-size="14" lengthAdjust="spacing" textLength="97" x="587.5" y="137.292">SectionId: Int</text><line style="stroke:#181818;stroke-width:0.5;" x1="568.5" x2="689.5" y1="144.5938" y2="144.5938"/></g><!--class Sections--><g id="elem_Sections"><rect codeLine="33" fill="#F1F1F1" height="325.0469" id="Sections" rx="2.5" ry="2.5" style="stroke:#181818;stroke-width:0.5;" width="233" x="64.5" y="278"/><ellipse cx="145.75" cy="294" fill="#ADD1B2" rx="11" ry="11" style="stroke:#181818;stroke-width:1.0;"/><path d="M144.5469,294.875 L146,294.875 L146,294.9844 C146,295.3906 146.0313,295.5469 146.1094,295.7031 C146.2656,295.9531 146.5469,296.1094 146.8438,296.1094 C147.0938,296.1094 147.3594,295.9688 147.5156,295.75 C147.6406,295.5938 147.6719,295.4375 147.6719,294.9844 L147.6719,293.0625 C147.6719,292.9063 147.6719,292.8594 147.6563,292.7031 C147.5938,292.2344 147.2813,291.9219 146.8281,291.9219 C146.5781,291.9219 146.3125,292.0625 146.1406,292.2813 C146.0313,292.4531 146,292.6094 146,293.0625 L146,293.1875 L144.5469,293.1875 L144.5469,290.7813 L148.5313,290.7813 L148.5313,291.6406 C148.5313,292.0469 148.5625,292.2188 148.6406,292.375 C148.8125,292.625 149.0938,292.7813 149.375,292.7813 C149.6406,292.7813 149.9063,292.6406 150.0781,292.4219 C150.1875,292.25 150.2188,292.1094 150.2188,291.6406 L150.2188,289.0938 L142.5938,289.0938 C142.1563,289.0938 142.0313,289.1094 141.875,289.2031 C141.625,289.3594 141.4688,289.6563 141.4688,289.9375 C141.4688,290.2188 141.6094,290.4688 141.8281,290.6406 C141.9844,290.75 142.1719,290.7813 142.5938,290.7813 L142.8438,290.7813 L142.8438,297.2969 L142.5938,297.2969 C142.1875,297.2969 142.0313,297.3125 141.875,297.4219 C141.625,297.5938 141.4688,297.8594 141.4688,298.1563 C141.4688,298.4219 141.6094,298.6719 141.8281,298.8281 C141.9688,298.9531 142.2031,299 142.5938,299 L150.5938,299 L150.5938,296.4219 C150.5938,295.9844 150.5625,295.8438 150.4844,295.6875 C150.3125,295.4375 150.0313,295.2813 149.75,295.2813 C149.4844,295.2813 149.2188,295.3906 149.0469,295.6406 C148.9375,295.7969 148.9063,295.9375 148.9063,296.4219 L148.9063,297.2969 L144.5469,297.2969 L144.5469,294.875 Z " fill="#000000"/><text fill="#000000" font-family="sans-serif" font-size="14" lengthAdjust="spacing" textLength="62" x="166.25" y="298.8467">Sections</text><line style="stroke:#181818;stroke-width:0.5;" x1="65.5" x2="296.5" y1="310" y2="310"/><ellipse cx="75.5" cy="323.6484" fill="#000000" rx="3" ry="3" style="stroke:#000000;stroke-width:1.0;"/><text fill="#000000" font-family="sans-serif" font-size="14" lengthAdjust="spacing" textLength="102" x="84.5" y="326.9951">Course: String</text><ellipse cx="75.5" cy="339.9453" fill="#000000" rx="3" ry="3" style="stroke:#000000;stroke-width:1.0;"/><text fill="#000000" font-family="sans-serif" font-size="14" lengthAdjust="spacing" textLength="117" x="84.5" y="343.292">Start: DateTime</text><ellipse cx="75.5" cy="356.2422" fill="#000000" rx="3" ry="3" style="stroke:#000000;stroke-width:1.0;"/><text fill="#000000" font-family="sans-serif" font-size="14" lengthAdjust="spacing" textLength="107" x="84.5" y="359.5889">End: DateTime</text><text fill="#000000" font-family="sans-serif" font-size="14" lengthAdjust="spacing" textLength="125" x="84.5" y="375.8857">Sunday: Boolean?</text><text fill="#000000" font-family="sans-serif" font-size="14" lengthAdjust="spacing" textLength="129" x="84.5" y="392.1826">Monday: Boolean?</text><text fill="#000000" font-family="sans-serif" font-size="14" lengthAdjust="spacing" textLength="132" x="84.5" y="408.4795">Tuesday: Boolean?</text><text fill="#000000" font-family="sans-serif" font-size="14" lengthAdjust="spacing" textLength="156" x="84.5" y="424.7764">Wednesday: Boolean?</text><text fill="#000000" font-family="sans-serif" font-size="14" lengthAdjust="spacing" textLength="138" x="84.5" y="441.0732">Thursday: Boolean?</text><text fill="#000000" font-family="sans-serif" font-size="14" lengthAdjust="spacing" textLength="117" x="84.5" y="457.3701">Friday: Boolean?</text><text fill="#000000" font-family="sans-serif" font-size="14" lengthAdjust="spacing" textLength="137" x="84.5" y="473.667">Saturday: Boolean?</text><text fill="#000000" font-family="sans-serif" font-size="14" lengthAdjust="spacing" textLength="99" x="84.5" y="489.9639">Capacity: Int?</text><text fill="#000000" font-family="sans-serif" font-size="14" lengthAdjust="spacing" textLength="154" x="84.5" y="506.2607">WaitlistCapacity: Int?</text><ellipse cx="75.5" cy="519.2109" fill="#000000" rx="3" ry="3" style="stroke:#000000;stroke-width:1.0;"/><text fill="#000000" font-family="sans-serif" font-size="14" lengthAdjust="spacing" textLength="121" x="84.5" y="522.5576">Professor: String</text><text fill="#000000" font-family="sans-serif" font-size="14" lengthAdjust="spacing" textLength="102" x="84.5" y="538.8545">Room: String?</text><text fill="#000000" font-family="sans-serif" font-size="14" lengthAdjust="spacing" textLength="189" x="84.5" y="555.1514">Format: Sections_Format?</text><text fill="#000000" font-family="sans-serif" font-size="14" lengthAdjust="spacing" textLength="207" x="84.5" y="571.4482">Modality: Sections_Modality?</text><ellipse cx="75.5" cy="584.3984" fill="#000000" rx="3" ry="3" style="stroke:#000000;stroke-width:1.0;"/><text fill="#000000" font-family="sans-serif" font-size="14" lengthAdjust="spacing" textLength="121" x="84.5" y="587.7451">Courses: Courses</text><line style="stroke:#181818;stroke-width:0.5;" x1="65.5" x2="296.5" y1="595.0469" y2="595.0469"/></g><!--class Flowcharts--><g id="elem_Flowcharts"><rect codeLine="53" fill="#F1F1F1" height="178.375" id="Flowcharts" rx="2.5" ry="2.5" style="stroke:#181818;stroke-width:0.5;" width="405" x="903.5" y="23.5"/><ellipse cx="1063.25" cy="39.5" fill="#ADD1B2" rx="11" ry="11" style="stroke:#181818;stroke-width:1.0;"/><path d="M1062.0469,40.375 L1063.5,40.375 L1063.5,40.4844 C1063.5,40.8906 1063.5313,41.0469 1063.6094,41.2031 C1063.7656,41.4531 1064.0469,41.6094 1064.3438,41.6094 C1064.5938,41.6094 1064.8594,41.4688 1065.0156,41.25 C1065.1406,41.0938 1065.1719,40.9375 1065.1719,40.4844 L1065.1719,38.5625 C1065.1719,38.4063 1065.1719,38.3594 1065.1563,38.2031 C1065.0938,37.7344 1064.7813,37.4219 1064.3281,37.4219 C1064.0781,37.4219 1063.8125,37.5625 1063.6406,37.7813 C1063.5313,37.9531 1063.5,38.1094 1063.5,38.5625 L1063.5,38.6875 L1062.0469,38.6875 L1062.0469,36.2813 L1066.0313,36.2813 L1066.0313,37.1406 C1066.0313,37.5469 1066.0625,37.7188 1066.1406,37.875 C1066.3125,38.125 1066.5938,38.2813 1066.875,38.2813 C1067.1406,38.2813 1067.4063,38.1406 1067.5781,37.9219 C1067.6875,37.75 1067.7188,37.6094 1067.7188,37.1406 L1067.7188,34.5938 L1060.0938,34.5938 C1059.6563,34.5938 1059.5313,34.6094 1059.375,34.7031 C1059.125,34.8594 1058.9688,35.1563 1058.9688,35.4375 C1058.9688,35.7188 1059.1094,35.9688 1059.3281,36.1406 C1059.4844,36.25 1059.6719,36.2813 1060.0938,36.2813 L1060.3438,36.2813 L1060.3438,42.7969 L1060.0938,42.7969 C1059.6875,42.7969 1059.5313,42.8125 1059.375,42.9219 C1059.125,43.0938 1058.9688,43.3594 1058.9688,43.6563 C1058.9688,43.9219 1059.1094,44.1719 1059.3281,44.3281 C1059.4688,44.4531 1059.7031,44.5 1060.0938,44.5 L1068.0938,44.5 L1068.0938,41.9219 C1068.0938,41.4844 1068.0625,41.3438 1067.9844,41.1875 C1067.8125,40.9375 1067.5313,40.7813 1067.25,40.7813 C1066.9844,40.7813 1066.7188,40.8906 1066.5469,41.1406 C1066.4375,41.2969 1066.4063,41.4375 1066.4063,41.9219 L1066.4063,42.7969 L1062.0469,42.7969 L1062.0469,40.375 Z " fill="#000000"/><text fill="#000000" font-family="sans-serif" font-size="14" lengthAdjust="spacing" textLength="77" x="1083.75" y="44.3467">Flowcharts</text><line style="stroke:#181818;stroke-width:0.5;" x1="904.5" x2="1307.5" y1="55.5" y2="55.5"/><ellipse cx="914.5" cy="69.1484" fill="#000000" rx="3" ry="3" style="stroke:#000000;stroke-width:1.0;"/><text fill="#000000" font-family="sans-serif" font-size="14" lengthAdjust="spacing" textLength="136" x="923.5" y="72.4951">FlowchartId: String</text><ellipse cx="914.5" cy="85.4453" fill="#000000" rx="3" ry="3" style="stroke:#000000;stroke-width:1.0;"/><text fill="#000000" font-family="sans-serif" font-size="14" lengthAdjust="spacing" textLength="140" x="923.5" y="88.792">CatalogYear: String</text><ellipse cx="914.5" cy="101.7422" fill="#000000" rx="3" ry="3" style="stroke:#000000;stroke-width:1.0;"/><text fill="#000000" font-family="sans-serif" font-size="14" lengthAdjust="spacing" textLength="105" x="923.5" y="105.0889">MajorId: String</text><ellipse cx="914.5" cy="118.0391" fill="#000000" rx="3" ry="3" style="stroke:#000000;stroke-width:1.0;"/><text fill="#000000" font-family="sans-serif" font-size="14" lengthAdjust="spacing" textLength="170" x="923.5" y="121.3857">ConcentrationId: String</text><ellipse cx="914.5" cy="134.3359" fill="#000000" rx="3" ry="3" style="stroke:#000000;stroke-width:1.0;"/><text fill="#000000" font-family="sans-serif" font-size="14" lengthAdjust="spacing" textLength="126" x="923.5" y="137.6826">Catalog: Catalogs</text><ellipse cx="914.5" cy="150.6328" fill="#000000" rx="3" ry="3" style="stroke:#000000;stroke-width:1.0;"/><text fill="#000000" font-family="sans-serif" font-size="14" lengthAdjust="spacing" textLength="94" x="923.5" y="153.9795">Major: Majors</text><ellipse cx="914.5" cy="166.9297" fill="#000000" rx="3" ry="3" style="stroke:#000000;stroke-width:1.0;"/><text fill="#000000" font-family="sans-serif" font-size="14" lengthAdjust="spacing" textLength="224" x="923.5" y="170.2764">Concentration: Concentrations</text><ellipse cx="914.5" cy="183.2266" fill="#000000" rx="3" ry="3" style="stroke:#000000;stroke-width:1.0;"/><text fill="#000000" font-family="sans-serif" font-size="14" lengthAdjust="spacing" textLength="379" x="923.5" y="186.5732">GraduationRequirements: GraduationRequirements[]</text><line style="stroke:#181818;stroke-width:0.5;" x1="904.5" x2="1307.5" y1="193.875" y2="193.875"/></g><!--class Catalogs--><g id="elem_Catalogs"><rect codeLine="64" fill="#F1F1F1" height="80.5938" id="Catalogs" rx="2.5" ry="2.5" style="stroke:#181818;stroke-width:0.5;" width="199" x="772.5" y="400"/><ellipse cx="836.75" cy="416" fill="#ADD1B2" rx="11" ry="11" style="stroke:#181818;stroke-width:1.0;"/><path d="M835.5469,416.875 L837,416.875 L837,416.9844 C837,417.3906 837.0313,417.5469 837.1094,417.7031 C837.2656,417.9531 837.5469,418.1094 837.8438,418.1094 C838.0938,418.1094 838.3594,417.9688 838.5156,417.75 C838.6406,417.5938 838.6719,417.4375 838.6719,416.9844 L838.6719,415.0625 C838.6719,414.9063 838.6719,414.8594 838.6563,414.7031 C838.5938,414.2344 838.2813,413.9219 837.8281,413.9219 C837.5781,413.9219 837.3125,414.0625 837.1406,414.2813 C837.0313,414.4531 837,414.6094 837,415.0625 L837,415.1875 L835.5469,415.1875 L835.5469,412.7813 L839.5313,412.7813 L839.5313,413.6406 C839.5313,414.0469 839.5625,414.2188 839.6406,414.375 C839.8125,414.625 840.0938,414.7813 840.375,414.7813 C840.6406,414.7813 840.9063,414.6406 841.0781,414.4219 C841.1875,414.25 841.2188,414.1094 841.2188,413.6406 L841.2188,411.0938 L833.5938,411.0938 C833.1563,411.0938 833.0313,411.1094 832.875,411.2031 C832.625,411.3594 832.4688,411.6563 832.4688,411.9375 C832.4688,412.2188 832.6094,412.4688 832.8281,412.6406 C832.9844,412.75 833.1719,412.7813 833.5938,412.7813 L833.8438,412.7813 L833.8438,419.2969 L833.5938,419.2969 C833.1875,419.2969 833.0313,419.3125 832.875,419.4219 C832.625,419.5938 832.4688,419.8594 832.4688,420.1563 C832.4688,420.4219 832.6094,420.6719 832.8281,420.8281 C832.9688,420.9531 833.2031,421 833.5938,421 L841.5938,421 L841.5938,418.4219 C841.5938,417.9844 841.5625,417.8438 841.4844,417.6875 C841.3125,417.4375 841.0313,417.2813 840.75,417.2813 C840.4844,417.2813 840.2188,417.3906 840.0469,417.6406 C839.9375,417.7969 839.9063,417.9375 839.9063,418.4219 L839.9063,419.2969 L835.5469,419.2969 L835.5469,416.875 Z " fill="#000000"/><text fill="#000000" font-family="sans-serif" font-size="14" lengthAdjust="spacing" textLength="62" x="857.25" y="420.8467">Catalogs</text><line style="stroke:#181818;stroke-width:0.5;" x1="773.5" x2="970.5" y1="432" y2="432"/><ellipse cx="783.5" cy="445.6484" fill="#000000" rx="3" ry="3" style="stroke:#000000;stroke-width:1.0;"/><text fill="#000000" font-family="sans-serif" font-size="14" lengthAdjust="spacing" textLength="140" x="792.5" y="448.9951">CatalogYear: String</text><ellipse cx="783.5" cy="461.9453" fill="#000000" rx="3" ry="3" style="stroke:#000000;stroke-width:1.0;"/><text fill="#000000" font-family="sans-serif" font-size="14" lengthAdjust="spacing" textLength="173" x="792.5" y="465.292">Flowcharts: Flowcharts[]</text><line style="stroke:#181818;stroke-width:0.5;" x1="773.5" x2="970.5" y1="472.5938" y2="472.5938"/></g><!--class Concentrations--><g id="elem_Concentrations"><rect codeLine="69" fill="#F1F1F1" height="129.4844" id="Concentrations" rx="2.5" ry="2.5" style="stroke:#181818;stroke-width:0.5;" width="199" x="1006.5" y="376"/><ellipse cx="1046.7" cy="392" fill="#ADD1B2" rx="11" ry="11" style="stroke:#181818;stroke-width:1.0;"/><path d="M1045.4969,392.875 L1046.95,392.875 L1046.95,392.9844 C1046.95,393.3906 1046.9813,393.5469 1047.0594,393.7031 C1047.2156,393.9531 1047.4969,394.1094 1047.7938,394.1094 C1048.0438,394.1094 1048.3094,393.9688 1048.4656,393.75 C1048.5906,393.5938 1048.6219,393.4375 1048.6219,392.9844 L1048.6219,391.0625 C1048.6219,390.9063 1048.6219,390.8594 1048.6063,390.7031 C1048.5438,390.2344 1048.2313,389.9219 1047.7781,389.9219 C1047.5281,389.9219 1047.2625,390.0625 1047.0906,390.2813 C1046.9813,390.4531 1046.95,390.6094 1046.95,391.0625 L1046.95,391.1875 L1045.4969,391.1875 L1045.4969,388.7813 L1049.4813,388.7813 L1049.4813,389.6406 C1049.4813,390.0469 1049.5125,390.2188 1049.5906,390.375 C1049.7625,390.625 1050.0438,390.7813 1050.325,390.7813 C1050.5906,390.7813 1050.8563,390.6406 1051.0281,390.4219 C1051.1375,390.25 1051.1688,390.1094 1051.1688,389.6406 L1051.1688,387.0938 L1043.5438,387.0938 C1043.1063,387.0938 1042.9813,387.1094 1042.825,387.2031 C1042.575,387.3594 1042.4188,387.6563 1042.4188,387.9375 C1042.4188,388.2188 1042.5594,388.4688 1042.7781,388.6406 C1042.9344,388.75 1043.1219,388.7813 1043.5438,388.7813 L1043.7938,388.7813 L1043.7938,395.2969 L1043.5438,395.2969 C1043.1375,395.2969 1042.9813,395.3125 1042.825,395.4219 C1042.575,395.5938 1042.4188,395.8594 1042.4188,396.1563 C1042.4188,396.4219 1042.5594,396.6719 1042.7781,396.8281 C1042.9188,396.9531 1043.1531,397 1043.5438,397 L1051.5438,397 L1051.5438,394.4219 C1051.5438,393.9844 1051.5125,393.8438 1051.4344,393.6875 C1051.2625,393.4375 1050.9813,393.2813 1050.7,393.2813 C1050.4344,393.2813 1050.1688,393.3906 1049.9969,393.6406 C1049.8875,393.7969 1049.8563,393.9375 1049.8563,394.4219 L1049.8563,395.2969 L1045.4969,395.2969 L1045.4969,392.875 Z " fill="#000000"/><text fill="#000000" font-family="sans-serif" font-size="14" lengthAdjust="spacing" textLength="111" x="1066.3" y="396.8467">Concentrations</text><line style="stroke:#181818;stroke-width:0.5;" x1="1007.5" x2="1204.5" y1="408" y2="408"/><ellipse cx="1017.5" cy="421.6484" fill="#000000" rx="3" ry="3" style="stroke:#000000;stroke-width:1.0;"/><text fill="#000000" font-family="sans-serif" font-size="14" lengthAdjust="spacing" textLength="66" x="1026.5" y="424.9951">Id: String</text><text fill="#000000" font-family="sans-serif" font-size="14" lengthAdjust="spacing" textLength="101" x="1026.5" y="441.292">Name: String?</text><ellipse cx="1017.5" cy="454.2422" fill="#000000" rx="3" ry="3" style="stroke:#000000;stroke-width:1.0;"/><text fill="#000000" font-family="sans-serif" font-size="14" lengthAdjust="spacing" textLength="105" x="1026.5" y="457.5889">MajorId: String</text><ellipse cx="1017.5" cy="470.5391" fill="#000000" rx="3" ry="3" style="stroke:#000000;stroke-width:1.0;"/><text fill="#000000" font-family="sans-serif" font-size="14" lengthAdjust="spacing" textLength="94" x="1026.5" y="473.8857">Major: Majors</text><ellipse cx="1017.5" cy="486.8359" fill="#000000" rx="3" ry="3" style="stroke:#000000;stroke-width:1.0;"/><text fill="#000000" font-family="sans-serif" font-size="14" lengthAdjust="spacing" textLength="173" x="1026.5" y="490.1826">Flowcharts: Flowcharts[]</text><line style="stroke:#181818;stroke-width:0.5;" x1="1007.5" x2="1204.5" y1="497.4844" y2="497.4844"/></g><!--class GraduationRequirements--><g id="elem_GraduationRequirements"><rect codeLine="77" fill="#F1F1F1" height="113.1875" id="GraduationRequirements" rx="2.5" ry="2.5" style="stroke:#181818;stroke-width:0.5;" width="331" x="1240.5" y="384"/><ellipse cx="1311.75" cy="400" fill="#ADD1B2" rx="11" ry="11" style="stroke:#181818;stroke-width:1.0;"/><path d="M1310.5469,400.875 L1312,400.875 L1312,400.9844 C1312,401.3906 1312.0313,401.5469 1312.1094,401.7031 C1312.2656,401.9531 1312.5469,402.1094 1312.8438,402.1094 C1313.0938,402.1094 1313.3594,401.9688 1313.5156,401.75 C1313.6406,401.5938 1313.6719,401.4375 1313.6719,400.9844 L1313.6719,399.0625 C1313.6719,398.9063 1313.6719,398.8594 1313.6563,398.7031 C1313.5938,398.2344 1313.2813,397.9219 1312.8281,397.9219 C1312.5781,397.9219 1312.3125,398.0625 1312.1406,398.2813 C1312.0313,398.4531 1312,398.6094 1312,399.0625 L1312,399.1875 L1310.5469,399.1875 L1310.5469,396.7813 L1314.5313,396.7813 L1314.5313,397.6406 C1314.5313,398.0469 1314.5625,398.2188 1314.6406,398.375 C1314.8125,398.625 1315.0938,398.7813 1315.375,398.7813 C1315.6406,398.7813 1315.9063,398.6406 1316.0781,398.4219 C1316.1875,398.25 1316.2188,398.1094 1316.2188,397.6406 L1316.2188,395.0938 L1308.5938,395.0938 C1308.1563,395.0938 1308.0313,395.1094 1307.875,395.2031 C1307.625,395.3594 1307.4688,395.6563 1307.4688,395.9375 C1307.4688,396.2188 1307.6094,396.4688 1307.8281,396.6406 C1307.9844,396.75 1308.1719,396.7813 1308.5938,396.7813 L1308.8438,396.7813 L1308.8438,403.2969 L1308.5938,403.2969 C1308.1875,403.2969 1308.0313,403.3125 1307.875,403.4219 C1307.625,403.5938 1307.4688,403.8594 1307.4688,404.1563 C1307.4688,404.4219 1307.6094,404.6719 1307.8281,404.8281 C1307.9688,404.9531 1308.2031,405 1308.5938,405 L1316.5938,405 L1316.5938,402.4219 C1316.5938,401.9844 1316.5625,401.8438 1316.4844,401.6875 C1316.3125,401.4375 1316.0313,401.2813 1315.75,401.2813 C1315.4844,401.2813 1315.2188,401.3906 1315.0469,401.6406 C1314.9375,401.7969 1314.9063,401.9375 1314.9063,402.4219 L1314.9063,403.2969 L1310.5469,403.2969 L1310.5469,400.875 Z " fill="#000000"/><text fill="#000000" font-family="sans-serif" font-size="14" lengthAdjust="spacing" textLength="180" x="1332.25" y="404.8467">GraduationRequirements</text><line style="stroke:#181818;stroke-width:0.5;" x1="1241.5" x2="1570.5" y1="416" y2="416"/><ellipse cx="1251.5" cy="429.6484" fill="#000000" rx="3" ry="3" style="stroke:#000000;stroke-width:1.0;"/><text fill="#000000" font-family="sans-serif" font-size="14" lengthAdjust="spacing" textLength="136" x="1260.5" y="432.9951">FlowchartId: String</text><ellipse cx="1251.5" cy="445.9453" fill="#000000" rx="3" ry="3" style="stroke:#000000;stroke-width:1.0;"/><text fill="#000000" font-family="sans-serif" font-size="14" lengthAdjust="spacing" textLength="90" x="1260.5" y="449.292">Code: String</text><ellipse cx="1251.5" cy="462.2422" fill="#000000" rx="3" ry="3" style="stroke:#000000;stroke-width:1.0;"/><text fill="#000000" font-family="sans-serif" font-size="14" lengthAdjust="spacing" textLength="156" x="1260.5" y="465.5889">Flowchart: Flowcharts</text><ellipse cx="1251.5" cy="478.5391" fill="#000000" rx="3" ry="3" style="stroke:#000000;stroke-width:1.0;"/><text fill="#000000" font-family="sans-serif" font-size="14" lengthAdjust="spacing" textLength="305" x="1260.5" y="481.8857">CourseCodeMapping: CourseCodeMapping</text><line style="stroke:#181818;stroke-width:0.5;" x1="1241.5" x2="1570.5" y1="489.1875" y2="489.1875"/></g><!--class Majors--><g id="elem_Majors"><rect codeLine="84" fill="#F1F1F1" height="113.1875" id="Majors" rx="2.5" ry="2.5" style="stroke:#181818;stroke-width:0.5;" width="267" x="1606.5" y="384"/><ellipse cx="1712.75" cy="400" fill="#ADD1B2" rx="11" ry="11" style="stroke:#181818;stroke-width:1.0;"/><path d="M1711.5469,400.875 L1713,400.875 L1713,400.9844 C1713,401.3906 1713.0313,401.5469 1713.1094,401.7031 C1713.2656,401.9531 1713.5469,402.1094 1713.8438,402.1094 C1714.0938,402.1094 1714.3594,401.9688 1714.5156,401.75 C1714.6406,401.5938 1714.6719,401.4375 1714.6719,400.9844 L1714.6719,399.0625 C1714.6719,398.9063 1714.6719,398.8594 1714.6563,398.7031 C1714.5938,398.2344 1714.2813,397.9219 1713.8281,397.9219 C1713.5781,397.9219 1713.3125,398.0625 1713.1406,398.2813 C1713.0313,398.4531 1713,398.6094 1713,399.0625 L1713,399.1875 L1711.5469,399.1875 L1711.5469,396.7813 L1715.5313,396.7813 L1715.5313,397.6406 C1715.5313,398.0469 1715.5625,398.2188 1715.6406,398.375 C1715.8125,398.625 1716.0938,398.7813 1716.375,398.7813 C1716.6406,398.7813 1716.9063,398.6406 1717.0781,398.4219 C1717.1875,398.25 1717.2188,398.1094 1717.2188,397.6406 L1717.2188,395.0938 L1709.5938,395.0938 C1709.1563,395.0938 1709.0313,395.1094 1708.875,395.2031 C1708.625,395.3594 1708.4688,395.6563 1708.4688,395.9375 C1708.4688,396.2188 1708.6094,396.4688 1708.8281,396.6406 C1708.9844,396.75 1709.1719,396.7813 1709.5938,396.7813 L1709.8438,396.7813 L1709.8438,403.2969 L1709.5938,403.2969 C1709.1875,403.2969 1709.0313,403.3125 1708.875,403.4219 C1708.625,403.5938 1708.4688,403.8594 1708.4688,404.1563 C1708.4688,404.4219 1708.6094,404.6719 1708.8281,404.8281 C1708.9688,404.9531 1709.2031,405 1709.5938,405 L1717.5938,405 L1717.5938,402.4219 C1717.5938,401.9844 1717.5625,401.8438 1717.4844,401.6875 C1717.3125,401.4375 1717.0313,401.2813 1716.75,401.2813 C1716.4844,401.2813 1716.2188,401.3906 1716.0469,401.6406 C1715.9375,401.7969 1715.9063,401.9375 1715.9063,402.4219 L1715.9063,403.2969 L1711.5469,403.2969 L1711.5469,400.875 Z " fill="#000000"/><text fill="#000000" font-family="sans-serif" font-size="14" lengthAdjust="spacing" textLength="46" x="1733.25" y="404.8467">Majors</text><line style="stroke:#181818;stroke-width:0.5;" x1="1607.5" x2="1872.5" y1="416" y2="416"/><ellipse cx="1617.5" cy="429.6484" fill="#000000" rx="3" ry="3" style="stroke:#000000;stroke-width:1.0;"/><text fill="#000000" font-family="sans-serif" font-size="14" lengthAdjust="spacing" textLength="66" x="1626.5" y="432.9951">Id: String</text><ellipse cx="1617.5" cy="445.9453" fill="#000000" rx="3" ry="3" style="stroke:#000000;stroke-width:1.0;"/><text fill="#000000" font-family="sans-serif" font-size="14" lengthAdjust="spacing" textLength="94" x="1626.5" y="449.292">Name: String</text><ellipse cx="1617.5" cy="462.2422" fill="#000000" rx="3" ry="3" style="stroke:#000000;stroke-width:1.0;"/><text fill="#000000" font-family="sans-serif" font-size="14" lengthAdjust="spacing" textLength="173" x="1626.5" y="465.5889">Flowcharts: Flowcharts[]</text><ellipse cx="1617.5" cy="478.5391" fill="#000000" rx="3" ry="3" style="stroke:#000000;stroke-width:1.0;"/><text fill="#000000" font-family="sans-serif" font-size="14" lengthAdjust="spacing" textLength="241" x="1626.5" y="481.8857">Concentrations: Concentrations[]</text><line style="stroke:#181818;stroke-width:0.5;" x1="1607.5" x2="1872.5" y1="489.1875" y2="489.1875"/></g><!--class CourseCodeMapping--><g id="elem_CourseCodeMapping"><rect codeLine="91" fill="#F1F1F1" height="113.1875" id="CourseCodeMapping" rx="2.5" ry="2.5" style="stroke:#181818;stroke-width:0.5;" width="405" x="332.5" y="384"/><ellipse cx="456.75" cy="400" fill="#ADD1B2" rx="11" ry="11" style="stroke:#181818;stroke-width:1.0;"/><path d="M455.5469,400.875 L457,400.875 L457,400.9844 C457,401.3906 457.0313,401.5469 457.1094,401.7031 C457.2656,401.9531 457.5469,402.1094 457.8438,402.1094 C458.0938,402.1094 458.3594,401.9688 458.5156,401.75 C458.6406,401.5938 458.6719,401.4375 458.6719,400.9844 L458.6719,399.0625 C458.6719,398.9063 458.6719,398.8594 458.6563,398.7031 C458.5938,398.2344 458.2813,397.9219 457.8281,397.9219 C457.5781,397.9219 457.3125,398.0625 457.1406,398.2813 C457.0313,398.4531 457,398.6094 457,399.0625 L457,399.1875 L455.5469,399.1875 L455.5469,396.7813 L459.5313,396.7813 L459.5313,397.6406 C459.5313,398.0469 459.5625,398.2188 459.6406,398.375 C459.8125,398.625 460.0938,398.7813 460.375,398.7813 C460.6406,398.7813 460.9063,398.6406 461.0781,398.4219 C461.1875,398.25 461.2188,398.1094 461.2188,397.6406 L461.2188,395.0938 L453.5938,395.0938 C453.1563,395.0938 453.0313,395.1094 452.875,395.2031 C452.625,395.3594 452.4688,395.6563 452.4688,395.9375 C452.4688,396.2188 452.6094,396.4688 452.8281,396.6406 C452.9844,396.75 453.1719,396.7813 453.5938,396.7813 L453.8438,396.7813 L453.8438,403.2969 L453.5938,403.2969 C453.1875,403.2969 453.0313,403.3125 452.875,403.4219 C452.625,403.5938 452.4688,403.8594 452.4688,404.1563 C452.4688,404.4219 452.6094,404.6719 452.8281,404.8281 C452.9688,404.9531 453.2031,405 453.5938,405 L461.5938,405 L461.5938,402.4219 C461.5938,401.9844 461.5625,401.8438 461.4844,401.6875 C461.3125,401.4375 461.0313,401.2813 460.75,401.2813 C460.4844,401.2813 460.2188,401.3906 460.0469,401.6406 C459.9375,401.7969 459.9063,401.9375 459.9063,402.4219 L459.9063,403.2969 L455.5469,403.2969 L455.5469,400.875 Z " fill="#000000"/><text fill="#000000" font-family="sans-serif" font-size="14" lengthAdjust="spacing" textLength="148" x="477.25" y="404.8467">CourseCodeMapping</text><line style="stroke:#181818;stroke-width:0.5;" x1="333.5" x2="736.5" y1="416" y2="416"/><ellipse cx="343.5" cy="429.6484" fill="#000000" rx="3" ry="3" style="stroke:#000000;stroke-width:1.0;"/><text fill="#000000" font-family="sans-serif" font-size="14" lengthAdjust="spacing" textLength="114" x="352.5" y="432.9951">OldCode: String</text><text fill="#000000" font-family="sans-serif" font-size="14" lengthAdjust="spacing" textLength="127" x="352.5" y="449.292">NewCode: String?</text><text fill="#000000" font-family="sans-serif" font-size="14" lengthAdjust="spacing" textLength="121" x="352.5" y="465.5889">Course: Courses?</text><ellipse cx="343.5" cy="478.5391" fill="#000000" rx="3" ry="3" style="stroke:#000000;stroke-width:1.0;"/><text fill="#000000" font-family="sans-serif" font-size="14" lengthAdjust="spacing" textLength="379" x="352.5" y="481.8857">GraduationRequirements: GraduationRequirements[]</text><line style="stroke:#181818;stroke-width:0.5;" x1="333.5" x2="736.5" y1="489.1875" y2="489.1875"/></g><!--link Courses to Sections--><g id="link_Courses_Sections"><path codeLine="98" d="M142.167,226.087 C142.167,226.087 142.167,269.799 142.167,269.799 " fill="none" id="Courses-Sections" style="stroke:#181818;stroke-width:1.0;stroke-dasharray:7.0,7.0;"/><line style="stroke:#181818;stroke-width:1.0;" x1="138.167" x2="146.167" y1="222.087" y2="222.087"/><line style="stroke:#181818;stroke-width:1.0;" x1="138.167" x2="146.167" y1="225.087" y2="225.087"/><line style="stroke:#181818;stroke-width:1.0;" x1="142.167" x2="142.167" y1="226.087" y2="218.087"/><line style="stroke:#181818;stroke-width:1.0;" x1="142.167" x2="148.167" y1="269.799" y2="277.799"/><line style="stroke:#181818;stroke-width:1.0;" x1="142.167" x2="136.167" y1="269.799" y2="277.799"/><line style="stroke:#181818;stroke-width:1.0;" x1="142.167" x2="142.167" y1="269.799" y2="277.799"/><line style="stroke:#181818;stroke-width:1.0;" x1="146.167" x2="138.167" y1="267.799" y2="267.799"/></g><!--link Courses to Sections--><g id="link_Courses_Sections"><path codeLine="99" d="M219.833,226.087 C219.833,226.087 219.833,269.799 219.833,269.799 " fill="none" id="Courses-Sections-1" style="stroke:#181818;stroke-width:1.0;stroke-dasharray:7.0,7.0;"/><line style="stroke:#181818;stroke-width:1.0;" x1="215.833" x2="223.833" y1="222.087" y2="222.087"/><line style="stroke:#181818;stroke-width:1.0;" x1="215.833" x2="223.833" y1="225.087" y2="225.087"/><line style="stroke:#181818;stroke-width:1.0;" x1="219.833" x2="219.833" y1="226.087" y2="218.087"/><line style="stroke:#181818;stroke-width:1.0;" x1="219.833" x2="225.833" y1="269.799" y2="277.799"/><line style="stroke:#181818;stroke-width:1.0;" x1="219.833" x2="213.833" y1="269.799" y2="277.799"/><line style="stroke:#181818;stroke-width:1.0;" x1="219.833" x2="219.833" y1="269.799" y2="277.799"/><line style="stroke:#181818;stroke-width:1.0;" x1="223.833" x2="215.833" y1="267.799" y2="267.799"/></g><!--link Flowcharts to Catalogs--><g id="link_Flowcharts_Catalogs"><path codeLine="100" d="M926.167,209.694 C926.167,209.694 926.167,391.593 926.167,391.593 " fill="none" id="Flowcharts-Catalogs" style="stroke:#181818;stroke-width:1.0;stroke-dasharray:7.0,7.0;"/><line style="stroke:#181818;stroke-width:1.0;" x1="926.167" x2="920.167" y1="209.694" y2="201.694"/><line style="stroke:#181818;stroke-width:1.0;" x1="926.167" x2="932.167" y1="209.694" y2="201.694"/><line style="stroke:#181818;stroke-width:1.0;" x1="926.167" x2="926.167" y1="209.694" y2="201.694"/><line style="stroke:#181818;stroke-width:1.0;" x1="922.167" x2="930.167" y1="211.694" y2="211.694"/><line style="stroke:#181818;stroke-width:1.0;" x1="930.167" x2="922.167" y1="395.593" y2="395.593"/><line style="stroke:#181818;stroke-width:1.0;" x1="930.167" x2="922.167" y1="392.593" y2="392.593"/><line style="stroke:#181818;stroke-width:1.0;" x1="926.167" x2="926.167" y1="391.593" y2="399.593"/></g><!--link Flowcharts to Catalogs--><g id="link_Flowcharts_Catalogs"><path codeLine="101" d="M948.833,209.694 C948.833,209.694 948.833,391.593 948.833,391.593 " fill="none" id="Flowcharts-Catalogs-1" style="stroke:#181818;stroke-width:1.0;stroke-dasharray:7.0,7.0;"/><line style="stroke:#181818;stroke-width:1.0;" x1="948.833" x2="942.833" y1="209.694" y2="201.694"/><line style="stroke:#181818;stroke-width:1.0;" x1="948.833" x2="954.833" y1="209.694" y2="201.694"/><line style="stroke:#181818;stroke-width:1.0;" x1="948.833" x2="948.833" y1="209.694" y2="201.694"/><line style="stroke:#181818;stroke-width:1.0;" x1="944.833" x2="952.833" y1="211.694" y2="211.694"/><line style="stroke:#181818;stroke-width:1.0;" x1="952.833" x2="944.833" y1="395.593" y2="395.593"/><line style="stroke:#181818;stroke-width:1.0;" x1="952.833" x2="944.833" y1="392.593" y2="392.593"/><line style="stroke:#181818;stroke-width:1.0;" x1="948.833" x2="948.833" y1="391.593" y2="399.593"/></g><!--link Flowcharts to Concentrations--><g id="link_Flowcharts_Concentrations"><path codeLine="102" d="M1106,209.694 C1106,209.694 1106,367.773 1106,367.773 " fill="none" id="Flowcharts-Concentrations" style="stroke:#181818;stroke-width:1.0;stroke-dasharray:7.0,7.0;"/><line style="stroke:#181818;stroke-width:1.0;" x1="1106" x2="1100" y1="209.694" y2="201.694"/><line style="stroke:#181818;stroke-width:1.0;" x1="1106" x2="1112" y1="209.694" y2="201.694"/><line style="stroke:#181818;stroke-width:1.0;" x1="1106" x2="1106" y1="209.694" y2="201.694"/><line style="stroke:#181818;stroke-width:1.0;" x1="1102" x2="1110" y1="211.694" y2="211.694"/><line style="stroke:#181818;stroke-width:1.0;" x1="1110" x2="1102" y1="371.773" y2="371.773"/><line style="stroke:#181818;stroke-width:1.0;" x1="1110" x2="1102" y1="368.773" y2="368.773"/><line style="stroke:#181818;stroke-width:1.0;" x1="1106" x2="1106" y1="367.773" y2="375.773"/></g><!--link Flowcharts to GraduationRequirements--><g id="link_Flowcharts_GraduationRequirements"><path codeLine="103" d="M1274.5,209.694 C1274.5,209.694 1274.5,375.824 1274.5,375.824 " fill="none" id="Flowcharts-GraduationRequirements" style="stroke:#181818;stroke-width:1.0;stroke-dasharray:7.0,7.0;"/><line style="stroke:#181818;stroke-width:1.0;" x1="1270.5" x2="1278.5" y1="205.694" y2="205.694"/><line style="stroke:#181818;stroke-width:1.0;" x1="1270.5" x2="1278.5" y1="208.694" y2="208.694"/><line style="stroke:#181818;stroke-width:1.0;" x1="1274.5" x2="1274.5" y1="209.694" y2="201.694"/><line style="stroke:#181818;stroke-width:1.0;" x1="1274.5" x2="1280.5" y1="375.824" y2="383.824"/><line style="stroke:#181818;stroke-width:1.0;" x1="1274.5" x2="1268.5" y1="375.824" y2="383.824"/><line style="stroke:#181818;stroke-width:1.0;" x1="1274.5" x2="1274.5" y1="375.824" y2="383.824"/><line style="stroke:#181818;stroke-width:1.0;" x1="1278.5" x2="1270.5" y1="373.824" y2="373.824"/></g><!--link Flowcharts to Majors--><g id="link_Flowcharts_Majors"><path codeLine="104" d="M1316.78,113 C1316.78,113 1740,113 1740,113 C1740,113 1740,375.828 1740,375.828 " fill="none" id="Flowcharts-Majors" style="stroke:#181818;stroke-width:1.0;stroke-dasharray:7.0,7.0;"/><line style="stroke:#181818;stroke-width:1.0;" x1="1316.78" x2="1308.78" y1="113" y2="119"/><line style="stroke:#181818;stroke-width:1.0;" x1="1316.78" x2="1308.78" y1="113" y2="107"/><line style="stroke:#181818;stroke-width:1.0;" x1="1316.78" x2="1308.78" y1="113" y2="113"/><line style="stroke:#181818;stroke-width:1.0;" x1="1318.78" x2="1318.78" y1="117" y2="109"/><line style="stroke:#181818;stroke-width:1.0;" x1="1744" x2="1736" y1="379.828" y2="379.828"/><line style="stroke:#181818;stroke-width:1.0;" x1="1744" x2="1736" y1="376.828" y2="376.828"/><line style="stroke:#181818;stroke-width:1.0;" x1="1740" x2="1740" y1="375.828" y2="383.828"/></g><!--link Courses to CourseCodeMapping--><g id="link_Courses_CourseCodeMapping"><path codeLine="105" d="M343.75,226.087 C343.75,226.087 343.75,375.817 343.75,375.817 " fill="none" id="Courses-CourseCodeMapping" style="stroke:#181818;stroke-width:1.0;stroke-dasharray:7.0,7.0;"/><line style="stroke:#181818;stroke-width:1.0;" x1="343.75" x2="343.75" y1="229.087" y2="218.087"/><ellipse cx="343.75" cy="229.087" fill="none" rx="4" ry="4" style="stroke:#181818;stroke-width:1.0;"/><line style="stroke:#181818;stroke-width:1.0;" x1="339.75" x2="347.75" y1="222.087" y2="222.087"/><line style="stroke:#181818;stroke-width:1.0;" x1="343.75" x2="349.75" y1="375.817" y2="383.817"/><line style="stroke:#181818;stroke-width:1.0;" x1="343.75" x2="337.75" y1="375.817" y2="383.817"/><line style="stroke:#181818;stroke-width:1.0;" x1="343.75" x2="343.75" y1="375.817" y2="383.817"/><line style="stroke:#181818;stroke-width:1.0;" x1="347.75" x2="339.75" y1="373.817" y2="373.817"/></g><!--link Sections to Sections_Format--><g id="link_Sections_Sections_Format"><path codeLine="106" d="M113,611.225 C113,611.225 113,654.777 113,654.777 " fill="none" id="Sections-Sections_Format" style="stroke:#181818;stroke-width:1.0;stroke-dasharray:7.0,7.0;"/><line style="stroke:#181818;stroke-width:1.0;" x1="109" x2="117" y1="607.225" y2="607.225"/><line style="stroke:#181818;stroke-width:1.0;" x1="109" x2="117" y1="610.225" y2="610.225"/><line style="stroke:#181818;stroke-width:1.0;" x1="113" x2="113" y1="611.225" y2="603.225"/><line style="stroke:#181818;stroke-width:1.0;" x1="113" x2="113" y1="651.7768" y2="662.7768"/><ellipse cx="113" cy="651.7768" fill="none" rx="4" ry="4" style="stroke:#181818;stroke-width:1.0;"/><line style="stroke:#181818;stroke-width:1.0;" x1="117" x2="109" y1="658.7768" y2="658.7768"/></g><!--link Sections to Sections_Modality--><g id="link_Sections_Sections_Modality"><path codeLine="107" d="M247.25,611.225 C247.25,611.225 247.25,654.777 247.25,654.777 " fill="none" id="Sections-Sections_Modality" style="stroke:#181818;stroke-width:1.0;stroke-dasharray:7.0,7.0;"/><line style="stroke:#181818;stroke-width:1.0;" x1="243.25" x2="251.25" y1="607.225" y2="607.225"/><line style="stroke:#181818;stroke-width:1.0;" x1="243.25" x2="251.25" y1="610.225" y2="610.225"/><line style="stroke:#181818;stroke-width:1.0;" x1="247.25" x2="247.25" y1="611.225" y2="603.225"/><line style="stroke:#181818;stroke-width:1.0;" x1="247.25" x2="247.25" y1="651.7768" y2="662.7768"/><ellipse cx="247.25" cy="651.7768" fill="none" rx="4" ry="4" style="stroke:#181818;stroke-width:1.0;"/><line style="stroke:#181818;stroke-width:1.0;" x1="251.25" x2="243.25" y1="658.7768" y2="658.7768"/></g><!--SRC=[dLJ9Rjim4BtxAtJk8H_0Yu7OSP6YTeBOGL4KHJ6H9Z5JYQEG518Zoh-Nf1PpaTCs9uqUPtkpgTzSr22XoaekK1zgp4ZgFSrcA9egssAkEGdrQqMo0fszphBigy4QYKRQOiK5I8l1tUmjjbbJ0INN1sTr9Mm08roAQvIAX15tvylEIbkj1JLIeNBQdynVWIpRQid5WmEk9Txpbm3QDDKTIcPSQlU_vk9MSAqy15uYP0ELxtU9AfUyjWaFwDp09fZ49sFsnMGwTuO3BJPAFtxscTgyRRvhg6lZmAWacD4zChqGaieIYvxghR8aF5vzWCkYI_jeE4GUQsIZXAOQf6RP4ZJkU8KEkn15W6mRKS21PUT49OAZjwO4sZMeOkmR5Y95TtkJHWok98-XBPYvYS45r90RRewgYm5SbrpfvC6E0DsZKkHNwuQeyZlN3IgB9xSZsSqZIqTqxjLpR9_oAhygwJdVczeEjHy1soMl0GlGKDB3TuImfsju91dhaiYDVmb3jrC_R13KqGlhFYhrmSBVJkEpXA9n_pVur729bL4m9AVnO527sCEydU1sB0xpvD1Ja5VlBw3iB-RyPCdI0ln3y6ccVsjaV816HJ_Ez0MOE01UEbtoKpL8pjCxz9BcgxZxKGEYXFhuLsKHCTtWiu-u9UqFJRyNym_FrN3Zs_Rih7qTz_0axgtTctrgZ-lmVq_XMdWAVSJff2SyzPCt9apEF6ttUAfj06hZUtJwVJX9Vm00]--></g></svg>