<?xml version="1.0" encoding="us-ascii" standalone="no"?><svg xmlns="http://www.w3.org/2000/svg" xmlns:xlink="http://www.w3.org/1999/xlink" contentStyleType="text/css" height="831px" preserveAspectRatio="none" style="width:2126px;height:831px;background:#FFFFFF;" version="1.1" viewBox="0 0 2126 831" width="2126px" zoomAndPan="magnify"><defs/><g><!--class Sections_Format--><g id="elem_Sections_Format"><rect codeLine="3" fill="#F1F1F1" height="96.8906" id="Sections_Format" rx="2.5" ry="2.5" style="stroke:#181818;stroke-width:0.5;" width="153" x="244.5" y="728"/><ellipse cx="259.5" cy="744" fill="#EB937F" rx="11" ry="11" style="stroke:#181818;stroke-width:1.0;"/><path d="M258.2969,744.875 L259.75,744.875 L259.75,744.9844 C259.75,745.3906 259.7813,745.5469 259.8594,745.7031 C260.0156,745.9531 260.2969,746.1094 260.5938,746.1094 C260.8438,746.1094 261.1094,745.9688 261.2656,745.75 C261.3906,745.5938 261.4219,745.4375 261.4219,744.9844 L261.4219,743.0625 C261.4219,742.9063 261.4219,742.8594 261.4063,742.7031 C261.3438,742.2344 261.0313,741.9219 260.5781,741.9219 C260.3281,741.9219 260.0625,742.0625 259.8906,742.2813 C259.7813,742.4531 259.75,742.6094 259.75,743.0625 L259.75,743.1875 L258.2969,743.1875 L258.2969,740.7813 L262.2813,740.7813 L262.2813,741.6406 C262.2813,742.0469 262.3125,742.2188 262.3906,742.375 C262.5625,742.625 262.8438,742.7813 263.125,742.7813 C263.3906,742.7813 263.6563,742.6406 263.8281,742.4219 C263.9375,742.25 263.9688,742.1094 263.9688,741.6406 L263.9688,739.0938 L256.3438,739.0938 C255.9063,739.0938 255.7813,739.1094 255.625,739.2031 C255.375,739.3594 255.2188,739.6563 255.2188,739.9375 C255.2188,740.2188 255.3594,740.4688 255.5781,740.6406 C255.7344,740.75 255.9219,740.7813 256.3438,740.7813 L256.5938,740.7813 L256.5938,747.2969 L256.3438,747.2969 C255.9375,747.2969 255.7813,747.3125 255.625,747.4219 C255.375,747.5938 255.2188,747.8594 255.2188,748.1563 C255.2188,748.4219 255.3594,748.6719 255.5781,748.8281 C255.7188,748.9531 255.9531,749 256.3438,749 L264.3438,749 L264.3438,746.4219 C264.3438,745.9844 264.3125,745.8438 264.2344,745.6875 C264.0625,745.4375 263.7813,745.2813 263.5,745.2813 C263.2344,745.2813 262.9688,745.3906 262.7969,745.6406 C262.6875,745.7969 262.6563,745.9375 262.6563,746.4219 L262.6563,747.2969 L258.2969,747.2969 L258.2969,744.875 Z " fill="#000000"/><text fill="#000000" font-family="sans-serif" font-size="14" lengthAdjust="spacing" textLength="121" x="273.5" y="748.8467">Sections_Format</text><line style="stroke:#181818;stroke-width:0.5;" x1="245.5" x2="396.5" y1="760" y2="760"/><text fill="#000000" font-family="sans-serif" font-size="14" lengthAdjust="spacing" textLength="55" x="250.5" y="776.9951">Lecture</text><text fill="#000000" font-family="sans-serif" font-size="14" lengthAdjust="spacing" textLength="59" x="250.5" y="793.292">Seminar</text><text fill="#000000" font-family="sans-serif" font-size="14" lengthAdjust="spacing" textLength="26" x="250.5" y="809.5889">Lab</text><line style="stroke:#181818;stroke-width:0.5;" x1="245.5" x2="396.5" y1="816.8906" y2="816.8906"/></g><!--class Sections_Modality--><g id="elem_Sections_Modality"><rect codeLine="9" fill="#F1F1F1" height="96.8906" id="Sections_Modality" rx="2.5" ry="2.5" style="stroke:#181818;stroke-width:0.5;" width="162" x="433" y="728"/><ellipse cx="448" cy="744" fill="#EB937F" rx="11" ry="11" style="stroke:#181818;stroke-width:1.0;"/><path d="M446.7969,744.875 L448.25,744.875 L448.25,744.9844 C448.25,745.3906 448.2813,745.5469 448.3594,745.7031 C448.5156,745.9531 448.7969,746.1094 449.0938,746.1094 C449.3438,746.1094 449.6094,745.9688 449.7656,745.75 C449.8906,745.5938 449.9219,745.4375 449.9219,744.9844 L449.9219,743.0625 C449.9219,742.9063 449.9219,742.8594 449.9063,742.7031 C449.8438,742.2344 449.5313,741.9219 449.0781,741.9219 C448.8281,741.9219 448.5625,742.0625 448.3906,742.2813 C448.2813,742.4531 448.25,742.6094 448.25,743.0625 L448.25,743.1875 L446.7969,743.1875 L446.7969,740.7813 L450.7813,740.7813 L450.7813,741.6406 C450.7813,742.0469 450.8125,742.2188 450.8906,742.375 C451.0625,742.625 451.3438,742.7813 451.625,742.7813 C451.8906,742.7813 452.1563,742.6406 452.3281,742.4219 C452.4375,742.25 452.4688,742.1094 452.4688,741.6406 L452.4688,739.0938 L444.8438,739.0938 C444.4063,739.0938 444.2813,739.1094 444.125,739.2031 C443.875,739.3594 443.7188,739.6563 443.7188,739.9375 C443.7188,740.2188 443.8594,740.4688 444.0781,740.6406 C444.2344,740.75 444.4219,740.7813 444.8438,740.7813 L445.0938,740.7813 L445.0938,747.2969 L444.8438,747.2969 C444.4375,747.2969 444.2813,747.3125 444.125,747.4219 C443.875,747.5938 443.7188,747.8594 443.7188,748.1563 C443.7188,748.4219 443.8594,748.6719 444.0781,748.8281 C444.2188,748.9531 444.4531,749 444.8438,749 L452.8438,749 L452.8438,746.4219 C452.8438,745.9844 452.8125,745.8438 452.7344,745.6875 C452.5625,745.4375 452.2813,745.2813 452,745.2813 C451.7344,745.2813 451.4688,745.3906 451.2969,745.6406 C451.1875,745.7969 451.1563,745.9375 451.1563,746.4219 L451.1563,747.2969 L446.7969,747.2969 L446.7969,744.875 Z " fill="#000000"/><text fill="#000000" font-family="sans-serif" font-size="14" lengthAdjust="spacing" textLength="130" x="462" y="748.8467">Sections_Modality</text><line style="stroke:#181818;stroke-width:0.5;" x1="434" x2="594" y1="760" y2="760"/><text fill="#000000" font-family="sans-serif" font-size="14" lengthAdjust="spacing" textLength="46" x="439" y="776.9951">Online</text><text fill="#000000" font-family="sans-serif" font-size="14" lengthAdjust="spacing" textLength="62" x="439" y="793.292">InPerson</text><text fill="#000000" font-family="sans-serif" font-size="14" lengthAdjust="spacing" textLength="30" x="439" y="809.5889">TBD</text><line style="stroke:#181818;stroke-width:0.5;" x1="434" x2="594" y1="816.8906" y2="816.8906"/></g><!--class Courses--><g id="elem_Courses"><rect codeLine="15" fill="#F1F1F1" height="210.9688" id="Courses" rx="2.5" ry="2.5" style="stroke:#181818;stroke-width:0.5;" width="348" x="568" y="7"/><ellipse cx="709.75" cy="23" fill="#ADD1B2" rx="11" ry="11" style="stroke:#181818;stroke-width:1.0;"/><path d="M708.5469,23.875 L710,23.875 L710,23.9844 C710,24.3906 710.0313,24.5469 710.1094,24.7031 C710.2656,24.9531 710.5469,25.1094 710.8438,25.1094 C711.0938,25.1094 711.3594,24.9688 711.5156,24.75 C711.6406,24.5938 711.6719,24.4375 711.6719,23.9844 L711.6719,22.0625 C711.6719,21.9063 711.6719,21.8594 711.6563,21.7031 C711.5938,21.2344 711.2813,20.9219 710.8281,20.9219 C710.5781,20.9219 710.3125,21.0625 710.1406,21.2813 C710.0313,21.4531 710,21.6094 710,22.0625 L710,22.1875 L708.5469,22.1875 L708.5469,19.7813 L712.5313,19.7813 L712.5313,20.6406 C712.5313,21.0469 712.5625,21.2188 712.6406,21.375 C712.8125,21.625 713.0938,21.7813 713.375,21.7813 C713.6406,21.7813 713.9063,21.6406 714.0781,21.4219 C714.1875,21.25 714.2188,21.1094 714.2188,20.6406 L714.2188,18.0938 L706.5938,18.0938 C706.1563,18.0938 706.0313,18.1094 705.875,18.2031 C705.625,18.3594 705.4688,18.6563 705.4688,18.9375 C705.4688,19.2188 705.6094,19.4688 705.8281,19.6406 C705.9844,19.75 706.1719,19.7813 706.5938,19.7813 L706.8438,19.7813 L706.8438,26.2969 L706.5938,26.2969 C706.1875,26.2969 706.0313,26.3125 705.875,26.4219 C705.625,26.5938 705.4688,26.8594 705.4688,27.1563 C705.4688,27.4219 705.6094,27.6719 705.8281,27.8281 C705.9688,27.9531 706.2031,28 706.5938,28 L714.5938,28 L714.5938,25.4219 C714.5938,24.9844 714.5625,24.8438 714.4844,24.6875 C714.3125,24.4375 714.0313,24.2813 713.75,24.2813 C713.4844,24.2813 713.2188,24.3906 713.0469,24.6406 C712.9375,24.7969 712.9063,24.9375 712.9063,25.4219 L712.9063,26.2969 L708.5469,26.2969 L708.5469,23.875 Z " fill="#000000"/><text fill="#000000" font-family="sans-serif" font-size="14" lengthAdjust="spacing" textLength="56" x="730.25" y="27.8467">Courses</text><line style="stroke:#181818;stroke-width:0.5;" x1="569" x2="915" y1="39" y2="39"/><ellipse cx="579" cy="52.6484" fill="#000000" rx="3" ry="3" style="stroke:#000000;stroke-width:1.0;"/><text fill="#000000" font-family="sans-serif" font-size="14" lengthAdjust="spacing" textLength="90" x="588" y="55.9951">Code: String</text><ellipse cx="579" cy="68.9453" fill="#000000" rx="3" ry="3" style="stroke:#000000;stroke-width:1.0;"/><text fill="#000000" font-family="sans-serif" font-size="14" lengthAdjust="spacing" textLength="95" x="588" y="72.292">Prefix: String</text><ellipse cx="579" cy="85.2422" fill="#000000" rx="3" ry="3" style="stroke:#000000;stroke-width:1.0;"/><text fill="#000000" font-family="sans-serif" font-size="14" lengthAdjust="spacing" textLength="86" x="588" y="88.5889">Number: Int</text><ellipse cx="579" cy="101.5391" fill="#000000" rx="3" ry="3" style="stroke:#000000;stroke-width:1.0;"/><text fill="#000000" font-family="sans-serif" font-size="14" lengthAdjust="spacing" textLength="90" x="588" y="104.8857">MinUnits: Int</text><ellipse cx="579" cy="117.8359" fill="#000000" rx="3" ry="3" style="stroke:#000000;stroke-width:1.0;"/><text fill="#000000" font-family="sans-serif" font-size="14" lengthAdjust="spacing" textLength="93" x="588" y="121.1826">MaxUnits: Int</text><ellipse cx="579" cy="134.1328" fill="#000000" rx="3" ry="3" style="stroke:#000000;stroke-width:1.0;"/><text fill="#000000" font-family="sans-serif" font-size="14" lengthAdjust="spacing" textLength="94" x="588" y="137.4795">Name: String</text><text fill="#000000" font-family="sans-serif" font-size="14" lengthAdjust="spacing" textLength="144" x="588" y="153.7764">Description: String?</text><text fill="#000000" font-family="sans-serif" font-size="14" lengthAdjust="spacing" textLength="100" x="588" y="170.0732">Prereqs: Json?</text><ellipse cx="579" cy="183.0234" fill="#000000" rx="3" ry="3" style="stroke:#000000;stroke-width:1.0;"/><text fill="#000000" font-family="sans-serif" font-size="14" lengthAdjust="spacing" textLength="143" x="588" y="186.3701">Sections: Sections[]</text><ellipse cx="579" cy="199.3203" fill="#000000" rx="3" ry="3" style="stroke:#000000;stroke-width:1.0;"/><text fill="#000000" font-family="sans-serif" font-size="14" lengthAdjust="spacing" textLength="322" x="588" y="202.667">CourseCodeMappings: CourseCodeMapping[]</text><line style="stroke:#181818;stroke-width:0.5;" x1="569" x2="915" y1="209.9688" y2="209.9688"/></g><!--class Enrolled--><g id="elem_Enrolled"><rect codeLine="28" fill="#F1F1F1" height="96.8906" id="Enrolled" rx="2.5" ry="2.5" style="stroke:#181818;stroke-width:0.5;" width="152" x="7" y="64"/><ellipse cx="49.45" cy="80" fill="#ADD1B2" rx="11" ry="11" style="stroke:#181818;stroke-width:1.0;"/><path d="M48.2469,80.875 L49.7,80.875 L49.7,80.9844 C49.7,81.3906 49.7313,81.5469 49.8094,81.7031 C49.9656,81.9531 50.2469,82.1094 50.5438,82.1094 C50.7938,82.1094 51.0594,81.9688 51.2156,81.75 C51.3406,81.5938 51.3719,81.4375 51.3719,80.9844 L51.3719,79.0625 C51.3719,78.9063 51.3719,78.8594 51.3563,78.7031 C51.2938,78.2344 50.9813,77.9219 50.5281,77.9219 C50.2781,77.9219 50.0125,78.0625 49.8406,78.2813 C49.7313,78.4531 49.7,78.6094 49.7,79.0625 L49.7,79.1875 L48.2469,79.1875 L48.2469,76.7813 L52.2313,76.7813 L52.2313,77.6406 C52.2313,78.0469 52.2625,78.2188 52.3406,78.375 C52.5125,78.625 52.7938,78.7813 53.075,78.7813 C53.3406,78.7813 53.6063,78.6406 53.7781,78.4219 C53.8875,78.25 53.9188,78.1094 53.9188,77.6406 L53.9188,75.0938 L46.2938,75.0938 C45.8563,75.0938 45.7313,75.1094 45.575,75.2031 C45.325,75.3594 45.1688,75.6563 45.1688,75.9375 C45.1688,76.2188 45.3094,76.4688 45.5281,76.6406 C45.6844,76.75 45.8719,76.7813 46.2938,76.7813 L46.5438,76.7813 L46.5438,83.2969 L46.2938,83.2969 C45.8875,83.2969 45.7313,83.3125 45.575,83.4219 C45.325,83.5938 45.1688,83.8594 45.1688,84.1563 C45.1688,84.4219 45.3094,84.6719 45.5281,84.8281 C45.6688,84.9531 45.9031,85 46.2938,85 L54.2938,85 L54.2938,82.4219 C54.2938,81.9844 54.2625,81.8438 54.1844,81.6875 C54.0125,81.4375 53.7313,81.2813 53.45,81.2813 C53.1844,81.2813 52.9188,81.3906 52.7469,81.6406 C52.6375,81.7969 52.6063,81.9375 52.6063,82.4219 L52.6063,83.2969 L48.2469,83.2969 L48.2469,80.875 Z " fill="#000000"/><text fill="#000000" font-family="sans-serif" font-size="14" lengthAdjust="spacing" textLength="59" x="69.55" y="84.8467">Enrolled</text><line style="stroke:#181818;stroke-width:0.5;" x1="8" x2="158" y1="96" y2="96"/><ellipse cx="18" cy="109.6484" fill="#000000" rx="3" ry="3" style="stroke:#000000;stroke-width:1.0;"/><text fill="#000000" font-family="sans-serif" font-size="14" lengthAdjust="spacing" textLength="84" x="27" y="112.9951">User: String</text><ellipse cx="18" cy="125.9453" fill="#000000" rx="3" ry="3" style="stroke:#000000;stroke-width:1.0;"/><text fill="#000000" font-family="sans-serif" font-size="14" lengthAdjust="spacing" textLength="97" x="27" y="129.292">SectionId: Int</text><ellipse cx="18" cy="142.2422" fill="#000000" rx="3" ry="3" style="stroke:#000000;stroke-width:1.0;"/><text fill="#000000" font-family="sans-serif" font-size="14" lengthAdjust="spacing" textLength="126" x="27" y="145.5889">Section: Sections</text><line style="stroke:#181818;stroke-width:0.5;" x1="8" x2="158" y1="152.8906" y2="152.8906"/></g><!--class ShoppingCart--><g id="elem_ShoppingCart"><rect codeLine="34" fill="#F1F1F1" height="96.8906" id="ShoppingCart" rx="2.5" ry="2.5" style="stroke:#181818;stroke-width:0.5;" width="152" x="194" y="64"/><ellipse cx="218" cy="80" fill="#ADD1B2" rx="11" ry="11" style="stroke:#181818;stroke-width:1.0;"/><path d="M216.7969,80.875 L218.25,80.875 L218.25,80.9844 C218.25,81.3906 218.2813,81.5469 218.3594,81.7031 C218.5156,81.9531 218.7969,82.1094 219.0938,82.1094 C219.3438,82.1094 219.6094,81.9688 219.7656,81.75 C219.8906,81.5938 219.9219,81.4375 219.9219,80.9844 L219.9219,79.0625 C219.9219,78.9063 219.9219,78.8594 219.9063,78.7031 C219.8438,78.2344 219.5313,77.9219 219.0781,77.9219 C218.8281,77.9219 218.5625,78.0625 218.3906,78.2813 C218.2813,78.4531 218.25,78.6094 218.25,79.0625 L218.25,79.1875 L216.7969,79.1875 L216.7969,76.7813 L220.7813,76.7813 L220.7813,77.6406 C220.7813,78.0469 220.8125,78.2188 220.8906,78.375 C221.0625,78.625 221.3438,78.7813 221.625,78.7813 C221.8906,78.7813 222.1563,78.6406 222.3281,78.4219 C222.4375,78.25 222.4688,78.1094 222.4688,77.6406 L222.4688,75.0938 L214.8438,75.0938 C214.4063,75.0938 214.2813,75.1094 214.125,75.2031 C213.875,75.3594 213.7188,75.6563 213.7188,75.9375 C213.7188,76.2188 213.8594,76.4688 214.0781,76.6406 C214.2344,76.75 214.4219,76.7813 214.8438,76.7813 L215.0938,76.7813 L215.0938,83.2969 L214.8438,83.2969 C214.4375,83.2969 214.2813,83.3125 214.125,83.4219 C213.875,83.5938 213.7188,83.8594 213.7188,84.1563 C213.7188,84.4219 213.8594,84.6719 214.0781,84.8281 C214.2188,84.9531 214.4531,85 214.8438,85 L222.8438,85 L222.8438,82.4219 C222.8438,81.9844 222.8125,81.8438 222.7344,81.6875 C222.5625,81.4375 222.2813,81.2813 222,81.2813 C221.7344,81.2813 221.4688,81.3906 221.2969,81.6406 C221.1875,81.7969 221.1563,81.9375 221.1563,82.4219 L221.1563,83.2969 L216.7969,83.2969 L216.7969,80.875 Z " fill="#000000"/><text fill="#000000" font-family="sans-serif" font-size="14" lengthAdjust="spacing" textLength="100" x="234" y="84.8467">ShoppingCart</text><line style="stroke:#181818;stroke-width:0.5;" x1="195" x2="345" y1="96" y2="96"/><ellipse cx="205" cy="109.6484" fill="#000000" rx="3" ry="3" style="stroke:#000000;stroke-width:1.0;"/><text fill="#000000" font-family="sans-serif" font-size="14" lengthAdjust="spacing" textLength="84" x="214" y="112.9951">User: String</text><ellipse cx="205" cy="125.9453" fill="#000000" rx="3" ry="3" style="stroke:#000000;stroke-width:1.0;"/><text fill="#000000" font-family="sans-serif" font-size="14" lengthAdjust="spacing" textLength="97" x="214" y="129.292">SectionId: Int</text><ellipse cx="205" cy="142.2422" fill="#000000" rx="3" ry="3" style="stroke:#000000;stroke-width:1.0;"/><text fill="#000000" font-family="sans-serif" font-size="14" lengthAdjust="spacing" textLength="126" x="214" y="145.5889">Section: Sections</text><line style="stroke:#181818;stroke-width:0.5;" x1="195" x2="345" y1="152.8906" y2="152.8906"/></g><!--class Waitlist--><g id="elem_Waitlist"><rect codeLine="40" fill="#F1F1F1" height="113.1875" id="Waitlist" rx="2.5" ry="2.5" style="stroke:#181818;stroke-width:0.5;" width="152" x="381" y="56"/><ellipse cx="425.25" cy="72" fill="#ADD1B2" rx="11" ry="11" style="stroke:#181818;stroke-width:1.0;"/><path d="M424.0469,72.875 L425.5,72.875 L425.5,72.9844 C425.5,73.3906 425.5313,73.5469 425.6094,73.7031 C425.7656,73.9531 426.0469,74.1094 426.3438,74.1094 C426.5938,74.1094 426.8594,73.9688 427.0156,73.75 C427.1406,73.5938 427.1719,73.4375 427.1719,72.9844 L427.1719,71.0625 C427.1719,70.9063 427.1719,70.8594 427.1563,70.7031 C427.0938,70.2344 426.7813,69.9219 426.3281,69.9219 C426.0781,69.9219 425.8125,70.0625 425.6406,70.2813 C425.5313,70.4531 425.5,70.6094 425.5,71.0625 L425.5,71.1875 L424.0469,71.1875 L424.0469,68.7813 L428.0313,68.7813 L428.0313,69.6406 C428.0313,70.0469 428.0625,70.2188 428.1406,70.375 C428.3125,70.625 428.5938,70.7813 428.875,70.7813 C429.1406,70.7813 429.4063,70.6406 429.5781,70.4219 C429.6875,70.25 429.7188,70.1094 429.7188,69.6406 L429.7188,67.0938 L422.0938,67.0938 C421.6563,67.0938 421.5313,67.1094 421.375,67.2031 C421.125,67.3594 420.9688,67.6563 420.9688,67.9375 C420.9688,68.2188 421.1094,68.4688 421.3281,68.6406 C421.4844,68.75 421.6719,68.7813 422.0938,68.7813 L422.3438,68.7813 L422.3438,75.2969 L422.0938,75.2969 C421.6875,75.2969 421.5313,75.3125 421.375,75.4219 C421.125,75.5938 420.9688,75.8594 420.9688,76.1563 C420.9688,76.4219 421.1094,76.6719 421.3281,76.8281 C421.4688,76.9531 421.7031,77 422.0938,77 L430.0938,77 L430.0938,74.4219 C430.0938,73.9844 430.0625,73.8438 429.9844,73.6875 C429.8125,73.4375 429.5313,73.2813 429.25,73.2813 C428.9844,73.2813 428.7188,73.3906 428.5469,73.6406 C428.4375,73.7969 428.4063,73.9375 428.4063,74.4219 L428.4063,75.2969 L424.0469,75.2969 L424.0469,72.875 Z " fill="#000000"/><text fill="#000000" font-family="sans-serif" font-size="14" lengthAdjust="spacing" textLength="55" x="445.75" y="76.8467">Waitlist</text><line style="stroke:#181818;stroke-width:0.5;" x1="382" x2="532" y1="88" y2="88"/><ellipse cx="392" cy="101.6484" fill="#000000" rx="3" ry="3" style="stroke:#000000;stroke-width:1.0;"/><text fill="#000000" font-family="sans-serif" font-size="14" lengthAdjust="spacing" textLength="97" x="401" y="104.9951">SectionId: Int</text><ellipse cx="392" cy="117.9453" fill="#000000" rx="3" ry="3" style="stroke:#000000;stroke-width:1.0;"/><text fill="#000000" font-family="sans-serif" font-size="14" lengthAdjust="spacing" textLength="84" x="401" y="121.292">User: String</text><ellipse cx="392" cy="134.2422" fill="#000000" rx="3" ry="3" style="stroke:#000000;stroke-width:1.0;"/><text fill="#000000" font-family="sans-serif" font-size="14" lengthAdjust="spacing" textLength="87" x="401" y="137.5889">Position: Int</text><ellipse cx="392" cy="150.5391" fill="#000000" rx="3" ry="3" style="stroke:#000000;stroke-width:1.0;"/><text fill="#000000" font-family="sans-serif" font-size="14" lengthAdjust="spacing" textLength="126" x="401" y="153.8857">Section: Sections</text><line style="stroke:#181818;stroke-width:0.5;" x1="382" x2="532" y1="161.1875" y2="161.1875"/></g><!--class Sections--><g id="elem_Sections"><rect codeLine="47" fill="#F1F1F1" height="390.2344" id="Sections" rx="2.5" ry="2.5" style="stroke:#181818;stroke-width:0.5;" width="252" x="291" y="278"/><ellipse cx="381.75" cy="294" fill="#ADD1B2" rx="11" ry="11" style="stroke:#181818;stroke-width:1.0;"/><path d="M380.5469,294.875 L382,294.875 L382,294.9844 C382,295.3906 382.0313,295.5469 382.1094,295.7031 C382.2656,295.9531 382.5469,296.1094 382.8438,296.1094 C383.0938,296.1094 383.3594,295.9688 383.5156,295.75 C383.6406,295.5938 383.6719,295.4375 383.6719,294.9844 L383.6719,293.0625 C383.6719,292.9063 383.6719,292.8594 383.6563,292.7031 C383.5938,292.2344 383.2813,291.9219 382.8281,291.9219 C382.5781,291.9219 382.3125,292.0625 382.1406,292.2813 C382.0313,292.4531 382,292.6094 382,293.0625 L382,293.1875 L380.5469,293.1875 L380.5469,290.7813 L384.5313,290.7813 L384.5313,291.6406 C384.5313,292.0469 384.5625,292.2188 384.6406,292.375 C384.8125,292.625 385.0938,292.7813 385.375,292.7813 C385.6406,292.7813 385.9063,292.6406 386.0781,292.4219 C386.1875,292.25 386.2188,292.1094 386.2188,291.6406 L386.2188,289.0938 L378.5938,289.0938 C378.1563,289.0938 378.0313,289.1094 377.875,289.2031 C377.625,289.3594 377.4688,289.6563 377.4688,289.9375 C377.4688,290.2188 377.6094,290.4688 377.8281,290.6406 C377.9844,290.75 378.1719,290.7813 378.5938,290.7813 L378.8438,290.7813 L378.8438,297.2969 L378.5938,297.2969 C378.1875,297.2969 378.0313,297.3125 377.875,297.4219 C377.625,297.5938 377.4688,297.8594 377.4688,298.1563 C377.4688,298.4219 377.6094,298.6719 377.8281,298.8281 C377.9688,298.9531 378.2031,299 378.5938,299 L386.5938,299 L386.5938,296.4219 C386.5938,295.9844 386.5625,295.8438 386.4844,295.6875 C386.3125,295.4375 386.0313,295.2813 385.75,295.2813 C385.4844,295.2813 385.2188,295.3906 385.0469,295.6406 C384.9375,295.7969 384.9063,295.9375 384.9063,296.4219 L384.9063,297.2969 L380.5469,297.2969 L380.5469,294.875 Z " fill="#000000"/><text fill="#000000" font-family="sans-serif" font-size="14" lengthAdjust="spacing" textLength="62" x="402.25" y="298.8467">Sections</text><line style="stroke:#181818;stroke-width:0.5;" x1="292" x2="542" y1="310" y2="310"/><ellipse cx="302" cy="323.6484" fill="#000000" rx="3" ry="3" style="stroke:#000000;stroke-width:1.0;"/><text fill="#000000" font-family="sans-serif" font-size="14" lengthAdjust="spacing" textLength="97" x="311" y="326.9951">SectionId: Int</text><ellipse cx="302" cy="339.9453" fill="#000000" rx="3" ry="3" style="stroke:#000000;stroke-width:1.0;"/><text fill="#000000" font-family="sans-serif" font-size="14" lengthAdjust="spacing" textLength="102" x="311" y="343.292">Course: String</text><ellipse cx="302" cy="356.2422" fill="#000000" rx="3" ry="3" style="stroke:#000000;stroke-width:1.0;"/><text fill="#000000" font-family="sans-serif" font-size="14" lengthAdjust="spacing" textLength="117" x="311" y="359.5889">Start: DateTime</text><ellipse cx="302" cy="372.5391" fill="#000000" rx="3" ry="3" style="stroke:#000000;stroke-width:1.0;"/><text fill="#000000" font-family="sans-serif" font-size="14" lengthAdjust="spacing" textLength="107" x="311" y="375.8857">End: DateTime</text><text fill="#000000" font-family="sans-serif" font-size="14" lengthAdjust="spacing" textLength="125" x="311" y="392.1826">Sunday: Boolean?</text><text fill="#000000" font-family="sans-serif" font-size="14" lengthAdjust="spacing" textLength="129" x="311" y="408.4795">Monday: Boolean?</text><text fill="#000000" font-family="sans-serif" font-size="14" lengthAdjust="spacing" textLength="132" x="311" y="424.7764">Tuesday: Boolean?</text><text fill="#000000" font-family="sans-serif" font-size="14" lengthAdjust="spacing" textLength="156" x="311" y="441.0732">Wednesday: Boolean?</text><text fill="#000000" font-family="sans-serif" font-size="14" lengthAdjust="spacing" textLength="138" x="311" y="457.3701">Thursday: Boolean?</text><text fill="#000000" font-family="sans-serif" font-size="14" lengthAdjust="spacing" textLength="117" x="311" y="473.667">Friday: Boolean?</text><text fill="#000000" font-family="sans-serif" font-size="14" lengthAdjust="spacing" textLength="137" x="311" y="489.9639">Saturday: Boolean?</text><text fill="#000000" font-family="sans-serif" font-size="14" lengthAdjust="spacing" textLength="99" x="311" y="506.2607">Capacity: Int?</text><text fill="#000000" font-family="sans-serif" font-size="14" lengthAdjust="spacing" textLength="154" x="311" y="522.5576">WaitlistCapacity: Int?</text><ellipse cx="302" cy="535.5078" fill="#000000" rx="3" ry="3" style="stroke:#000000;stroke-width:1.0;"/><text fill="#000000" font-family="sans-serif" font-size="14" lengthAdjust="spacing" textLength="121" x="311" y="538.8545">Professor: String</text><text fill="#000000" font-family="sans-serif" font-size="14" lengthAdjust="spacing" textLength="102" x="311" y="555.1514">Room: String?</text><text fill="#000000" font-family="sans-serif" font-size="14" lengthAdjust="spacing" textLength="189" x="311" y="571.4482">Format: Sections_Format?</text><text fill="#000000" font-family="sans-serif" font-size="14" lengthAdjust="spacing" textLength="207" x="311" y="587.7451">Modality: Sections_Modality?</text><ellipse cx="302" cy="600.6953" fill="#000000" rx="3" ry="3" style="stroke:#000000;stroke-width:1.0;"/><text fill="#000000" font-family="sans-serif" font-size="14" lengthAdjust="spacing" textLength="121" x="311" y="604.042">Courses: Courses</text><ellipse cx="302" cy="616.9922" fill="#000000" rx="3" ry="3" style="stroke:#000000;stroke-width:1.0;"/><text fill="#000000" font-family="sans-serif" font-size="14" lengthAdjust="spacing" textLength="136" x="311" y="620.3389">Waitlists: Waitlist[]</text><ellipse cx="302" cy="633.2891" fill="#000000" rx="3" ry="3" style="stroke:#000000;stroke-width:1.0;"/><text fill="#000000" font-family="sans-serif" font-size="14" lengthAdjust="spacing" textLength="226" x="311" y="636.6357">ShoppingCarts: ShoppingCart[]</text><ellipse cx="302" cy="649.5859" fill="#000000" rx="3" ry="3" style="stroke:#000000;stroke-width:1.0;"/><text fill="#000000" font-family="sans-serif" font-size="14" lengthAdjust="spacing" textLength="144" x="311" y="652.9326">Enrolleds: Enrolled[]</text><line style="stroke:#181818;stroke-width:0.5;" x1="292" x2="542" y1="660.2344" y2="660.2344"/></g><!--class Flowcharts--><g id="elem_Flowcharts"><rect codeLine="71" fill="#F1F1F1" height="178.375" id="Flowcharts" rx="2.5" ry="2.5" style="stroke:#181818;stroke-width:0.5;" width="405" x="1149.5" y="23.5"/><ellipse cx="1309.25" cy="39.5" fill="#ADD1B2" rx="11" ry="11" style="stroke:#181818;stroke-width:1.0;"/><path d="M1308.0469,40.375 L1309.5,40.375 L1309.5,40.4844 C1309.5,40.8906 1309.5313,41.0469 1309.6094,41.2031 C1309.7656,41.4531 1310.0469,41.6094 1310.3438,41.6094 C1310.5938,41.6094 1310.8594,41.4688 1311.0156,41.25 C1311.1406,41.0938 1311.1719,40.9375 1311.1719,40.4844 L1311.1719,38.5625 C1311.1719,38.4063 1311.1719,38.3594 1311.1563,38.2031 C1311.0938,37.7344 1310.7813,37.4219 1310.3281,37.4219 C1310.0781,37.4219 1309.8125,37.5625 1309.6406,37.7813 C1309.5313,37.9531 1309.5,38.1094 1309.5,38.5625 L1309.5,38.6875 L1308.0469,38.6875 L1308.0469,36.2813 L1312.0313,36.2813 L1312.0313,37.1406 C1312.0313,37.5469 1312.0625,37.7188 1312.1406,37.875 C1312.3125,38.125 1312.5938,38.2813 1312.875,38.2813 C1313.1406,38.2813 1313.4063,38.1406 1313.5781,37.9219 C1313.6875,37.75 1313.7188,37.6094 1313.7188,37.1406 L1313.7188,34.5938 L1306.0938,34.5938 C1305.6563,34.5938 1305.5313,34.6094 1305.375,34.7031 C1305.125,34.8594 1304.9688,35.1563 1304.9688,35.4375 C1304.9688,35.7188 1305.1094,35.9688 1305.3281,36.1406 C1305.4844,36.25 1305.6719,36.2813 1306.0938,36.2813 L1306.3438,36.2813 L1306.3438,42.7969 L1306.0938,42.7969 C1305.6875,42.7969 1305.5313,42.8125 1305.375,42.9219 C1305.125,43.0938 1304.9688,43.3594 1304.9688,43.6563 C1304.9688,43.9219 1305.1094,44.1719 1305.3281,44.3281 C1305.4688,44.4531 1305.7031,44.5 1306.0938,44.5 L1314.0938,44.5 L1314.0938,41.9219 C1314.0938,41.4844 1314.0625,41.3438 1313.9844,41.1875 C1313.8125,40.9375 1313.5313,40.7813 1313.25,40.7813 C1312.9844,40.7813 1312.7188,40.8906 1312.5469,41.1406 C1312.4375,41.2969 1312.4063,41.4375 1312.4063,41.9219 L1312.4063,42.7969 L1308.0469,42.7969 L1308.0469,40.375 Z " fill="#000000"/><text fill="#000000" font-family="sans-serif" font-size="14" lengthAdjust="spacing" textLength="77" x="1329.75" y="44.3467">Flowcharts</text><line style="stroke:#181818;stroke-width:0.5;" x1="1150.5" x2="1553.5" y1="55.5" y2="55.5"/><ellipse cx="1160.5" cy="69.1484" fill="#000000" rx="3" ry="3" style="stroke:#000000;stroke-width:1.0;"/><text fill="#000000" font-family="sans-serif" font-size="14" lengthAdjust="spacing" textLength="136" x="1169.5" y="72.4951">FlowchartId: String</text><ellipse cx="1160.5" cy="85.4453" fill="#000000" rx="3" ry="3" style="stroke:#000000;stroke-width:1.0;"/><text fill="#000000" font-family="sans-serif" font-size="14" lengthAdjust="spacing" textLength="140" x="1169.5" y="88.792">CatalogYear: String</text><ellipse cx="1160.5" cy="101.7422" fill="#000000" rx="3" ry="3" style="stroke:#000000;stroke-width:1.0;"/><text fill="#000000" font-family="sans-serif" font-size="14" lengthAdjust="spacing" textLength="105" x="1169.5" y="105.0889">MajorId: String</text><ellipse cx="1160.5" cy="118.0391" fill="#000000" rx="3" ry="3" style="stroke:#000000;stroke-width:1.0;"/><text fill="#000000" font-family="sans-serif" font-size="14" lengthAdjust="spacing" textLength="170" x="1169.5" y="121.3857">ConcentrationId: String</text><ellipse cx="1160.5" cy="134.3359" fill="#000000" rx="3" ry="3" style="stroke:#000000;stroke-width:1.0;"/><text fill="#000000" font-family="sans-serif" font-size="14" lengthAdjust="spacing" textLength="126" x="1169.5" y="137.6826">Catalog: Catalogs</text><ellipse cx="1160.5" cy="150.6328" fill="#000000" rx="3" ry="3" style="stroke:#000000;stroke-width:1.0;"/><text fill="#000000" font-family="sans-serif" font-size="14" lengthAdjust="spacing" textLength="94" x="1169.5" y="153.9795">Major: Majors</text><ellipse cx="1160.5" cy="166.9297" fill="#000000" rx="3" ry="3" style="stroke:#000000;stroke-width:1.0;"/><text fill="#000000" font-family="sans-serif" font-size="14" lengthAdjust="spacing" textLength="224" x="1169.5" y="170.2764">Concentration: Concentrations</text><ellipse cx="1160.5" cy="183.2266" fill="#000000" rx="3" ry="3" style="stroke:#000000;stroke-width:1.0;"/><text fill="#000000" font-family="sans-serif" font-size="14" lengthAdjust="spacing" textLength="379" x="1169.5" y="186.5732">GraduationRequirements: GraduationRequirements[]</text><line style="stroke:#181818;stroke-width:0.5;" x1="1150.5" x2="1553.5" y1="193.875" y2="193.875"/></g><!--class Catalogs--><g id="elem_Catalogs"><rect codeLine="82" fill="#F1F1F1" height="80.5938" id="Catalogs" rx="2.5" ry="2.5" style="stroke:#181818;stroke-width:0.5;" width="199" x="1018.5" y="432.5"/><ellipse cx="1082.75" cy="448.5" fill="#ADD1B2" rx="11" ry="11" style="stroke:#181818;stroke-width:1.0;"/><path d="M1081.5469,449.375 L1083,449.375 L1083,449.4844 C1083,449.8906 1083.0313,450.0469 1083.1094,450.2031 C1083.2656,450.4531 1083.5469,450.6094 1083.8438,450.6094 C1084.0938,450.6094 1084.3594,450.4688 1084.5156,450.25 C1084.6406,450.0938 1084.6719,449.9375 1084.6719,449.4844 L1084.6719,447.5625 C1084.6719,447.4063 1084.6719,447.3594 1084.6563,447.2031 C1084.5938,446.7344 1084.2813,446.4219 1083.8281,446.4219 C1083.5781,446.4219 1083.3125,446.5625 1083.1406,446.7813 C1083.0313,446.9531 1083,447.1094 1083,447.5625 L1083,447.6875 L1081.5469,447.6875 L1081.5469,445.2813 L1085.5313,445.2813 L1085.5313,446.1406 C1085.5313,446.5469 1085.5625,446.7188 1085.6406,446.875 C1085.8125,447.125 1086.0938,447.2813 1086.375,447.2813 C1086.6406,447.2813 1086.9063,447.1406 1087.0781,446.9219 C1087.1875,446.75 1087.2188,446.6094 1087.2188,446.1406 L1087.2188,443.5938 L1079.5938,443.5938 C1079.1563,443.5938 1079.0313,443.6094 1078.875,443.7031 C1078.625,443.8594 1078.4688,444.1563 1078.4688,444.4375 C1078.4688,444.7188 1078.6094,444.9688 1078.8281,445.1406 C1078.9844,445.25 1079.1719,445.2813 1079.5938,445.2813 L1079.8438,445.2813 L1079.8438,451.7969 L1079.5938,451.7969 C1079.1875,451.7969 1079.0313,451.8125 1078.875,451.9219 C1078.625,452.0938 1078.4688,452.3594 1078.4688,452.6563 C1078.4688,452.9219 1078.6094,453.1719 1078.8281,453.3281 C1078.9688,453.4531 1079.2031,453.5 1079.5938,453.5 L1087.5938,453.5 L1087.5938,450.9219 C1087.5938,450.4844 1087.5625,450.3438 1087.4844,450.1875 C1087.3125,449.9375 1087.0313,449.7813 1086.75,449.7813 C1086.4844,449.7813 1086.2188,449.8906 1086.0469,450.1406 C1085.9375,450.2969 1085.9063,450.4375 1085.9063,450.9219 L1085.9063,451.7969 L1081.5469,451.7969 L1081.5469,449.375 Z " fill="#000000"/><text fill="#000000" font-family="sans-serif" font-size="14" lengthAdjust="spacing" textLength="62" x="1103.25" y="453.3467">Catalogs</text><line style="stroke:#181818;stroke-width:0.5;" x1="1019.5" x2="1216.5" y1="464.5" y2="464.5"/><ellipse cx="1029.5" cy="478.1484" fill="#000000" rx="3" ry="3" style="stroke:#000000;stroke-width:1.0;"/><text fill="#000000" font-family="sans-serif" font-size="14" lengthAdjust="spacing" textLength="140" x="1038.5" y="481.4951">CatalogYear: String</text><ellipse cx="1029.5" cy="494.4453" fill="#000000" rx="3" ry="3" style="stroke:#000000;stroke-width:1.0;"/><text fill="#000000" font-family="sans-serif" font-size="14" lengthAdjust="spacing" textLength="173" x="1038.5" y="497.792">Flowcharts: Flowcharts[]</text><line style="stroke:#181818;stroke-width:0.5;" x1="1019.5" x2="1216.5" y1="505.0938" y2="505.0938"/></g><!--class Concentrations--><g id="elem_Concentrations"><rect codeLine="87" fill="#F1F1F1" height="129.4844" id="Concentrations" rx="2.5" ry="2.5" style="stroke:#181818;stroke-width:0.5;" width="199" x="1252.5" y="408.5"/><ellipse cx="1292.7" cy="424.5" fill="#ADD1B2" rx="11" ry="11" style="stroke:#181818;stroke-width:1.0;"/><path d="M1291.4969,425.375 L1292.95,425.375 L1292.95,425.4844 C1292.95,425.8906 1292.9813,426.0469 1293.0594,426.2031 C1293.2156,426.4531 1293.4969,426.6094 1293.7938,426.6094 C1294.0438,426.6094 1294.3094,426.4688 1294.4656,426.25 C1294.5906,426.0938 1294.6219,425.9375 1294.6219,425.4844 L1294.6219,423.5625 C1294.6219,423.4063 1294.6219,423.3594 1294.6063,423.2031 C1294.5438,422.7344 1294.2313,422.4219 1293.7781,422.4219 C1293.5281,422.4219 1293.2625,422.5625 1293.0906,422.7813 C1292.9813,422.9531 1292.95,423.1094 1292.95,423.5625 L1292.95,423.6875 L1291.4969,423.6875 L1291.4969,421.2813 L1295.4813,421.2813 L1295.4813,422.1406 C1295.4813,422.5469 1295.5125,422.7188 1295.5906,422.875 C1295.7625,423.125 1296.0438,423.2813 1296.325,423.2813 C1296.5906,423.2813 1296.8563,423.1406 1297.0281,422.9219 C1297.1375,422.75 1297.1688,422.6094 1297.1688,422.1406 L1297.1688,419.5938 L1289.5438,419.5938 C1289.1063,419.5938 1288.9813,419.6094 1288.825,419.7031 C1288.575,419.8594 1288.4188,420.1563 1288.4188,420.4375 C1288.4188,420.7188 1288.5594,420.9688 1288.7781,421.1406 C1288.9344,421.25 1289.1219,421.2813 1289.5438,421.2813 L1289.7938,421.2813 L1289.7938,427.7969 L1289.5438,427.7969 C1289.1375,427.7969 1288.9813,427.8125 1288.825,427.9219 C1288.575,428.0938 1288.4188,428.3594 1288.4188,428.6563 C1288.4188,428.9219 1288.5594,429.1719 1288.7781,429.3281 C1288.9188,429.4531 1289.1531,429.5 1289.5438,429.5 L1297.5438,429.5 L1297.5438,426.9219 C1297.5438,426.4844 1297.5125,426.3438 1297.4344,426.1875 C1297.2625,425.9375 1296.9813,425.7813 1296.7,425.7813 C1296.4344,425.7813 1296.1688,425.8906 1295.9969,426.1406 C1295.8875,426.2969 1295.8563,426.4375 1295.8563,426.9219 L1295.8563,427.7969 L1291.4969,427.7969 L1291.4969,425.375 Z " fill="#000000"/><text fill="#000000" font-family="sans-serif" font-size="14" lengthAdjust="spacing" textLength="111" x="1312.3" y="429.3467">Concentrations</text><line style="stroke:#181818;stroke-width:0.5;" x1="1253.5" x2="1450.5" y1="440.5" y2="440.5"/><ellipse cx="1263.5" cy="454.1484" fill="#000000" rx="3" ry="3" style="stroke:#000000;stroke-width:1.0;"/><text fill="#000000" font-family="sans-serif" font-size="14" lengthAdjust="spacing" textLength="66" x="1272.5" y="457.4951">Id: String</text><text fill="#000000" font-family="sans-serif" font-size="14" lengthAdjust="spacing" textLength="101" x="1272.5" y="473.792">Name: String?</text><ellipse cx="1263.5" cy="486.7422" fill="#000000" rx="3" ry="3" style="stroke:#000000;stroke-width:1.0;"/><text fill="#000000" font-family="sans-serif" font-size="14" lengthAdjust="spacing" textLength="105" x="1272.5" y="490.0889">MajorId: String</text><ellipse cx="1263.5" cy="503.0391" fill="#000000" rx="3" ry="3" style="stroke:#000000;stroke-width:1.0;"/><text fill="#000000" font-family="sans-serif" font-size="14" lengthAdjust="spacing" textLength="94" x="1272.5" y="506.3857">Major: Majors</text><ellipse cx="1263.5" cy="519.3359" fill="#000000" rx="3" ry="3" style="stroke:#000000;stroke-width:1.0;"/><text fill="#000000" font-family="sans-serif" font-size="14" lengthAdjust="spacing" textLength="173" x="1272.5" y="522.6826">Flowcharts: Flowcharts[]</text><line style="stroke:#181818;stroke-width:0.5;" x1="1253.5" x2="1450.5" y1="529.9844" y2="529.9844"/></g><!--class GraduationRequirements--><g id="elem_GraduationRequirements"><rect codeLine="95" fill="#F1F1F1" height="113.1875" id="GraduationRequirements" rx="2.5" ry="2.5" style="stroke:#181818;stroke-width:0.5;" width="331" x="1486.5" y="416.5"/><ellipse cx="1557.75" cy="432.5" fill="#ADD1B2" rx="11" ry="11" style="stroke:#181818;stroke-width:1.0;"/><path d="M1556.5469,433.375 L1558,433.375 L1558,433.4844 C1558,433.8906 1558.0313,434.0469 1558.1094,434.2031 C1558.2656,434.4531 1558.5469,434.6094 1558.8438,434.6094 C1559.0938,434.6094 1559.3594,434.4688 1559.5156,434.25 C1559.6406,434.0938 1559.6719,433.9375 1559.6719,433.4844 L1559.6719,431.5625 C1559.6719,431.4063 1559.6719,431.3594 1559.6563,431.2031 C1559.5938,430.7344 1559.2813,430.4219 1558.8281,430.4219 C1558.5781,430.4219 1558.3125,430.5625 1558.1406,430.7813 C1558.0313,430.9531 1558,431.1094 1558,431.5625 L1558,431.6875 L1556.5469,431.6875 L1556.5469,429.2813 L1560.5313,429.2813 L1560.5313,430.1406 C1560.5313,430.5469 1560.5625,430.7188 1560.6406,430.875 C1560.8125,431.125 1561.0938,431.2813 1561.375,431.2813 C1561.6406,431.2813 1561.9063,431.1406 1562.0781,430.9219 C1562.1875,430.75 1562.2188,430.6094 1562.2188,430.1406 L1562.2188,427.5938 L1554.5938,427.5938 C1554.1563,427.5938 1554.0313,427.6094 1553.875,427.7031 C1553.625,427.8594 1553.4688,428.1563 1553.4688,428.4375 C1553.4688,428.7188 1553.6094,428.9688 1553.8281,429.1406 C1553.9844,429.25 1554.1719,429.2813 1554.5938,429.2813 L1554.8438,429.2813 L1554.8438,435.7969 L1554.5938,435.7969 C1554.1875,435.7969 1554.0313,435.8125 1553.875,435.9219 C1553.625,436.0938 1553.4688,436.3594 1553.4688,436.6563 C1553.4688,436.9219 1553.6094,437.1719 1553.8281,437.3281 C1553.9688,437.4531 1554.2031,437.5 1554.5938,437.5 L1562.5938,437.5 L1562.5938,434.9219 C1562.5938,434.4844 1562.5625,434.3438 1562.4844,434.1875 C1562.3125,433.9375 1562.0313,433.7813 1561.75,433.7813 C1561.4844,433.7813 1561.2188,433.8906 1561.0469,434.1406 C1560.9375,434.2969 1560.9063,434.4375 1560.9063,434.9219 L1560.9063,435.7969 L1556.5469,435.7969 L1556.5469,433.375 Z " fill="#000000"/><text fill="#000000" font-family="sans-serif" font-size="14" lengthAdjust="spacing" textLength="180" x="1578.25" y="437.3467">GraduationRequirements</text><line style="stroke:#181818;stroke-width:0.5;" x1="1487.5" x2="1816.5" y1="448.5" y2="448.5"/><ellipse cx="1497.5" cy="462.1484" fill="#000000" rx="3" ry="3" style="stroke:#000000;stroke-width:1.0;"/><text fill="#000000" font-family="sans-serif" font-size="14" lengthAdjust="spacing" textLength="136" x="1506.5" y="465.4951">FlowchartId: String</text><ellipse cx="1497.5" cy="478.4453" fill="#000000" rx="3" ry="3" style="stroke:#000000;stroke-width:1.0;"/><text fill="#000000" font-family="sans-serif" font-size="14" lengthAdjust="spacing" textLength="90" x="1506.5" y="481.792">Code: String</text><ellipse cx="1497.5" cy="494.7422" fill="#000000" rx="3" ry="3" style="stroke:#000000;stroke-width:1.0;"/><text fill="#000000" font-family="sans-serif" font-size="14" lengthAdjust="spacing" textLength="156" x="1506.5" y="498.0889">Flowchart: Flowcharts</text><ellipse cx="1497.5" cy="511.0391" fill="#000000" rx="3" ry="3" style="stroke:#000000;stroke-width:1.0;"/><text fill="#000000" font-family="sans-serif" font-size="14" lengthAdjust="spacing" textLength="305" x="1506.5" y="514.3857">CourseCodeMapping: CourseCodeMapping</text><line style="stroke:#181818;stroke-width:0.5;" x1="1487.5" x2="1816.5" y1="521.6875" y2="521.6875"/></g><!--class Majors--><g id="elem_Majors"><rect codeLine="102" fill="#F1F1F1" height="113.1875" id="Majors" rx="2.5" ry="2.5" style="stroke:#181818;stroke-width:0.5;" width="267" x="1852.5" y="416.5"/><ellipse cx="1958.75" cy="432.5" fill="#ADD1B2" rx="11" ry="11" style="stroke:#181818;stroke-width:1.0;"/><path d="M1957.5469,433.375 L1959,433.375 L1959,433.4844 C1959,433.8906 1959.0313,434.0469 1959.1094,434.2031 C1959.2656,434.4531 1959.5469,434.6094 1959.8438,434.6094 C1960.0938,434.6094 1960.3594,434.4688 1960.5156,434.25 C1960.6406,434.0938 1960.6719,433.9375 1960.6719,433.4844 L1960.6719,431.5625 C1960.6719,431.4063 1960.6719,431.3594 1960.6563,431.2031 C1960.5938,430.7344 1960.2813,430.4219 1959.8281,430.4219 C1959.5781,430.4219 1959.3125,430.5625 1959.1406,430.7813 C1959.0313,430.9531 1959,431.1094 1959,431.5625 L1959,431.6875 L1957.5469,431.6875 L1957.5469,429.2813 L1961.5313,429.2813 L1961.5313,430.1406 C1961.5313,430.5469 1961.5625,430.7188 1961.6406,430.875 C1961.8125,431.125 1962.0938,431.2813 1962.375,431.2813 C1962.6406,431.2813 1962.9063,431.1406 1963.0781,430.9219 C1963.1875,430.75 1963.2188,430.6094 1963.2188,430.1406 L1963.2188,427.5938 L1955.5938,427.5938 C1955.1563,427.5938 1955.0313,427.6094 1954.875,427.7031 C1954.625,427.8594 1954.4688,428.1563 1954.4688,428.4375 C1954.4688,428.7188 1954.6094,428.9688 1954.8281,429.1406 C1954.9844,429.25 1955.1719,429.2813 1955.5938,429.2813 L1955.8438,429.2813 L1955.8438,435.7969 L1955.5938,435.7969 C1955.1875,435.7969 1955.0313,435.8125 1954.875,435.9219 C1954.625,436.0938 1954.4688,436.3594 1954.4688,436.6563 C1954.4688,436.9219 1954.6094,437.1719 1954.8281,437.3281 C1954.9688,437.4531 1955.2031,437.5 1955.5938,437.5 L1963.5938,437.5 L1963.5938,434.9219 C1963.5938,434.4844 1963.5625,434.3438 1963.4844,434.1875 C1963.3125,433.9375 1963.0313,433.7813 1962.75,433.7813 C1962.4844,433.7813 1962.2188,433.8906 1962.0469,434.1406 C1961.9375,434.2969 1961.9063,434.4375 1961.9063,434.9219 L1961.9063,435.7969 L1957.5469,435.7969 L1957.5469,433.375 Z " fill="#000000"/><text fill="#000000" font-family="sans-serif" font-size="14" lengthAdjust="spacing" textLength="46" x="1979.25" y="437.3467">Majors</text><line style="stroke:#181818;stroke-width:0.5;" x1="1853.5" x2="2118.5" y1="448.5" y2="448.5"/><ellipse cx="1863.5" cy="462.1484" fill="#000000" rx="3" ry="3" style="stroke:#000000;stroke-width:1.0;"/><text fill="#000000" font-family="sans-serif" font-size="14" lengthAdjust="spacing" textLength="66" x="1872.5" y="465.4951">Id: String</text><ellipse cx="1863.5" cy="478.4453" fill="#000000" rx="3" ry="3" style="stroke:#000000;stroke-width:1.0;"/><text fill="#000000" font-family="sans-serif" font-size="14" lengthAdjust="spacing" textLength="94" x="1872.5" y="481.792">Name: String</text><ellipse cx="1863.5" cy="494.7422" fill="#000000" rx="3" ry="3" style="stroke:#000000;stroke-width:1.0;"/><text fill="#000000" font-family="sans-serif" font-size="14" lengthAdjust="spacing" textLength="173" x="1872.5" y="498.0889">Flowcharts: Flowcharts[]</text><ellipse cx="1863.5" cy="511.0391" fill="#000000" rx="3" ry="3" style="stroke:#000000;stroke-width:1.0;"/><text fill="#000000" font-family="sans-serif" font-size="14" lengthAdjust="spacing" textLength="241" x="1872.5" y="514.3857">Concentrations: Concentrations[]</text><line style="stroke:#181818;stroke-width:0.5;" x1="1853.5" x2="2118.5" y1="521.6875" y2="521.6875"/></g><!--class CourseCodeMapping--><g id="elem_CourseCodeMapping"><rect codeLine="109" fill="#F1F1F1" height="113.1875" id="CourseCodeMapping" rx="2.5" ry="2.5" style="stroke:#181818;stroke-width:0.5;" width="405" x="578.5" y="416.5"/><ellipse cx="702.75" cy="432.5" fill="#ADD1B2" rx="11" ry="11" style="stroke:#181818;stroke-width:1.0;"/><path d="M701.5469,433.375 L703,433.375 L703,433.4844 C703,433.8906 703.0313,434.0469 703.1094,434.2031 C703.2656,434.4531 703.5469,434.6094 703.8438,434.6094 C704.0938,434.6094 704.3594,434.4688 704.5156,434.25 C704.6406,434.0938 704.6719,433.9375 704.6719,433.4844 L704.6719,431.5625 C704.6719,431.4063 704.6719,431.3594 704.6563,431.2031 C704.5938,430.7344 704.2813,430.4219 703.8281,430.4219 C703.5781,430.4219 703.3125,430.5625 703.1406,430.7813 C703.0313,430.9531 703,431.1094 703,431.5625 L703,431.6875 L701.5469,431.6875 L701.5469,429.2813 L705.5313,429.2813 L705.5313,430.1406 C705.5313,430.5469 705.5625,430.7188 705.6406,430.875 C705.8125,431.125 706.0938,431.2813 706.375,431.2813 C706.6406,431.2813 706.9063,431.1406 707.0781,430.9219 C707.1875,430.75 707.2188,430.6094 707.2188,430.1406 L707.2188,427.5938 L699.5938,427.5938 C699.1563,427.5938 699.0313,427.6094 698.875,427.7031 C698.625,427.8594 698.4688,428.1563 698.4688,428.4375 C698.4688,428.7188 698.6094,428.9688 698.8281,429.1406 C698.9844,429.25 699.1719,429.2813 699.5938,429.2813 L699.8438,429.2813 L699.8438,435.7969 L699.5938,435.7969 C699.1875,435.7969 699.0313,435.8125 698.875,435.9219 C698.625,436.0938 698.4688,436.3594 698.4688,436.6563 C698.4688,436.9219 698.6094,437.1719 698.8281,437.3281 C698.9688,437.4531 699.2031,437.5 699.5938,437.5 L707.5938,437.5 L707.5938,434.9219 C707.5938,434.4844 707.5625,434.3438 707.4844,434.1875 C707.3125,433.9375 707.0313,433.7813 706.75,433.7813 C706.4844,433.7813 706.2188,433.8906 706.0469,434.1406 C705.9375,434.2969 705.9063,434.4375 705.9063,434.9219 L705.9063,435.7969 L701.5469,435.7969 L701.5469,433.375 Z " fill="#000000"/><text fill="#000000" font-family="sans-serif" font-size="14" lengthAdjust="spacing" textLength="148" x="723.25" y="437.3467">CourseCodeMapping</text><line style="stroke:#181818;stroke-width:0.5;" x1="579.5" x2="982.5" y1="448.5" y2="448.5"/><ellipse cx="589.5" cy="462.1484" fill="#000000" rx="3" ry="3" style="stroke:#000000;stroke-width:1.0;"/><text fill="#000000" font-family="sans-serif" font-size="14" lengthAdjust="spacing" textLength="114" x="598.5" y="465.4951">OldCode: String</text><text fill="#000000" font-family="sans-serif" font-size="14" lengthAdjust="spacing" textLength="127" x="598.5" y="481.792">NewCode: String?</text><text fill="#000000" font-family="sans-serif" font-size="14" lengthAdjust="spacing" textLength="121" x="598.5" y="498.0889">Course: Courses?</text><ellipse cx="589.5" cy="511.0391" fill="#000000" rx="3" ry="3" style="stroke:#000000;stroke-width:1.0;"/><text fill="#000000" font-family="sans-serif" font-size="14" lengthAdjust="spacing" textLength="379" x="598.5" y="514.3857">GraduationRequirements: GraduationRequirements[]</text><line style="stroke:#181818;stroke-width:0.5;" x1="579.5" x2="982.5" y1="521.6875" y2="521.6875"/></g><!--link Courses to Sections--><g id="link_Courses_Sections"><path codeLine="116" d="M559.57,186 C559.57,186 536.333,186 536.333,186 C536.333,186 536.333,269.993 536.333,269.993 " fill="none" id="Courses-Sections" style="stroke:#181818;stroke-width:1.0;stroke-dasharray:7.0,7.0;"/><line style="stroke:#181818;stroke-width:1.0;" x1="563.57" x2="563.57" y1="182" y2="190"/><line style="stroke:#181818;stroke-width:1.0;" x1="560.57" x2="560.57" y1="182" y2="190"/><line style="stroke:#181818;stroke-width:1.0;" x1="559.57" x2="567.57" y1="186" y2="186"/><line style="stroke:#181818;stroke-width:1.0;" x1="536.333" x2="542.333" y1="269.993" y2="277.993"/><line style="stroke:#181818;stroke-width:1.0;" x1="536.333" x2="530.333" y1="269.993" y2="277.993"/><line style="stroke:#181818;stroke-width:1.0;" x1="536.333" x2="536.333" y1="269.993" y2="277.993"/><line style="stroke:#181818;stroke-width:1.0;" x1="540.333" x2="532.333" y1="267.993" y2="267.993"/></g><!--link Courses to Sections--><g id="link_Courses_Sections"><path codeLine="120" d="M559.8,202 C559.8,202 539.667,202 539.667,202 C539.667,202 539.667,269.849 539.667,269.849 " fill="none" id="Courses-Sections-1" style="stroke:#181818;stroke-width:1.0;stroke-dasharray:7.0,7.0;"/><line style="stroke:#181818;stroke-width:1.0;" x1="563.8" x2="563.8" y1="198" y2="206"/><line style="stroke:#181818;stroke-width:1.0;" x1="560.8" x2="560.8" y1="198" y2="206"/><line style="stroke:#181818;stroke-width:1.0;" x1="559.8" x2="567.8" y1="202" y2="202"/><line style="stroke:#181818;stroke-width:1.0;" x1="539.667" x2="545.667" y1="269.849" y2="277.849"/><line style="stroke:#181818;stroke-width:1.0;" x1="539.667" x2="533.667" y1="269.849" y2="277.849"/><line style="stroke:#181818;stroke-width:1.0;" x1="539.667" x2="539.667" y1="269.849" y2="277.849"/><line style="stroke:#181818;stroke-width:1.0;" x1="543.667" x2="535.667" y1="267.849" y2="267.849"/></g><!--link Enrolled to Sections--><g id="link_Enrolled_Sections"><path codeLine="117" d="M83,169.119 C83,169.119 83,473 83,473 C83,473 282.729,473 282.729,473 " fill="none" id="Enrolled-Sections" style="stroke:#181818;stroke-width:1.0;stroke-dasharray:7.0,7.0;"/><line style="stroke:#181818;stroke-width:1.0;" x1="83" x2="77" y1="169.119" y2="161.119"/><line style="stroke:#181818;stroke-width:1.0;" x1="83" x2="89" y1="169.119" y2="161.119"/><line style="stroke:#181818;stroke-width:1.0;" x1="83" x2="83" y1="169.119" y2="161.119"/><line style="stroke:#181818;stroke-width:1.0;" x1="79" x2="87" y1="171.119" y2="171.119"/><line style="stroke:#181818;stroke-width:1.0;" x1="286.729" x2="286.729" y1="469" y2="477"/><line style="stroke:#181818;stroke-width:1.0;" x1="283.729" x2="283.729" y1="469" y2="477"/><line style="stroke:#181818;stroke-width:1.0;" x1="282.729" x2="290.729" y1="473" y2="473"/></g><!--link ShoppingCart to Sections--><g id="link_ShoppingCart_Sections"><path codeLine="118" d="M318.5,169.119 C318.5,169.119 318.5,269.868 318.5,269.868 " fill="none" id="ShoppingCart-Sections" style="stroke:#181818;stroke-width:1.0;stroke-dasharray:7.0,7.0;"/><line style="stroke:#181818;stroke-width:1.0;" x1="318.5" x2="312.5" y1="169.119" y2="161.119"/><line style="stroke:#181818;stroke-width:1.0;" x1="318.5" x2="324.5" y1="169.119" y2="161.119"/><line style="stroke:#181818;stroke-width:1.0;" x1="318.5" x2="318.5" y1="169.119" y2="161.119"/><line style="stroke:#181818;stroke-width:1.0;" x1="314.5" x2="322.5" y1="171.119" y2="171.119"/><line style="stroke:#181818;stroke-width:1.0;" x1="322.5" x2="314.5" y1="273.868" y2="273.868"/><line style="stroke:#181818;stroke-width:1.0;" x1="322.5" x2="314.5" y1="270.868" y2="270.868"/><line style="stroke:#181818;stroke-width:1.0;" x1="318.5" x2="318.5" y1="269.868" y2="277.868"/></g><!--link Waitlist to Sections--><g id="link_Waitlist_Sections"><path codeLine="119" d="M457,177.225 C457,177.225 457,269.954 457,269.954 " fill="none" id="Waitlist-Sections" style="stroke:#181818;stroke-width:1.0;stroke-dasharray:7.0,7.0;"/><line style="stroke:#181818;stroke-width:1.0;" x1="457" x2="451" y1="177.225" y2="169.225"/><line style="stroke:#181818;stroke-width:1.0;" x1="457" x2="463" y1="177.225" y2="169.225"/><line style="stroke:#181818;stroke-width:1.0;" x1="457" x2="457" y1="177.225" y2="169.225"/><line style="stroke:#181818;stroke-width:1.0;" x1="453" x2="461" y1="179.225" y2="179.225"/><line style="stroke:#181818;stroke-width:1.0;" x1="461" x2="453" y1="273.954" y2="273.954"/><line style="stroke:#181818;stroke-width:1.0;" x1="461" x2="453" y1="270.954" y2="270.954"/><line style="stroke:#181818;stroke-width:1.0;" x1="457" x2="457" y1="269.954" y2="277.954"/></g><!--link Flowcharts to Catalogs--><g id="link_Flowcharts_Catalogs"><path codeLine="121" d="M1172.17,209.612 C1172.17,209.612 1172.17,424.033 1172.17,424.033 " fill="none" id="Flowcharts-Catalogs" style="stroke:#181818;stroke-width:1.0;stroke-dasharray:7.0,7.0;"/><line style="stroke:#181818;stroke-width:1.0;" x1="1172.17" x2="1166.17" y1="209.612" y2="201.612"/><line style="stroke:#181818;stroke-width:1.0;" x1="1172.17" x2="1178.17" y1="209.612" y2="201.612"/><line style="stroke:#181818;stroke-width:1.0;" x1="1172.17" x2="1172.17" y1="209.612" y2="201.612"/><line style="stroke:#181818;stroke-width:1.0;" x1="1168.17" x2="1176.17" y1="211.612" y2="211.612"/><line style="stroke:#181818;stroke-width:1.0;" x1="1176.17" x2="1168.17" y1="428.033" y2="428.033"/><line style="stroke:#181818;stroke-width:1.0;" x1="1176.17" x2="1168.17" y1="425.033" y2="425.033"/><line style="stroke:#181818;stroke-width:1.0;" x1="1172.17" x2="1172.17" y1="424.033" y2="432.033"/></g><!--link Flowcharts to Catalogs--><g id="link_Flowcharts_Catalogs"><path codeLine="122" d="M1194.83,209.612 C1194.83,209.612 1194.83,424.033 1194.83,424.033 " fill="none" id="Flowcharts-Catalogs-1" style="stroke:#181818;stroke-width:1.0;stroke-dasharray:7.0,7.0;"/><line style="stroke:#181818;stroke-width:1.0;" x1="1194.83" x2="1188.83" y1="209.612" y2="201.612"/><line style="stroke:#181818;stroke-width:1.0;" x1="1194.83" x2="1200.83" y1="209.612" y2="201.612"/><line style="stroke:#181818;stroke-width:1.0;" x1="1194.83" x2="1194.83" y1="209.612" y2="201.612"/><line style="stroke:#181818;stroke-width:1.0;" x1="1190.83" x2="1198.83" y1="211.612" y2="211.612"/><line style="stroke:#181818;stroke-width:1.0;" x1="1198.83" x2="1190.83" y1="428.033" y2="428.033"/><line style="stroke:#181818;stroke-width:1.0;" x1="1198.83" x2="1190.83" y1="425.033" y2="425.033"/><line style="stroke:#181818;stroke-width:1.0;" x1="1194.83" x2="1194.83" y1="424.033" y2="432.033"/></g><!--link Flowcharts to Concentrations--><g id="link_Flowcharts_Concentrations"><path codeLine="123" d="M1352,209.612 C1352,209.612 1352,400.386 1352,400.386 " fill="none" id="Flowcharts-Concentrations" style="stroke:#181818;stroke-width:1.0;stroke-dasharray:7.0,7.0;"/><line style="stroke:#181818;stroke-width:1.0;" x1="1352" x2="1346" y1="209.612" y2="201.612"/><line style="stroke:#181818;stroke-width:1.0;" x1="1352" x2="1358" y1="209.612" y2="201.612"/><line style="stroke:#181818;stroke-width:1.0;" x1="1352" x2="1352" y1="209.612" y2="201.612"/><line style="stroke:#181818;stroke-width:1.0;" x1="1348" x2="1356" y1="211.612" y2="211.612"/><line style="stroke:#181818;stroke-width:1.0;" x1="1356" x2="1348" y1="404.386" y2="404.386"/><line style="stroke:#181818;stroke-width:1.0;" x1="1356" x2="1348" y1="401.386" y2="401.386"/><line style="stroke:#181818;stroke-width:1.0;" x1="1352" x2="1352" y1="400.386" y2="408.386"/></g><!--link Flowcharts to GraduationRequirements--><g id="link_Flowcharts_GraduationRequirements"><path codeLine="124" d="M1520.5,209.612 C1520.5,209.612 1520.5,408.356 1520.5,408.356 " fill="none" id="Flowcharts-GraduationRequirements" style="stroke:#181818;stroke-width:1.0;stroke-dasharray:7.0,7.0;"/><line style="stroke:#181818;stroke-width:1.0;" x1="1516.5" x2="1524.5" y1="205.612" y2="205.612"/><line style="stroke:#181818;stroke-width:1.0;" x1="1516.5" x2="1524.5" y1="208.612" y2="208.612"/><line style="stroke:#181818;stroke-width:1.0;" x1="1520.5" x2="1520.5" y1="209.612" y2="201.612"/><line style="stroke:#181818;stroke-width:1.0;" x1="1520.5" x2="1526.5" y1="408.356" y2="416.356"/><line style="stroke:#181818;stroke-width:1.0;" x1="1520.5" x2="1514.5" y1="408.356" y2="416.356"/><line style="stroke:#181818;stroke-width:1.0;" x1="1520.5" x2="1520.5" y1="408.356" y2="416.356"/><line style="stroke:#181818;stroke-width:1.0;" x1="1524.5" x2="1516.5" y1="406.356" y2="406.356"/></g><!--link Flowcharts to Majors--><g id="link_Flowcharts_Majors"><path codeLine="125" d="M1562.78,113 C1562.78,113 1986,113 1986,113 C1986,113 1986,408.354 1986,408.354 " fill="none" id="Flowcharts-Majors" style="stroke:#181818;stroke-width:1.0;stroke-dasharray:7.0,7.0;"/><line style="stroke:#181818;stroke-width:1.0;" x1="1562.78" x2="1554.78" y1="113" y2="119"/><line style="stroke:#181818;stroke-width:1.0;" x1="1562.78" x2="1554.78" y1="113" y2="107"/><line style="stroke:#181818;stroke-width:1.0;" x1="1562.78" x2="1554.78" y1="113" y2="113"/><line style="stroke:#181818;stroke-width:1.0;" x1="1564.78" x2="1564.78" y1="117" y2="109"/><line style="stroke:#181818;stroke-width:1.0;" x1="1990" x2="1982" y1="412.354" y2="412.354"/><line style="stroke:#181818;stroke-width:1.0;" x1="1990" x2="1982" y1="409.354" y2="409.354"/><line style="stroke:#181818;stroke-width:1.0;" x1="1986" x2="1986" y1="408.354" y2="416.354"/></g><!--link Courses to CourseCodeMapping--><g id="link_Courses_CourseCodeMapping"><path codeLine="126" d="M747.25,226.226 C747.25,226.226 747.25,408.418 747.25,408.418 " fill="none" id="Courses-CourseCodeMapping" style="stroke:#181818;stroke-width:1.0;stroke-dasharray:7.0,7.0;"/><line style="stroke:#181818;stroke-width:1.0;" x1="747.25" x2="747.25" y1="229.226" y2="218.226"/><ellipse cx="747.25" cy="229.226" fill="none" rx="4" ry="4" style="stroke:#181818;stroke-width:1.0;"/><line style="stroke:#181818;stroke-width:1.0;" x1="743.25" x2="751.25" y1="222.226" y2="222.226"/><line style="stroke:#181818;stroke-width:1.0;" x1="747.25" x2="753.25" y1="408.418" y2="416.418"/><line style="stroke:#181818;stroke-width:1.0;" x1="747.25" x2="741.25" y1="408.418" y2="416.418"/><line style="stroke:#181818;stroke-width:1.0;" x1="747.25" x2="747.25" y1="408.418" y2="416.418"/><line style="stroke:#181818;stroke-width:1.0;" x1="751.25" x2="743.25" y1="406.418" y2="406.418"/></g><!--link Sections to Sections_Format--><g id="link_Sections_Sections_Format"><path codeLine="127" d="M344.25,676.215 C344.25,676.215 344.25,719.826 344.25,719.826 " fill="none" id="Sections-Sections_Format" style="stroke:#181818;stroke-width:1.0;stroke-dasharray:7.0,7.0;"/><line style="stroke:#181818;stroke-width:1.0;" x1="340.25" x2="348.25" y1="672.215" y2="672.215"/><line style="stroke:#181818;stroke-width:1.0;" x1="340.25" x2="348.25" y1="675.215" y2="675.215"/><line style="stroke:#181818;stroke-width:1.0;" x1="344.25" x2="344.25" y1="676.215" y2="668.215"/><line style="stroke:#181818;stroke-width:1.0;" x1="344.25" x2="344.25" y1="716.8256" y2="727.8256"/><ellipse cx="344.25" cy="716.8256" fill="none" rx="4" ry="4" style="stroke:#181818;stroke-width:1.0;"/><line style="stroke:#181818;stroke-width:1.0;" x1="348.25" x2="340.25" y1="723.8256" y2="723.8256"/></g><!--link Sections to Sections_Modality--><g id="link_Sections_Sections_Modality"><path codeLine="128" d="M488,676.215 C488,676.215 488,719.826 488,719.826 " fill="none" id="Sections-Sections_Modality" style="stroke:#181818;stroke-width:1.0;stroke-dasharray:7.0,7.0;"/><line style="stroke:#181818;stroke-width:1.0;" x1="484" x2="492" y1="672.215" y2="672.215"/><line style="stroke:#181818;stroke-width:1.0;" x1="484" x2="492" y1="675.215" y2="675.215"/><line style="stroke:#181818;stroke-width:1.0;" x1="488" x2="488" y1="676.215" y2="668.215"/><line style="stroke:#181818;stroke-width:1.0;" x1="488" x2="488" y1="716.8256" y2="727.8256"/><ellipse cx="488" cy="716.8256" fill="none" rx="4" ry="4" style="stroke:#181818;stroke-width:1.0;"/><line style="stroke:#181818;stroke-width:1.0;" x1="492" x2="484" y1="723.8256" y2="723.8256"/></g><!--SRC=[hLNDRjim3BxdANpUeG-WIu0cpT1XIOCwHJ4Cmw36RAFD5br9HbiqVVT9icJhnzcwOITJd_ZtKIGjVpBUKa6RecOSr4iB1GfrmDaCUDSK9UmLGow_hr0qL1MliwBuhB5EW9PAQ1Ydmc3qRlQMsgoneZLJBzRgYfi0MhZaMn0IkHPtvylUIXcj1NP2WhJQ7_If0bAKIZ3-O86jW7ls746Rhha3GRHBPSzhncyuKp90w7E2R6WJ-bs2t0lMceGzEjUm3YRWKPjzqfdEhQ6dHGRfwpUNgSdRvBkcRQiTQ9KCqxeZqmikiAwXSbHlf24Hy781BginRGUDmGDtvG5jZ0KLwZ-vlALCrKnwTnFMMOGjIjRxUrVE3ZeTe2zXJ49fXgHOKWKxre35BdWL8MN7A_f2YdF46gXzkpLcqAu3cMAtKF4StHrq6Ycu4Yo5Igg78WKNjALxJTUoiZ5SNRCBqzzu3r9YMDLhn2PiotuAIJgMFSb-s4W-V_EWdaDlIWlwV3JiHTVLOLEPdW-EJiDtiRxrOjJbgngVzWTZxXvv0Cmp1y-we8hM-F05QDnHQ_e3HQgBVA_z2-hR9VT3l217BwJ_oDm7YO-znaT1gywUh-6nOm8QhQ1vJkCHQn_Rhx4JtCRYa42EFKLvENyHvN2NpK-MB2_0Eu9FC_tJGwOxUr0CuqmlpOcT6QJJ9pzLWsoZ_uPUzlWoVVta0PA4NFohkagORk0fHEpek_Nbfct-pttbVul7uzdPyNNSfSDFvCrS7CUBw7UGNWwBFRqu5IQOOcSoJDVVNSLJ5YYuYDCrcF3a6db86ArvtZt3ByO4m6EwD4_V-xtv2m00]--></g></svg>
