<?xml version="1.0" encoding="us-ascii" standalone="no"?><svg xmlns="http://www.w3.org/2000/svg" xmlns:xlink="http://www.w3.org/1999/xlink" contentStyleType="text/css" height="848px" preserveAspectRatio="none" style="width:1632px;height:848px;background:#FFFFFF;" version="1.1" viewBox="0 0 1632 848" width="1632px" zoomAndPan="magnify"><defs/><g><!--class Sections_Format--><g id="elem_Sections_Format"><rect codeLine="3" fill="#F1F1F1" height="96.8906" id="Sections_Format" rx="2.5" ry="2.5" style="stroke:#181818;stroke-width:0.5;" width="153" x="115.5" y="745"/><ellipse cx="130.5" cy="761" fill="#EB937F" rx="11" ry="11" style="stroke:#181818;stroke-width:1.0;"/><path d="M129.2969,761.875 L130.75,761.875 L130.75,761.9844 C130.75,762.3906 130.7813,762.5469 130.8594,762.7031 C131.0156,762.9531 131.2969,763.1094 131.5938,763.1094 C131.8438,763.1094 132.1094,762.9688 132.2656,762.75 C132.3906,762.5938 132.4219,762.4375 132.4219,761.9844 L132.4219,760.0625 C132.4219,759.9063 132.4219,759.8594 132.4063,759.7031 C132.3438,759.2344 132.0313,758.9219 131.5781,758.9219 C131.3281,758.9219 131.0625,759.0625 130.8906,759.2813 C130.7813,759.4531 130.75,759.6094 130.75,760.0625 L130.75,760.1875 L129.2969,760.1875 L129.2969,757.7813 L133.2813,757.7813 L133.2813,758.6406 C133.2813,759.0469 133.3125,759.2188 133.3906,759.375 C133.5625,759.625 133.8438,759.7813 134.125,759.7813 C134.3906,759.7813 134.6563,759.6406 134.8281,759.4219 C134.9375,759.25 134.9688,759.1094 134.9688,758.6406 L134.9688,756.0938 L127.3438,756.0938 C126.9063,756.0938 126.7813,756.1094 126.625,756.2031 C126.375,756.3594 126.2188,756.6563 126.2188,756.9375 C126.2188,757.2188 126.3594,757.4688 126.5781,757.6406 C126.7344,757.75 126.9219,757.7813 127.3438,757.7813 L127.5938,757.7813 L127.5938,764.2969 L127.3438,764.2969 C126.9375,764.2969 126.7813,764.3125 126.625,764.4219 C126.375,764.5938 126.2188,764.8594 126.2188,765.1563 C126.2188,765.4219 126.3594,765.6719 126.5781,765.8281 C126.7188,765.9531 126.9531,766 127.3438,766 L135.3438,766 L135.3438,763.4219 C135.3438,762.9844 135.3125,762.8438 135.2344,762.6875 C135.0625,762.4375 134.7813,762.2813 134.5,762.2813 C134.2344,762.2813 133.9688,762.3906 133.7969,762.6406 C133.6875,762.7969 133.6563,762.9375 133.6563,763.4219 L133.6563,764.2969 L129.2969,764.2969 L129.2969,761.875 Z " fill="#000000"/><text fill="#000000" font-family="sans-serif" font-size="14" lengthAdjust="spacing" textLength="121" x="144.5" y="765.8467">Sections_Format</text><line style="stroke:#181818;stroke-width:0.5;" x1="116.5" x2="267.5" y1="777" y2="777"/><text fill="#000000" font-family="sans-serif" font-size="14" lengthAdjust="spacing" textLength="55" x="121.5" y="793.9951">Lecture</text><text fill="#000000" font-family="sans-serif" font-size="14" lengthAdjust="spacing" textLength="59" x="121.5" y="810.292">Seminar</text><text fill="#000000" font-family="sans-serif" font-size="14" lengthAdjust="spacing" textLength="26" x="121.5" y="826.5889">Lab</text><line style="stroke:#181818;stroke-width:0.5;" x1="116.5" x2="267.5" y1="833.8906" y2="833.8906"/></g><!--class Sections_Modality--><g id="elem_Sections_Modality"><rect codeLine="9" fill="#F1F1F1" height="96.8906" id="Sections_Modality" rx="2.5" ry="2.5" style="stroke:#181818;stroke-width:0.5;" width="162" x="304" y="745"/><ellipse cx="319" cy="761" fill="#EB937F" rx="11" ry="11" style="stroke:#181818;stroke-width:1.0;"/><path d="M317.7969,761.875 L319.25,761.875 L319.25,761.9844 C319.25,762.3906 319.2813,762.5469 319.3594,762.7031 C319.5156,762.9531 319.7969,763.1094 320.0938,763.1094 C320.3438,763.1094 320.6094,762.9688 320.7656,762.75 C320.8906,762.5938 320.9219,762.4375 320.9219,761.9844 L320.9219,760.0625 C320.9219,759.9063 320.9219,759.8594 320.9063,759.7031 C320.8438,759.2344 320.5313,758.9219 320.0781,758.9219 C319.8281,758.9219 319.5625,759.0625 319.3906,759.2813 C319.2813,759.4531 319.25,759.6094 319.25,760.0625 L319.25,760.1875 L317.7969,760.1875 L317.7969,757.7813 L321.7813,757.7813 L321.7813,758.6406 C321.7813,759.0469 321.8125,759.2188 321.8906,759.375 C322.0625,759.625 322.3438,759.7813 322.625,759.7813 C322.8906,759.7813 323.1563,759.6406 323.3281,759.4219 C323.4375,759.25 323.4688,759.1094 323.4688,758.6406 L323.4688,756.0938 L315.8438,756.0938 C315.4063,756.0938 315.2813,756.1094 315.125,756.2031 C314.875,756.3594 314.7188,756.6563 314.7188,756.9375 C314.7188,757.2188 314.8594,757.4688 315.0781,757.6406 C315.2344,757.75 315.4219,757.7813 315.8438,757.7813 L316.0938,757.7813 L316.0938,764.2969 L315.8438,764.2969 C315.4375,764.2969 315.2813,764.3125 315.125,764.4219 C314.875,764.5938 314.7188,764.8594 314.7188,765.1563 C314.7188,765.4219 314.8594,765.6719 315.0781,765.8281 C315.2188,765.9531 315.4531,766 315.8438,766 L323.8438,766 L323.8438,763.4219 C323.8438,762.9844 323.8125,762.8438 323.7344,762.6875 C323.5625,762.4375 323.2813,762.2813 323,762.2813 C322.7344,762.2813 322.4688,762.3906 322.2969,762.6406 C322.1875,762.7969 322.1563,762.9375 322.1563,763.4219 L322.1563,764.2969 L317.7969,764.2969 L317.7969,761.875 Z " fill="#000000"/><text fill="#000000" font-family="sans-serif" font-size="14" lengthAdjust="spacing" textLength="130" x="333" y="765.8467">Sections_Modality</text><line style="stroke:#181818;stroke-width:0.5;" x1="305" x2="465" y1="777" y2="777"/><text fill="#000000" font-family="sans-serif" font-size="14" lengthAdjust="spacing" textLength="46" x="310" y="793.9951">Online</text><text fill="#000000" font-family="sans-serif" font-size="14" lengthAdjust="spacing" textLength="62" x="310" y="810.292">InPerson</text><text fill="#000000" font-family="sans-serif" font-size="14" lengthAdjust="spacing" textLength="30" x="310" y="826.5889">TBD</text><line style="stroke:#181818;stroke-width:0.5;" x1="305" x2="465" y1="833.8906" y2="833.8906"/></g><!--class Courses--><g id="elem_Courses"><rect codeLine="15" fill="#F1F1F1" height="210.9688" id="Courses" rx="2.5" ry="2.5" style="stroke:#181818;stroke-width:0.5;" width="170" x="7" y="7"/><ellipse cx="59.75" cy="23" fill="#ADD1B2" rx="11" ry="11" style="stroke:#181818;stroke-width:1.0;"/><path d="M58.5469,23.875 L60,23.875 L60,23.9844 C60,24.3906 60.0313,24.5469 60.1094,24.7031 C60.2656,24.9531 60.5469,25.1094 60.8438,25.1094 C61.0938,25.1094 61.3594,24.9688 61.5156,24.75 C61.6406,24.5938 61.6719,24.4375 61.6719,23.9844 L61.6719,22.0625 C61.6719,21.9063 61.6719,21.8594 61.6563,21.7031 C61.5938,21.2344 61.2813,20.9219 60.8281,20.9219 C60.5781,20.9219 60.3125,21.0625 60.1406,21.2813 C60.0313,21.4531 60,21.6094 60,22.0625 L60,22.1875 L58.5469,22.1875 L58.5469,19.7813 L62.5313,19.7813 L62.5313,20.6406 C62.5313,21.0469 62.5625,21.2188 62.6406,21.375 C62.8125,21.625 63.0938,21.7813 63.375,21.7813 C63.6406,21.7813 63.9063,21.6406 64.0781,21.4219 C64.1875,21.25 64.2188,21.1094 64.2188,20.6406 L64.2188,18.0938 L56.5938,18.0938 C56.1563,18.0938 56.0313,18.1094 55.875,18.2031 C55.625,18.3594 55.4688,18.6563 55.4688,18.9375 C55.4688,19.2188 55.6094,19.4688 55.8281,19.6406 C55.9844,19.75 56.1719,19.7813 56.5938,19.7813 L56.8438,19.7813 L56.8438,26.2969 L56.5938,26.2969 C56.1875,26.2969 56.0313,26.3125 55.875,26.4219 C55.625,26.5938 55.4688,26.8594 55.4688,27.1563 C55.4688,27.4219 55.6094,27.6719 55.8281,27.8281 C55.9688,27.9531 56.2031,28 56.5938,28 L64.5938,28 L64.5938,25.4219 C64.5938,24.9844 64.5625,24.8438 64.4844,24.6875 C64.3125,24.4375 64.0313,24.2813 63.75,24.2813 C63.4844,24.2813 63.2188,24.3906 63.0469,24.6406 C62.9375,24.7969 62.9063,24.9375 62.9063,25.4219 L62.9063,26.2969 L58.5469,26.2969 L58.5469,23.875 Z " fill="#000000"/><text fill="#000000" font-family="sans-serif" font-size="14" lengthAdjust="spacing" textLength="56" x="80.25" y="27.8467">Courses</text><line style="stroke:#181818;stroke-width:0.5;" x1="8" x2="176" y1="39" y2="39"/><ellipse cx="18" cy="52.6484" fill="#000000" rx="3" ry="3" style="stroke:#000000;stroke-width:1.0;"/><text fill="#000000" font-family="sans-serif" font-size="14" lengthAdjust="spacing" textLength="140" x="27" y="55.9951">CatalogYear: String</text><ellipse cx="18" cy="68.9453" fill="#000000" rx="3" ry="3" style="stroke:#000000;stroke-width:1.0;"/><text fill="#000000" font-family="sans-serif" font-size="14" lengthAdjust="spacing" textLength="90" x="27" y="72.292">Code: String</text><ellipse cx="18" cy="85.2422" fill="#000000" rx="3" ry="3" style="stroke:#000000;stroke-width:1.0;"/><text fill="#000000" font-family="sans-serif" font-size="14" lengthAdjust="spacing" textLength="95" x="27" y="88.5889">Prefix: String</text><ellipse cx="18" cy="101.5391" fill="#000000" rx="3" ry="3" style="stroke:#000000;stroke-width:1.0;"/><text fill="#000000" font-family="sans-serif" font-size="14" lengthAdjust="spacing" textLength="86" x="27" y="104.8857">Number: Int</text><text fill="#000000" font-family="sans-serif" font-size="14" lengthAdjust="spacing" textLength="97" x="27" y="121.1826">MinUnits: Int?</text><text fill="#000000" font-family="sans-serif" font-size="14" lengthAdjust="spacing" textLength="100" x="27" y="137.4795">MaxUnits: Int?</text><ellipse cx="18" cy="150.4297" fill="#000000" rx="3" ry="3" style="stroke:#000000;stroke-width:1.0;"/><text fill="#000000" font-family="sans-serif" font-size="14" lengthAdjust="spacing" textLength="94" x="27" y="153.7764">Name: String</text><text fill="#000000" font-family="sans-serif" font-size="14" lengthAdjust="spacing" textLength="144" x="27" y="170.0732">Description: String?</text><text fill="#000000" font-family="sans-serif" font-size="14" lengthAdjust="spacing" textLength="100" x="27" y="186.3701">Prereqs: Json?</text><ellipse cx="18" cy="199.3203" fill="#000000" rx="3" ry="3" style="stroke:#000000;stroke-width:1.0;"/><text fill="#000000" font-family="sans-serif" font-size="14" lengthAdjust="spacing" textLength="143" x="27" y="202.667">Sections: Sections[]</text><line style="stroke:#181818;stroke-width:0.5;" x1="8" x2="176" y1="209.9688" y2="209.9688"/></g><!--class Enrolled--><g id="elem_Enrolled"><rect codeLine="28" fill="#F1F1F1" height="96.8906" id="Enrolled" rx="2.5" ry="2.5" style="stroke:#181818;stroke-width:0.5;" width="152" x="212" y="64"/><ellipse cx="254.45" cy="80" fill="#ADD1B2" rx="11" ry="11" style="stroke:#181818;stroke-width:1.0;"/><path d="M253.2469,80.875 L254.7,80.875 L254.7,80.9844 C254.7,81.3906 254.7313,81.5469 254.8094,81.7031 C254.9656,81.9531 255.2469,82.1094 255.5438,82.1094 C255.7938,82.1094 256.0594,81.9688 256.2156,81.75 C256.3406,81.5938 256.3719,81.4375 256.3719,80.9844 L256.3719,79.0625 C256.3719,78.9063 256.3719,78.8594 256.3563,78.7031 C256.2938,78.2344 255.9813,77.9219 255.5281,77.9219 C255.2781,77.9219 255.0125,78.0625 254.8406,78.2813 C254.7313,78.4531 254.7,78.6094 254.7,79.0625 L254.7,79.1875 L253.2469,79.1875 L253.2469,76.7813 L257.2313,76.7813 L257.2313,77.6406 C257.2313,78.0469 257.2625,78.2188 257.3406,78.375 C257.5125,78.625 257.7938,78.7813 258.075,78.7813 C258.3406,78.7813 258.6063,78.6406 258.7781,78.4219 C258.8875,78.25 258.9188,78.1094 258.9188,77.6406 L258.9188,75.0938 L251.2938,75.0938 C250.8563,75.0938 250.7313,75.1094 250.575,75.2031 C250.325,75.3594 250.1688,75.6563 250.1688,75.9375 C250.1688,76.2188 250.3094,76.4688 250.5281,76.6406 C250.6844,76.75 250.8719,76.7813 251.2938,76.7813 L251.5438,76.7813 L251.5438,83.2969 L251.2938,83.2969 C250.8875,83.2969 250.7313,83.3125 250.575,83.4219 C250.325,83.5938 250.1688,83.8594 250.1688,84.1563 C250.1688,84.4219 250.3094,84.6719 250.5281,84.8281 C250.6688,84.9531 250.9031,85 251.2938,85 L259.2938,85 L259.2938,82.4219 C259.2938,81.9844 259.2625,81.8438 259.1844,81.6875 C259.0125,81.4375 258.7313,81.2813 258.45,81.2813 C258.1844,81.2813 257.9188,81.3906 257.7469,81.6406 C257.6375,81.7969 257.6063,81.9375 257.6063,82.4219 L257.6063,83.2969 L253.2469,83.2969 L253.2469,80.875 Z " fill="#000000"/><text fill="#000000" font-family="sans-serif" font-size="14" lengthAdjust="spacing" textLength="59" x="274.55" y="84.8467">Enrolled</text><line style="stroke:#181818;stroke-width:0.5;" x1="213" x2="363" y1="96" y2="96"/><ellipse cx="223" cy="109.6484" fill="#000000" rx="3" ry="3" style="stroke:#000000;stroke-width:1.0;"/><text fill="#000000" font-family="sans-serif" font-size="14" lengthAdjust="spacing" textLength="84" x="232" y="112.9951">User: String</text><ellipse cx="223" cy="125.9453" fill="#000000" rx="3" ry="3" style="stroke:#000000;stroke-width:1.0;"/><text fill="#000000" font-family="sans-serif" font-size="14" lengthAdjust="spacing" textLength="97" x="232" y="129.292">SectionId: Int</text><ellipse cx="223" cy="142.2422" fill="#000000" rx="3" ry="3" style="stroke:#000000;stroke-width:1.0;"/><text fill="#000000" font-family="sans-serif" font-size="14" lengthAdjust="spacing" textLength="126" x="232" y="145.5889">Section: Sections</text><line style="stroke:#181818;stroke-width:0.5;" x1="213" x2="363" y1="152.8906" y2="152.8906"/></g><!--class ShoppingCart--><g id="elem_ShoppingCart"><rect codeLine="34" fill="#F1F1F1" height="96.8906" id="ShoppingCart" rx="2.5" ry="2.5" style="stroke:#181818;stroke-width:0.5;" width="152" x="399" y="64"/><ellipse cx="423" cy="80" fill="#ADD1B2" rx="11" ry="11" style="stroke:#181818;stroke-width:1.0;"/><path d="M421.7969,80.875 L423.25,80.875 L423.25,80.9844 C423.25,81.3906 423.2813,81.5469 423.3594,81.7031 C423.5156,81.9531 423.7969,82.1094 424.0938,82.1094 C424.3438,82.1094 424.6094,81.9688 424.7656,81.75 C424.8906,81.5938 424.9219,81.4375 424.9219,80.9844 L424.9219,79.0625 C424.9219,78.9063 424.9219,78.8594 424.9063,78.7031 C424.8438,78.2344 424.5313,77.9219 424.0781,77.9219 C423.8281,77.9219 423.5625,78.0625 423.3906,78.2813 C423.2813,78.4531 423.25,78.6094 423.25,79.0625 L423.25,79.1875 L421.7969,79.1875 L421.7969,76.7813 L425.7813,76.7813 L425.7813,77.6406 C425.7813,78.0469 425.8125,78.2188 425.8906,78.375 C426.0625,78.625 426.3438,78.7813 426.625,78.7813 C426.8906,78.7813 427.1563,78.6406 427.3281,78.4219 C427.4375,78.25 427.4688,78.1094 427.4688,77.6406 L427.4688,75.0938 L419.8438,75.0938 C419.4063,75.0938 419.2813,75.1094 419.125,75.2031 C418.875,75.3594 418.7188,75.6563 418.7188,75.9375 C418.7188,76.2188 418.8594,76.4688 419.0781,76.6406 C419.2344,76.75 419.4219,76.7813 419.8438,76.7813 L420.0938,76.7813 L420.0938,83.2969 L419.8438,83.2969 C419.4375,83.2969 419.2813,83.3125 419.125,83.4219 C418.875,83.5938 418.7188,83.8594 418.7188,84.1563 C418.7188,84.4219 418.8594,84.6719 419.0781,84.8281 C419.2188,84.9531 419.4531,85 419.8438,85 L427.8438,85 L427.8438,82.4219 C427.8438,81.9844 427.8125,81.8438 427.7344,81.6875 C427.5625,81.4375 427.2813,81.2813 427,81.2813 C426.7344,81.2813 426.4688,81.3906 426.2969,81.6406 C426.1875,81.7969 426.1563,81.9375 426.1563,82.4219 L426.1563,83.2969 L421.7969,83.2969 L421.7969,80.875 Z " fill="#000000"/><text fill="#000000" font-family="sans-serif" font-size="14" lengthAdjust="spacing" textLength="100" x="439" y="84.8467">ShoppingCart</text><line style="stroke:#181818;stroke-width:0.5;" x1="400" x2="550" y1="96" y2="96"/><ellipse cx="410" cy="109.6484" fill="#000000" rx="3" ry="3" style="stroke:#000000;stroke-width:1.0;"/><text fill="#000000" font-family="sans-serif" font-size="14" lengthAdjust="spacing" textLength="84" x="419" y="112.9951">User: String</text><ellipse cx="410" cy="125.9453" fill="#000000" rx="3" ry="3" style="stroke:#000000;stroke-width:1.0;"/><text fill="#000000" font-family="sans-serif" font-size="14" lengthAdjust="spacing" textLength="97" x="419" y="129.292">SectionId: Int</text><ellipse cx="410" cy="142.2422" fill="#000000" rx="3" ry="3" style="stroke:#000000;stroke-width:1.0;"/><text fill="#000000" font-family="sans-serif" font-size="14" lengthAdjust="spacing" textLength="126" x="419" y="145.5889">Section: Sections</text><line style="stroke:#181818;stroke-width:0.5;" x1="400" x2="550" y1="152.8906" y2="152.8906"/></g><!--class Waitlist--><g id="elem_Waitlist"><rect codeLine="40" fill="#F1F1F1" height="113.1875" id="Waitlist" rx="2.5" ry="2.5" style="stroke:#181818;stroke-width:0.5;" width="152" x="586" y="56"/><ellipse cx="630.25" cy="72" fill="#ADD1B2" rx="11" ry="11" style="stroke:#181818;stroke-width:1.0;"/><path d="M629.0469,72.875 L630.5,72.875 L630.5,72.9844 C630.5,73.3906 630.5313,73.5469 630.6094,73.7031 C630.7656,73.9531 631.0469,74.1094 631.3438,74.1094 C631.5938,74.1094 631.8594,73.9688 632.0156,73.75 C632.1406,73.5938 632.1719,73.4375 632.1719,72.9844 L632.1719,71.0625 C632.1719,70.9063 632.1719,70.8594 632.1563,70.7031 C632.0938,70.2344 631.7813,69.9219 631.3281,69.9219 C631.0781,69.9219 630.8125,70.0625 630.6406,70.2813 C630.5313,70.4531 630.5,70.6094 630.5,71.0625 L630.5,71.1875 L629.0469,71.1875 L629.0469,68.7813 L633.0313,68.7813 L633.0313,69.6406 C633.0313,70.0469 633.0625,70.2188 633.1406,70.375 C633.3125,70.625 633.5938,70.7813 633.875,70.7813 C634.1406,70.7813 634.4063,70.6406 634.5781,70.4219 C634.6875,70.25 634.7188,70.1094 634.7188,69.6406 L634.7188,67.0938 L627.0938,67.0938 C626.6563,67.0938 626.5313,67.1094 626.375,67.2031 C626.125,67.3594 625.9688,67.6563 625.9688,67.9375 C625.9688,68.2188 626.1094,68.4688 626.3281,68.6406 C626.4844,68.75 626.6719,68.7813 627.0938,68.7813 L627.3438,68.7813 L627.3438,75.2969 L627.0938,75.2969 C626.6875,75.2969 626.5313,75.3125 626.375,75.4219 C626.125,75.5938 625.9688,75.8594 625.9688,76.1563 C625.9688,76.4219 626.1094,76.6719 626.3281,76.8281 C626.4688,76.9531 626.7031,77 627.0938,77 L635.0938,77 L635.0938,74.4219 C635.0938,73.9844 635.0625,73.8438 634.9844,73.6875 C634.8125,73.4375 634.5313,73.2813 634.25,73.2813 C633.9844,73.2813 633.7188,73.3906 633.5469,73.6406 C633.4375,73.7969 633.4063,73.9375 633.4063,74.4219 L633.4063,75.2969 L629.0469,75.2969 L629.0469,72.875 Z " fill="#000000"/><text fill="#000000" font-family="sans-serif" font-size="14" lengthAdjust="spacing" textLength="55" x="650.75" y="76.8467">Waitlist</text><line style="stroke:#181818;stroke-width:0.5;" x1="587" x2="737" y1="88" y2="88"/><ellipse cx="597" cy="101.6484" fill="#000000" rx="3" ry="3" style="stroke:#000000;stroke-width:1.0;"/><text fill="#000000" font-family="sans-serif" font-size="14" lengthAdjust="spacing" textLength="97" x="606" y="104.9951">SectionId: Int</text><ellipse cx="597" cy="117.9453" fill="#000000" rx="3" ry="3" style="stroke:#000000;stroke-width:1.0;"/><text fill="#000000" font-family="sans-serif" font-size="14" lengthAdjust="spacing" textLength="84" x="606" y="121.292">User: String</text><ellipse cx="597" cy="134.2422" fill="#000000" rx="3" ry="3" style="stroke:#000000;stroke-width:1.0;"/><text fill="#000000" font-family="sans-serif" font-size="14" lengthAdjust="spacing" textLength="87" x="606" y="137.5889">Position: Int</text><ellipse cx="597" cy="150.5391" fill="#000000" rx="3" ry="3" style="stroke:#000000;stroke-width:1.0;"/><text fill="#000000" font-family="sans-serif" font-size="14" lengthAdjust="spacing" textLength="126" x="606" y="153.8857">Section: Sections</text><line style="stroke:#181818;stroke-width:0.5;" x1="587" x2="737" y1="161.1875" y2="161.1875"/></g><!--class Sections--><g id="elem_Sections"><rect codeLine="47" fill="#F1F1F1" height="406.5313" id="Sections" rx="2.5" ry="2.5" style="stroke:#181818;stroke-width:0.5;" width="252" x="162" y="278"/><ellipse cx="252.75" cy="294" fill="#ADD1B2" rx="11" ry="11" style="stroke:#181818;stroke-width:1.0;"/><path d="M251.5469,294.875 L253,294.875 L253,294.9844 C253,295.3906 253.0313,295.5469 253.1094,295.7031 C253.2656,295.9531 253.5469,296.1094 253.8438,296.1094 C254.0938,296.1094 254.3594,295.9688 254.5156,295.75 C254.6406,295.5938 254.6719,295.4375 254.6719,294.9844 L254.6719,293.0625 C254.6719,292.9063 254.6719,292.8594 254.6563,292.7031 C254.5938,292.2344 254.2813,291.9219 253.8281,291.9219 C253.5781,291.9219 253.3125,292.0625 253.1406,292.2813 C253.0313,292.4531 253,292.6094 253,293.0625 L253,293.1875 L251.5469,293.1875 L251.5469,290.7813 L255.5313,290.7813 L255.5313,291.6406 C255.5313,292.0469 255.5625,292.2188 255.6406,292.375 C255.8125,292.625 256.0938,292.7813 256.375,292.7813 C256.6406,292.7813 256.9063,292.6406 257.0781,292.4219 C257.1875,292.25 257.2188,292.1094 257.2188,291.6406 L257.2188,289.0938 L249.5938,289.0938 C249.1563,289.0938 249.0313,289.1094 248.875,289.2031 C248.625,289.3594 248.4688,289.6563 248.4688,289.9375 C248.4688,290.2188 248.6094,290.4688 248.8281,290.6406 C248.9844,290.75 249.1719,290.7813 249.5938,290.7813 L249.8438,290.7813 L249.8438,297.2969 L249.5938,297.2969 C249.1875,297.2969 249.0313,297.3125 248.875,297.4219 C248.625,297.5938 248.4688,297.8594 248.4688,298.1563 C248.4688,298.4219 248.6094,298.6719 248.8281,298.8281 C248.9688,298.9531 249.2031,299 249.5938,299 L257.5938,299 L257.5938,296.4219 C257.5938,295.9844 257.5625,295.8438 257.4844,295.6875 C257.3125,295.4375 257.0313,295.2813 256.75,295.2813 C256.4844,295.2813 256.2188,295.3906 256.0469,295.6406 C255.9375,295.7969 255.9063,295.9375 255.9063,296.4219 L255.9063,297.2969 L251.5469,297.2969 L251.5469,294.875 Z " fill="#000000"/><text fill="#000000" font-family="sans-serif" font-size="14" lengthAdjust="spacing" textLength="62" x="273.25" y="298.8467">Sections</text><line style="stroke:#181818;stroke-width:0.5;" x1="163" x2="413" y1="310" y2="310"/><ellipse cx="173" cy="323.6484" fill="#000000" rx="3" ry="3" style="stroke:#000000;stroke-width:1.0;"/><text fill="#000000" font-family="sans-serif" font-size="14" lengthAdjust="spacing" textLength="97" x="182" y="326.9951">SectionId: Int</text><ellipse cx="173" cy="339.9453" fill="#000000" rx="3" ry="3" style="stroke:#000000;stroke-width:1.0;"/><text fill="#000000" font-family="sans-serif" font-size="14" lengthAdjust="spacing" textLength="102" x="182" y="343.292">Course: String</text><ellipse cx="173" cy="356.2422" fill="#000000" rx="3" ry="3" style="stroke:#000000;stroke-width:1.0;"/><text fill="#000000" font-family="sans-serif" font-size="14" lengthAdjust="spacing" textLength="117" x="182" y="359.5889">Start: DateTime</text><ellipse cx="173" cy="372.5391" fill="#000000" rx="3" ry="3" style="stroke:#000000;stroke-width:1.0;"/><text fill="#000000" font-family="sans-serif" font-size="14" lengthAdjust="spacing" textLength="107" x="182" y="375.8857">End: DateTime</text><text fill="#000000" font-family="sans-serif" font-size="14" lengthAdjust="spacing" textLength="125" x="182" y="392.1826">Sunday: Boolean?</text><text fill="#000000" font-family="sans-serif" font-size="14" lengthAdjust="spacing" textLength="129" x="182" y="408.4795">Monday: Boolean?</text><text fill="#000000" font-family="sans-serif" font-size="14" lengthAdjust="spacing" textLength="132" x="182" y="424.7764">Tuesday: Boolean?</text><text fill="#000000" font-family="sans-serif" font-size="14" lengthAdjust="spacing" textLength="156" x="182" y="441.0732">Wednesday: Boolean?</text><text fill="#000000" font-family="sans-serif" font-size="14" lengthAdjust="spacing" textLength="138" x="182" y="457.3701">Thursday: Boolean?</text><text fill="#000000" font-family="sans-serif" font-size="14" lengthAdjust="spacing" textLength="117" x="182" y="473.667">Friday: Boolean?</text><text fill="#000000" font-family="sans-serif" font-size="14" lengthAdjust="spacing" textLength="137" x="182" y="489.9639">Saturday: Boolean?</text><text fill="#000000" font-family="sans-serif" font-size="14" lengthAdjust="spacing" textLength="99" x="182" y="506.2607">Capacity: Int?</text><text fill="#000000" font-family="sans-serif" font-size="14" lengthAdjust="spacing" textLength="154" x="182" y="522.5576">WaitlistCapacity: Int?</text><ellipse cx="173" cy="535.5078" fill="#000000" rx="3" ry="3" style="stroke:#000000;stroke-width:1.0;"/><text fill="#000000" font-family="sans-serif" font-size="14" lengthAdjust="spacing" textLength="121" x="182" y="538.8545">Professor: String</text><text fill="#000000" font-family="sans-serif" font-size="14" lengthAdjust="spacing" textLength="102" x="182" y="555.1514">Room: String?</text><text fill="#000000" font-family="sans-serif" font-size="14" lengthAdjust="spacing" textLength="189" x="182" y="571.4482">Format: Sections_Format?</text><text fill="#000000" font-family="sans-serif" font-size="14" lengthAdjust="spacing" textLength="207" x="182" y="587.7451">Modality: Sections_Modality?</text><ellipse cx="173" cy="600.6953" fill="#000000" rx="3" ry="3" style="stroke:#000000;stroke-width:1.0;"/><text fill="#000000" font-family="sans-serif" font-size="14" lengthAdjust="spacing" textLength="140" x="182" y="604.042">CatalogYear: String</text><ellipse cx="173" cy="616.9922" fill="#000000" rx="3" ry="3" style="stroke:#000000;stroke-width:1.0;"/><text fill="#000000" font-family="sans-serif" font-size="14" lengthAdjust="spacing" textLength="121" x="182" y="620.3389">Courses: Courses</text><ellipse cx="173" cy="633.2891" fill="#000000" rx="3" ry="3" style="stroke:#000000;stroke-width:1.0;"/><text fill="#000000" font-family="sans-serif" font-size="14" lengthAdjust="spacing" textLength="136" x="182" y="636.6357">Waitlists: Waitlist[]</text><ellipse cx="173" cy="649.5859" fill="#000000" rx="3" ry="3" style="stroke:#000000;stroke-width:1.0;"/><text fill="#000000" font-family="sans-serif" font-size="14" lengthAdjust="spacing" textLength="226" x="182" y="652.9326">ShoppingCarts: ShoppingCart[]</text><ellipse cx="173" cy="665.8828" fill="#000000" rx="3" ry="3" style="stroke:#000000;stroke-width:1.0;"/><text fill="#000000" font-family="sans-serif" font-size="14" lengthAdjust="spacing" textLength="144" x="182" y="669.2295">Enrolleds: Enrolled[]</text><line style="stroke:#181818;stroke-width:0.5;" x1="163" x2="413" y1="676.5313" y2="676.5313"/></g><!--class Flowcharts--><g id="elem_Flowcharts"><rect codeLine="72" fill="#F1F1F1" height="178.375" id="Flowcharts" rx="2.5" ry="2.5" style="stroke:#181818;stroke-width:0.5;" width="405" x="773.5" y="23.5"/><ellipse cx="933.25" cy="39.5" fill="#ADD1B2" rx="11" ry="11" style="stroke:#181818;stroke-width:1.0;"/><path d="M932.0469,40.375 L933.5,40.375 L933.5,40.4844 C933.5,40.8906 933.5313,41.0469 933.6094,41.2031 C933.7656,41.4531 934.0469,41.6094 934.3438,41.6094 C934.5938,41.6094 934.8594,41.4688 935.0156,41.25 C935.1406,41.0938 935.1719,40.9375 935.1719,40.4844 L935.1719,38.5625 C935.1719,38.4063 935.1719,38.3594 935.1563,38.2031 C935.0938,37.7344 934.7813,37.4219 934.3281,37.4219 C934.0781,37.4219 933.8125,37.5625 933.6406,37.7813 C933.5313,37.9531 933.5,38.1094 933.5,38.5625 L933.5,38.6875 L932.0469,38.6875 L932.0469,36.2813 L936.0313,36.2813 L936.0313,37.1406 C936.0313,37.5469 936.0625,37.7188 936.1406,37.875 C936.3125,38.125 936.5938,38.2813 936.875,38.2813 C937.1406,38.2813 937.4063,38.1406 937.5781,37.9219 C937.6875,37.75 937.7188,37.6094 937.7188,37.1406 L937.7188,34.5938 L930.0938,34.5938 C929.6563,34.5938 929.5313,34.6094 929.375,34.7031 C929.125,34.8594 928.9688,35.1563 928.9688,35.4375 C928.9688,35.7188 929.1094,35.9688 929.3281,36.1406 C929.4844,36.25 929.6719,36.2813 930.0938,36.2813 L930.3438,36.2813 L930.3438,42.7969 L930.0938,42.7969 C929.6875,42.7969 929.5313,42.8125 929.375,42.9219 C929.125,43.0938 928.9688,43.3594 928.9688,43.6563 C928.9688,43.9219 929.1094,44.1719 929.3281,44.3281 C929.4688,44.4531 929.7031,44.5 930.0938,44.5 L938.0938,44.5 L938.0938,41.9219 C938.0938,41.4844 938.0625,41.3438 937.9844,41.1875 C937.8125,40.9375 937.5313,40.7813 937.25,40.7813 C936.9844,40.7813 936.7188,40.8906 936.5469,41.1406 C936.4375,41.2969 936.4063,41.4375 936.4063,41.9219 L936.4063,42.7969 L932.0469,42.7969 L932.0469,40.375 Z " fill="#000000"/><text fill="#000000" font-family="sans-serif" font-size="14" lengthAdjust="spacing" textLength="77" x="953.75" y="44.3467">Flowcharts</text><line style="stroke:#181818;stroke-width:0.5;" x1="774.5" x2="1177.5" y1="55.5" y2="55.5"/><ellipse cx="784.5" cy="69.1484" fill="#000000" rx="3" ry="3" style="stroke:#000000;stroke-width:1.0;"/><text fill="#000000" font-family="sans-serif" font-size="14" lengthAdjust="spacing" textLength="136" x="793.5" y="72.4951">FlowchartId: String</text><ellipse cx="784.5" cy="85.4453" fill="#000000" rx="3" ry="3" style="stroke:#000000;stroke-width:1.0;"/><text fill="#000000" font-family="sans-serif" font-size="14" lengthAdjust="spacing" textLength="140" x="793.5" y="88.792">CatalogYear: String</text><ellipse cx="784.5" cy="101.7422" fill="#000000" rx="3" ry="3" style="stroke:#000000;stroke-width:1.0;"/><text fill="#000000" font-family="sans-serif" font-size="14" lengthAdjust="spacing" textLength="105" x="793.5" y="105.0889">MajorId: String</text><ellipse cx="784.5" cy="118.0391" fill="#000000" rx="3" ry="3" style="stroke:#000000;stroke-width:1.0;"/><text fill="#000000" font-family="sans-serif" font-size="14" lengthAdjust="spacing" textLength="170" x="793.5" y="121.3857">ConcentrationId: String</text><ellipse cx="784.5" cy="134.3359" fill="#000000" rx="3" ry="3" style="stroke:#000000;stroke-width:1.0;"/><text fill="#000000" font-family="sans-serif" font-size="14" lengthAdjust="spacing" textLength="126" x="793.5" y="137.6826">Catalog: Catalogs</text><ellipse cx="784.5" cy="150.6328" fill="#000000" rx="3" ry="3" style="stroke:#000000;stroke-width:1.0;"/><text fill="#000000" font-family="sans-serif" font-size="14" lengthAdjust="spacing" textLength="94" x="793.5" y="153.9795">Major: Majors</text><ellipse cx="784.5" cy="166.9297" fill="#000000" rx="3" ry="3" style="stroke:#000000;stroke-width:1.0;"/><text fill="#000000" font-family="sans-serif" font-size="14" lengthAdjust="spacing" textLength="224" x="793.5" y="170.2764">Concentration: Concentrations</text><ellipse cx="784.5" cy="183.2266" fill="#000000" rx="3" ry="3" style="stroke:#000000;stroke-width:1.0;"/><text fill="#000000" font-family="sans-serif" font-size="14" lengthAdjust="spacing" textLength="379" x="793.5" y="186.5732">GraduationRequirements: GraduationRequirements[]</text><line style="stroke:#181818;stroke-width:0.5;" x1="774.5" x2="1177.5" y1="193.875" y2="193.875"/></g><!--class Catalogs--><g id="elem_Catalogs"><rect codeLine="83" fill="#F1F1F1" height="80.5938" id="Catalogs" rx="2.5" ry="2.5" style="stroke:#181818;stroke-width:0.5;" width="199" x="642.5" y="441"/><ellipse cx="706.75" cy="457" fill="#ADD1B2" rx="11" ry="11" style="stroke:#181818;stroke-width:1.0;"/><path d="M705.5469,457.875 L707,457.875 L707,457.9844 C707,458.3906 707.0313,458.5469 707.1094,458.7031 C707.2656,458.9531 707.5469,459.1094 707.8438,459.1094 C708.0938,459.1094 708.3594,458.9688 708.5156,458.75 C708.6406,458.5938 708.6719,458.4375 708.6719,457.9844 L708.6719,456.0625 C708.6719,455.9063 708.6719,455.8594 708.6563,455.7031 C708.5938,455.2344 708.2813,454.9219 707.8281,454.9219 C707.5781,454.9219 707.3125,455.0625 707.1406,455.2813 C707.0313,455.4531 707,455.6094 707,456.0625 L707,456.1875 L705.5469,456.1875 L705.5469,453.7813 L709.5313,453.7813 L709.5313,454.6406 C709.5313,455.0469 709.5625,455.2188 709.6406,455.375 C709.8125,455.625 710.0938,455.7813 710.375,455.7813 C710.6406,455.7813 710.9063,455.6406 711.0781,455.4219 C711.1875,455.25 711.2188,455.1094 711.2188,454.6406 L711.2188,452.0938 L703.5938,452.0938 C703.1563,452.0938 703.0313,452.1094 702.875,452.2031 C702.625,452.3594 702.4688,452.6563 702.4688,452.9375 C702.4688,453.2188 702.6094,453.4688 702.8281,453.6406 C702.9844,453.75 703.1719,453.7813 703.5938,453.7813 L703.8438,453.7813 L703.8438,460.2969 L703.5938,460.2969 C703.1875,460.2969 703.0313,460.3125 702.875,460.4219 C702.625,460.5938 702.4688,460.8594 702.4688,461.1563 C702.4688,461.4219 702.6094,461.6719 702.8281,461.8281 C702.9688,461.9531 703.2031,462 703.5938,462 L711.5938,462 L711.5938,459.4219 C711.5938,458.9844 711.5625,458.8438 711.4844,458.6875 C711.3125,458.4375 711.0313,458.2813 710.75,458.2813 C710.4844,458.2813 710.2188,458.3906 710.0469,458.6406 C709.9375,458.7969 709.9063,458.9375 709.9063,459.4219 L709.9063,460.2969 L705.5469,460.2969 L705.5469,457.875 Z " fill="#000000"/><text fill="#000000" font-family="sans-serif" font-size="14" lengthAdjust="spacing" textLength="62" x="727.25" y="461.8467">Catalogs</text><line style="stroke:#181818;stroke-width:0.5;" x1="643.5" x2="840.5" y1="473" y2="473"/><ellipse cx="653.5" cy="486.6484" fill="#000000" rx="3" ry="3" style="stroke:#000000;stroke-width:1.0;"/><text fill="#000000" font-family="sans-serif" font-size="14" lengthAdjust="spacing" textLength="140" x="662.5" y="489.9951">CatalogYear: String</text><ellipse cx="653.5" cy="502.9453" fill="#000000" rx="3" ry="3" style="stroke:#000000;stroke-width:1.0;"/><text fill="#000000" font-family="sans-serif" font-size="14" lengthAdjust="spacing" textLength="173" x="662.5" y="506.292">Flowcharts: Flowcharts[]</text><line style="stroke:#181818;stroke-width:0.5;" x1="643.5" x2="840.5" y1="513.5938" y2="513.5938"/></g><!--class Concentrations--><g id="elem_Concentrations"><rect codeLine="88" fill="#F1F1F1" height="129.4844" id="Concentrations" rx="2.5" ry="2.5" style="stroke:#181818;stroke-width:0.5;" width="199" x="876.5" y="417"/><ellipse cx="916.7" cy="433" fill="#ADD1B2" rx="11" ry="11" style="stroke:#181818;stroke-width:1.0;"/><path d="M915.4969,433.875 L916.95,433.875 L916.95,433.9844 C916.95,434.3906 916.9813,434.5469 917.0594,434.7031 C917.2156,434.9531 917.4969,435.1094 917.7938,435.1094 C918.0438,435.1094 918.3094,434.9688 918.4656,434.75 C918.5906,434.5938 918.6219,434.4375 918.6219,433.9844 L918.6219,432.0625 C918.6219,431.9063 918.6219,431.8594 918.6063,431.7031 C918.5438,431.2344 918.2313,430.9219 917.7781,430.9219 C917.5281,430.9219 917.2625,431.0625 917.0906,431.2813 C916.9813,431.4531 916.95,431.6094 916.95,432.0625 L916.95,432.1875 L915.4969,432.1875 L915.4969,429.7813 L919.4813,429.7813 L919.4813,430.6406 C919.4813,431.0469 919.5125,431.2188 919.5906,431.375 C919.7625,431.625 920.0438,431.7813 920.325,431.7813 C920.5906,431.7813 920.8563,431.6406 921.0281,431.4219 C921.1375,431.25 921.1688,431.1094 921.1688,430.6406 L921.1688,428.0938 L913.5438,428.0938 C913.1063,428.0938 912.9813,428.1094 912.825,428.2031 C912.575,428.3594 912.4188,428.6563 912.4188,428.9375 C912.4188,429.2188 912.5594,429.4688 912.7781,429.6406 C912.9344,429.75 913.1219,429.7813 913.5438,429.7813 L913.7938,429.7813 L913.7938,436.2969 L913.5438,436.2969 C913.1375,436.2969 912.9813,436.3125 912.825,436.4219 C912.575,436.5938 912.4188,436.8594 912.4188,437.1563 C912.4188,437.4219 912.5594,437.6719 912.7781,437.8281 C912.9188,437.9531 913.1531,438 913.5438,438 L921.5438,438 L921.5438,435.4219 C921.5438,434.9844 921.5125,434.8438 921.4344,434.6875 C921.2625,434.4375 920.9813,434.2813 920.7,434.2813 C920.4344,434.2813 920.1688,434.3906 919.9969,434.6406 C919.8875,434.7969 919.8563,434.9375 919.8563,435.4219 L919.8563,436.2969 L915.4969,436.2969 L915.4969,433.875 Z " fill="#000000"/><text fill="#000000" font-family="sans-serif" font-size="14" lengthAdjust="spacing" textLength="111" x="936.3" y="437.8467">Concentrations</text><line style="stroke:#181818;stroke-width:0.5;" x1="877.5" x2="1074.5" y1="449" y2="449"/><ellipse cx="887.5" cy="462.6484" fill="#000000" rx="3" ry="3" style="stroke:#000000;stroke-width:1.0;"/><text fill="#000000" font-family="sans-serif" font-size="14" lengthAdjust="spacing" textLength="66" x="896.5" y="465.9951">Id: String</text><text fill="#000000" font-family="sans-serif" font-size="14" lengthAdjust="spacing" textLength="101" x="896.5" y="482.292">Name: String?</text><ellipse cx="887.5" cy="495.2422" fill="#000000" rx="3" ry="3" style="stroke:#000000;stroke-width:1.0;"/><text fill="#000000" font-family="sans-serif" font-size="14" lengthAdjust="spacing" textLength="105" x="896.5" y="498.5889">MajorId: String</text><ellipse cx="887.5" cy="511.5391" fill="#000000" rx="3" ry="3" style="stroke:#000000;stroke-width:1.0;"/><text fill="#000000" font-family="sans-serif" font-size="14" lengthAdjust="spacing" textLength="94" x="896.5" y="514.8857">Major: Majors</text><ellipse cx="887.5" cy="527.8359" fill="#000000" rx="3" ry="3" style="stroke:#000000;stroke-width:1.0;"/><text fill="#000000" font-family="sans-serif" font-size="14" lengthAdjust="spacing" textLength="173" x="896.5" y="531.1826">Flowcharts: Flowcharts[]</text><line style="stroke:#181818;stroke-width:0.5;" x1="877.5" x2="1074.5" y1="538.4844" y2="538.4844"/></g><!--class GraduationRequirements--><g id="elem_GraduationRequirements"><rect codeLine="96" fill="#F1F1F1" height="96.8906" id="GraduationRequirements" rx="2.5" ry="2.5" style="stroke:#181818;stroke-width:0.5;" width="212" x="1111" y="433"/><ellipse cx="1126" cy="449" fill="#ADD1B2" rx="11" ry="11" style="stroke:#181818;stroke-width:1.0;"/><path d="M1124.7969,449.875 L1126.25,449.875 L1126.25,449.9844 C1126.25,450.3906 1126.2813,450.5469 1126.3594,450.7031 C1126.5156,450.9531 1126.7969,451.1094 1127.0938,451.1094 C1127.3438,451.1094 1127.6094,450.9688 1127.7656,450.75 C1127.8906,450.5938 1127.9219,450.4375 1127.9219,449.9844 L1127.9219,448.0625 C1127.9219,447.9063 1127.9219,447.8594 1127.9063,447.7031 C1127.8438,447.2344 1127.5313,446.9219 1127.0781,446.9219 C1126.8281,446.9219 1126.5625,447.0625 1126.3906,447.2813 C1126.2813,447.4531 1126.25,447.6094 1126.25,448.0625 L1126.25,448.1875 L1124.7969,448.1875 L1124.7969,445.7813 L1128.7813,445.7813 L1128.7813,446.6406 C1128.7813,447.0469 1128.8125,447.2188 1128.8906,447.375 C1129.0625,447.625 1129.3438,447.7813 1129.625,447.7813 C1129.8906,447.7813 1130.1563,447.6406 1130.3281,447.4219 C1130.4375,447.25 1130.4688,447.1094 1130.4688,446.6406 L1130.4688,444.0938 L1122.8438,444.0938 C1122.4063,444.0938 1122.2813,444.1094 1122.125,444.2031 C1121.875,444.3594 1121.7188,444.6563 1121.7188,444.9375 C1121.7188,445.2188 1121.8594,445.4688 1122.0781,445.6406 C1122.2344,445.75 1122.4219,445.7813 1122.8438,445.7813 L1123.0938,445.7813 L1123.0938,452.2969 L1122.8438,452.2969 C1122.4375,452.2969 1122.2813,452.3125 1122.125,452.4219 C1121.875,452.5938 1121.7188,452.8594 1121.7188,453.1563 C1121.7188,453.4219 1121.8594,453.6719 1122.0781,453.8281 C1122.2188,453.9531 1122.4531,454 1122.8438,454 L1130.8438,454 L1130.8438,451.4219 C1130.8438,450.9844 1130.8125,450.8438 1130.7344,450.6875 C1130.5625,450.4375 1130.2813,450.2813 1130,450.2813 C1129.7344,450.2813 1129.4688,450.3906 1129.2969,450.6406 C1129.1875,450.7969 1129.1563,450.9375 1129.1563,451.4219 L1129.1563,452.2969 L1124.7969,452.2969 L1124.7969,449.875 Z " fill="#000000"/><text fill="#000000" font-family="sans-serif" font-size="14" lengthAdjust="spacing" textLength="180" x="1140" y="453.8467">GraduationRequirements</text><line style="stroke:#181818;stroke-width:0.5;" x1="1112" x2="1322" y1="465" y2="465"/><ellipse cx="1122" cy="478.6484" fill="#000000" rx="3" ry="3" style="stroke:#000000;stroke-width:1.0;"/><text fill="#000000" font-family="sans-serif" font-size="14" lengthAdjust="spacing" textLength="136" x="1131" y="481.9951">FlowchartId: String</text><ellipse cx="1122" cy="494.9453" fill="#000000" rx="3" ry="3" style="stroke:#000000;stroke-width:1.0;"/><text fill="#000000" font-family="sans-serif" font-size="14" lengthAdjust="spacing" textLength="90" x="1131" y="498.292">Code: String</text><ellipse cx="1122" cy="511.2422" fill="#000000" rx="3" ry="3" style="stroke:#000000;stroke-width:1.0;"/><text fill="#000000" font-family="sans-serif" font-size="14" lengthAdjust="spacing" textLength="156" x="1131" y="514.5889">Flowchart: Flowcharts</text><line style="stroke:#181818;stroke-width:0.5;" x1="1112" x2="1322" y1="521.8906" y2="521.8906"/></g><!--class Majors--><g id="elem_Majors"><rect codeLine="102" fill="#F1F1F1" height="113.1875" id="Majors" rx="2.5" ry="2.5" style="stroke:#181818;stroke-width:0.5;" width="267" x="1358.5" y="425"/><ellipse cx="1464.75" cy="441" fill="#ADD1B2" rx="11" ry="11" style="stroke:#181818;stroke-width:1.0;"/><path d="M1463.5469,441.875 L1465,441.875 L1465,441.9844 C1465,442.3906 1465.0313,442.5469 1465.1094,442.7031 C1465.2656,442.9531 1465.5469,443.1094 1465.8438,443.1094 C1466.0938,443.1094 1466.3594,442.9688 1466.5156,442.75 C1466.6406,442.5938 1466.6719,442.4375 1466.6719,441.9844 L1466.6719,440.0625 C1466.6719,439.9063 1466.6719,439.8594 1466.6563,439.7031 C1466.5938,439.2344 1466.2813,438.9219 1465.8281,438.9219 C1465.5781,438.9219 1465.3125,439.0625 1465.1406,439.2813 C1465.0313,439.4531 1465,439.6094 1465,440.0625 L1465,440.1875 L1463.5469,440.1875 L1463.5469,437.7813 L1467.5313,437.7813 L1467.5313,438.6406 C1467.5313,439.0469 1467.5625,439.2188 1467.6406,439.375 C1467.8125,439.625 1468.0938,439.7813 1468.375,439.7813 C1468.6406,439.7813 1468.9063,439.6406 1469.0781,439.4219 C1469.1875,439.25 1469.2188,439.1094 1469.2188,438.6406 L1469.2188,436.0938 L1461.5938,436.0938 C1461.1563,436.0938 1461.0313,436.1094 1460.875,436.2031 C1460.625,436.3594 1460.4688,436.6563 1460.4688,436.9375 C1460.4688,437.2188 1460.6094,437.4688 1460.8281,437.6406 C1460.9844,437.75 1461.1719,437.7813 1461.5938,437.7813 L1461.8438,437.7813 L1461.8438,444.2969 L1461.5938,444.2969 C1461.1875,444.2969 1461.0313,444.3125 1460.875,444.4219 C1460.625,444.5938 1460.4688,444.8594 1460.4688,445.1563 C1460.4688,445.4219 1460.6094,445.6719 1460.8281,445.8281 C1460.9688,445.9531 1461.2031,446 1461.5938,446 L1469.5938,446 L1469.5938,443.4219 C1469.5938,442.9844 1469.5625,442.8438 1469.4844,442.6875 C1469.3125,442.4375 1469.0313,442.2813 1468.75,442.2813 C1468.4844,442.2813 1468.2188,442.3906 1468.0469,442.6406 C1467.9375,442.7969 1467.9063,442.9375 1467.9063,443.4219 L1467.9063,444.2969 L1463.5469,444.2969 L1463.5469,441.875 Z " fill="#000000"/><text fill="#000000" font-family="sans-serif" font-size="14" lengthAdjust="spacing" textLength="46" x="1485.25" y="445.8467">Majors</text><line style="stroke:#181818;stroke-width:0.5;" x1="1359.5" x2="1624.5" y1="457" y2="457"/><ellipse cx="1369.5" cy="470.6484" fill="#000000" rx="3" ry="3" style="stroke:#000000;stroke-width:1.0;"/><text fill="#000000" font-family="sans-serif" font-size="14" lengthAdjust="spacing" textLength="66" x="1378.5" y="473.9951">Id: String</text><ellipse cx="1369.5" cy="486.9453" fill="#000000" rx="3" ry="3" style="stroke:#000000;stroke-width:1.0;"/><text fill="#000000" font-family="sans-serif" font-size="14" lengthAdjust="spacing" textLength="94" x="1378.5" y="490.292">Name: String</text><ellipse cx="1369.5" cy="503.2422" fill="#000000" rx="3" ry="3" style="stroke:#000000;stroke-width:1.0;"/><text fill="#000000" font-family="sans-serif" font-size="14" lengthAdjust="spacing" textLength="173" x="1378.5" y="506.5889">Flowcharts: Flowcharts[]</text><ellipse cx="1369.5" cy="519.5391" fill="#000000" rx="3" ry="3" style="stroke:#000000;stroke-width:1.0;"/><text fill="#000000" font-family="sans-serif" font-size="14" lengthAdjust="spacing" textLength="241" x="1378.5" y="522.8857">Concentrations: Concentrations[]</text><line style="stroke:#181818;stroke-width:0.5;" x1="1359.5" x2="1624.5" y1="530.1875" y2="530.1875"/></g><!--class CourseCodeMapping--><g id="elem_CourseCodeMapping"><rect codeLine="109" fill="#F1F1F1" height="80.5938" id="CourseCodeMapping" rx="2.5" ry="2.5" style="stroke:#181818;stroke-width:0.5;" width="180" x="1214" y="72"/><ellipse cx="1229" cy="88" fill="#ADD1B2" rx="11" ry="11" style="stroke:#181818;stroke-width:1.0;"/><path d="M1227.7969,88.875 L1229.25,88.875 L1229.25,88.9844 C1229.25,89.3906 1229.2813,89.5469 1229.3594,89.7031 C1229.5156,89.9531 1229.7969,90.1094 1230.0938,90.1094 C1230.3438,90.1094 1230.6094,89.9688 1230.7656,89.75 C1230.8906,89.5938 1230.9219,89.4375 1230.9219,88.9844 L1230.9219,87.0625 C1230.9219,86.9063 1230.9219,86.8594 1230.9063,86.7031 C1230.8438,86.2344 1230.5313,85.9219 1230.0781,85.9219 C1229.8281,85.9219 1229.5625,86.0625 1229.3906,86.2813 C1229.2813,86.4531 1229.25,86.6094 1229.25,87.0625 L1229.25,87.1875 L1227.7969,87.1875 L1227.7969,84.7813 L1231.7813,84.7813 L1231.7813,85.6406 C1231.7813,86.0469 1231.8125,86.2188 1231.8906,86.375 C1232.0625,86.625 1232.3438,86.7813 1232.625,86.7813 C1232.8906,86.7813 1233.1563,86.6406 1233.3281,86.4219 C1233.4375,86.25 1233.4688,86.1094 1233.4688,85.6406 L1233.4688,83.0938 L1225.8438,83.0938 C1225.4063,83.0938 1225.2813,83.1094 1225.125,83.2031 C1224.875,83.3594 1224.7188,83.6563 1224.7188,83.9375 C1224.7188,84.2188 1224.8594,84.4688 1225.0781,84.6406 C1225.2344,84.75 1225.4219,84.7813 1225.8438,84.7813 L1226.0938,84.7813 L1226.0938,91.2969 L1225.8438,91.2969 C1225.4375,91.2969 1225.2813,91.3125 1225.125,91.4219 C1224.875,91.5938 1224.7188,91.8594 1224.7188,92.1563 C1224.7188,92.4219 1224.8594,92.6719 1225.0781,92.8281 C1225.2188,92.9531 1225.4531,93 1225.8438,93 L1233.8438,93 L1233.8438,90.4219 C1233.8438,89.9844 1233.8125,89.8438 1233.7344,89.6875 C1233.5625,89.4375 1233.2813,89.2813 1233,89.2813 C1232.7344,89.2813 1232.4688,89.3906 1232.2969,89.6406 C1232.1875,89.7969 1232.1563,89.9375 1232.1563,90.4219 L1232.1563,91.2969 L1227.7969,91.2969 L1227.7969,88.875 Z " fill="#000000"/><text fill="#000000" font-family="sans-serif" font-size="14" lengthAdjust="spacing" textLength="148" x="1243" y="92.8467">CourseCodeMapping</text><line style="stroke:#181818;stroke-width:0.5;" x1="1215" x2="1393" y1="104" y2="104"/><ellipse cx="1225" cy="117.6484" fill="#000000" rx="3" ry="3" style="stroke:#000000;stroke-width:1.0;"/><text fill="#000000" font-family="sans-serif" font-size="14" lengthAdjust="spacing" textLength="114" x="1234" y="120.9951">OldCode: String</text><text fill="#000000" font-family="sans-serif" font-size="14" lengthAdjust="spacing" textLength="127" x="1234" y="137.292">NewCode: String?</text><line style="stroke:#181818;stroke-width:0.5;" x1="1215" x2="1393" y1="144.5938" y2="144.5938"/></g><!--link Courses to Sections--><g id="link_Courses_Sections"><path codeLine="114" d="M167,226.241 C167,226.241 167,269.803 167,269.803 " fill="none" id="Courses-Sections" style="stroke:#181818;stroke-width:1.0;stroke-dasharray:7.0,7.0;"/><line style="stroke:#181818;stroke-width:1.0;" x1="163" x2="171" y1="222.241" y2="222.241"/><line style="stroke:#181818;stroke-width:1.0;" x1="163" x2="171" y1="225.241" y2="225.241"/><line style="stroke:#181818;stroke-width:1.0;" x1="167" x2="167" y1="226.241" y2="218.241"/><line style="stroke:#181818;stroke-width:1.0;" x1="167" x2="173" y1="269.803" y2="277.803"/><line style="stroke:#181818;stroke-width:1.0;" x1="167" x2="161" y1="269.803" y2="277.803"/><line style="stroke:#181818;stroke-width:1.0;" x1="167" x2="167" y1="269.803" y2="277.803"/><line style="stroke:#181818;stroke-width:1.0;" x1="171" x2="163" y1="267.803" y2="267.803"/></g><!--link Courses to Sections--><g id="link_Courses_Sections"><path codeLine="118" d="M172,226.241 C172,226.241 172,269.803 172,269.803 " fill="none" id="Courses-Sections-1" style="stroke:#181818;stroke-width:1.0;stroke-dasharray:7.0,7.0;"/><line style="stroke:#181818;stroke-width:1.0;" x1="168" x2="176" y1="222.241" y2="222.241"/><line style="stroke:#181818;stroke-width:1.0;" x1="168" x2="176" y1="225.241" y2="225.241"/><line style="stroke:#181818;stroke-width:1.0;" x1="172" x2="172" y1="226.241" y2="218.241"/><line style="stroke:#181818;stroke-width:1.0;" x1="172" x2="178" y1="269.803" y2="277.803"/><line style="stroke:#181818;stroke-width:1.0;" x1="172" x2="166" y1="269.803" y2="277.803"/><line style="stroke:#181818;stroke-width:1.0;" x1="172" x2="172" y1="269.803" y2="277.803"/><line style="stroke:#181818;stroke-width:1.0;" x1="176" x2="168" y1="267.803" y2="267.803"/></g><!--link Enrolled to Sections--><g id="link_Enrolled_Sections"><path codeLine="115" d="M288,169.12 C288,169.12 288,269.748 288,269.748 " fill="none" id="Enrolled-Sections" style="stroke:#181818;stroke-width:1.0;stroke-dasharray:7.0,7.0;"/><line style="stroke:#181818;stroke-width:1.0;" x1="288" x2="282" y1="169.12" y2="161.12"/><line style="stroke:#181818;stroke-width:1.0;" x1="288" x2="294" y1="169.12" y2="161.12"/><line style="stroke:#181818;stroke-width:1.0;" x1="288" x2="288" y1="169.12" y2="161.12"/><line style="stroke:#181818;stroke-width:1.0;" x1="284" x2="292" y1="171.12" y2="171.12"/><line style="stroke:#181818;stroke-width:1.0;" x1="292" x2="284" y1="273.748" y2="273.748"/><line style="stroke:#181818;stroke-width:1.0;" x1="292" x2="284" y1="270.748" y2="270.748"/><line style="stroke:#181818;stroke-width:1.0;" x1="288" x2="288" y1="269.748" y2="277.748"/></g><!--link ShoppingCart to Sections--><g id="link_ShoppingCart_Sections"><path codeLine="116" d="M404,169.12 C404,169.12 404,269.748 404,269.748 " fill="none" id="ShoppingCart-Sections" style="stroke:#181818;stroke-width:1.0;stroke-dasharray:7.0,7.0;"/><line style="stroke:#181818;stroke-width:1.0;" x1="404" x2="398" y1="169.12" y2="161.12"/><line style="stroke:#181818;stroke-width:1.0;" x1="404" x2="410" y1="169.12" y2="161.12"/><line style="stroke:#181818;stroke-width:1.0;" x1="404" x2="404" y1="169.12" y2="161.12"/><line style="stroke:#181818;stroke-width:1.0;" x1="400" x2="408" y1="171.12" y2="171.12"/><line style="stroke:#181818;stroke-width:1.0;" x1="408" x2="400" y1="273.748" y2="273.748"/><line style="stroke:#181818;stroke-width:1.0;" x1="408" x2="400" y1="270.748" y2="270.748"/><line style="stroke:#181818;stroke-width:1.0;" x1="404" x2="404" y1="269.748" y2="277.748"/></g><!--link Waitlist to Sections--><g id="link_Waitlist_Sections"><path codeLine="117" d="M577.749,165 C577.749,165 409,165 409,165 C409,165 409,269.923 409,269.923 " fill="none" id="Waitlist-Sections" style="stroke:#181818;stroke-width:1.0;stroke-dasharray:7.0,7.0;"/><line style="stroke:#181818;stroke-width:1.0;" x1="577.749" x2="585.749" y1="165" y2="159"/><line style="stroke:#181818;stroke-width:1.0;" x1="577.749" x2="585.749" y1="165" y2="171"/><line style="stroke:#181818;stroke-width:1.0;" x1="577.749" x2="585.749" y1="165" y2="165"/><line style="stroke:#181818;stroke-width:1.0;" x1="575.749" x2="575.749" y1="161" y2="169"/><line style="stroke:#181818;stroke-width:1.0;" x1="413" x2="405" y1="273.923" y2="273.923"/><line style="stroke:#181818;stroke-width:1.0;" x1="413" x2="405" y1="270.923" y2="270.923"/><line style="stroke:#181818;stroke-width:1.0;" x1="409" x2="409" y1="269.923" y2="277.923"/></g><!--link Flowcharts to Catalogs--><g id="link_Flowcharts_Catalogs"><path codeLine="119" d="M796.167,209.825 C796.167,209.825 796.167,432.578 796.167,432.578 " fill="none" id="Flowcharts-Catalogs" style="stroke:#181818;stroke-width:1.0;stroke-dasharray:7.0,7.0;"/><line style="stroke:#181818;stroke-width:1.0;" x1="796.167" x2="790.167" y1="209.825" y2="201.825"/><line style="stroke:#181818;stroke-width:1.0;" x1="796.167" x2="802.167" y1="209.825" y2="201.825"/><line style="stroke:#181818;stroke-width:1.0;" x1="796.167" x2="796.167" y1="209.825" y2="201.825"/><line style="stroke:#181818;stroke-width:1.0;" x1="792.167" x2="800.167" y1="211.825" y2="211.825"/><line style="stroke:#181818;stroke-width:1.0;" x1="800.167" x2="792.167" y1="436.578" y2="436.578"/><line style="stroke:#181818;stroke-width:1.0;" x1="800.167" x2="792.167" y1="433.578" y2="433.578"/><line style="stroke:#181818;stroke-width:1.0;" x1="796.167" x2="796.167" y1="432.578" y2="440.578"/></g><!--link Flowcharts to Catalogs--><g id="link_Flowcharts_Catalogs"><path codeLine="120" d="M818.833,209.825 C818.833,209.825 818.833,432.578 818.833,432.578 " fill="none" id="Flowcharts-Catalogs-1" style="stroke:#181818;stroke-width:1.0;stroke-dasharray:7.0,7.0;"/><line style="stroke:#181818;stroke-width:1.0;" x1="818.833" x2="812.833" y1="209.825" y2="201.825"/><line style="stroke:#181818;stroke-width:1.0;" x1="818.833" x2="824.833" y1="209.825" y2="201.825"/><line style="stroke:#181818;stroke-width:1.0;" x1="818.833" x2="818.833" y1="209.825" y2="201.825"/><line style="stroke:#181818;stroke-width:1.0;" x1="814.833" x2="822.833" y1="211.825" y2="211.825"/><line style="stroke:#181818;stroke-width:1.0;" x1="822.833" x2="814.833" y1="436.578" y2="436.578"/><line style="stroke:#181818;stroke-width:1.0;" x1="822.833" x2="814.833" y1="433.578" y2="433.578"/><line style="stroke:#181818;stroke-width:1.0;" x1="818.833" x2="818.833" y1="432.578" y2="440.578"/></g><!--link Flowcharts to Concentrations--><g id="link_Flowcharts_Concentrations"><path codeLine="121" d="M976,209.825 C976,209.825 976,408.991 976,408.991 " fill="none" id="Flowcharts-Concentrations" style="stroke:#181818;stroke-width:1.0;stroke-dasharray:7.0,7.0;"/><line style="stroke:#181818;stroke-width:1.0;" x1="976" x2="970" y1="209.825" y2="201.825"/><line style="stroke:#181818;stroke-width:1.0;" x1="976" x2="982" y1="209.825" y2="201.825"/><line style="stroke:#181818;stroke-width:1.0;" x1="976" x2="976" y1="209.825" y2="201.825"/><line style="stroke:#181818;stroke-width:1.0;" x1="972" x2="980" y1="211.825" y2="211.825"/><line style="stroke:#181818;stroke-width:1.0;" x1="980" x2="972" y1="412.991" y2="412.991"/><line style="stroke:#181818;stroke-width:1.0;" x1="980" x2="972" y1="409.991" y2="409.991"/><line style="stroke:#181818;stroke-width:1.0;" x1="976" x2="976" y1="408.991" y2="416.991"/></g><!--link Flowcharts to GraduationRequirements--><g id="link_Flowcharts_GraduationRequirements"><path codeLine="122" d="M1133.5,209.825 C1133.5,209.825 1133.5,424.83 1133.5,424.83 " fill="none" id="Flowcharts-GraduationRequirements" style="stroke:#181818;stroke-width:1.0;stroke-dasharray:7.0,7.0;"/><line style="stroke:#181818;stroke-width:1.0;" x1="1129.5" x2="1137.5" y1="205.825" y2="205.825"/><line style="stroke:#181818;stroke-width:1.0;" x1="1129.5" x2="1137.5" y1="208.825" y2="208.825"/><line style="stroke:#181818;stroke-width:1.0;" x1="1133.5" x2="1133.5" y1="209.825" y2="201.825"/><line style="stroke:#181818;stroke-width:1.0;" x1="1133.5" x2="1139.5" y1="424.83" y2="432.83"/><line style="stroke:#181818;stroke-width:1.0;" x1="1133.5" x2="1127.5" y1="424.83" y2="432.83"/><line style="stroke:#181818;stroke-width:1.0;" x1="1133.5" x2="1133.5" y1="424.83" y2="432.83"/><line style="stroke:#181818;stroke-width:1.0;" x1="1137.5" x2="1129.5" y1="422.83" y2="422.83"/></g><!--link Flowcharts to Majors--><g id="link_Flowcharts_Majors"><path codeLine="123" d="M1156,209.505 C1156,209.505 1156,429 1156,429 C1156,429 1350.24,429 1350.24,429 " fill="none" id="Flowcharts-Majors" style="stroke:#181818;stroke-width:1.0;stroke-dasharray:7.0,7.0;"/><line style="stroke:#181818;stroke-width:1.0;" x1="1156" x2="1150" y1="209.505" y2="201.505"/><line style="stroke:#181818;stroke-width:1.0;" x1="1156" x2="1162" y1="209.505" y2="201.505"/><line style="stroke:#181818;stroke-width:1.0;" x1="1156" x2="1156" y1="209.505" y2="201.505"/><line style="stroke:#181818;stroke-width:1.0;" x1="1152" x2="1160" y1="211.505" y2="211.505"/><line style="stroke:#181818;stroke-width:1.0;" x1="1354.24" x2="1354.24" y1="425" y2="433"/><line style="stroke:#181818;stroke-width:1.0;" x1="1351.24" x2="1351.24" y1="425" y2="433"/><line style="stroke:#181818;stroke-width:1.0;" x1="1350.24" x2="1358.24" y1="429" y2="429"/></g><!--link Sections to Sections_Format--><g id="link_Sections_Sections_Format"><path codeLine="124" d="M215.25,693.253 C215.25,693.253 215.25,736.977 215.25,736.977 " fill="none" id="Sections-Sections_Format" style="stroke:#181818;stroke-width:1.0;stroke-dasharray:7.0,7.0;"/><line style="stroke:#181818;stroke-width:1.0;" x1="211.25" x2="219.25" y1="689.253" y2="689.253"/><line style="stroke:#181818;stroke-width:1.0;" x1="211.25" x2="219.25" y1="692.253" y2="692.253"/><line style="stroke:#181818;stroke-width:1.0;" x1="215.25" x2="215.25" y1="693.253" y2="685.253"/><line style="stroke:#181818;stroke-width:1.0;" x1="215.25" x2="215.25" y1="733.9774" y2="744.9774"/><ellipse cx="215.25" cy="733.9774" fill="none" rx="4" ry="4" style="stroke:#181818;stroke-width:1.0;"/><line style="stroke:#181818;stroke-width:1.0;" x1="219.25" x2="211.25" y1="740.9774" y2="740.9774"/></g><!--link Sections to Sections_Modality--><g id="link_Sections_Sections_Modality"><path codeLine="125" d="M359,693.253 C359,693.253 359,736.977 359,736.977 " fill="none" id="Sections-Sections_Modality" style="stroke:#181818;stroke-width:1.0;stroke-dasharray:7.0,7.0;"/><line style="stroke:#181818;stroke-width:1.0;" x1="355" x2="363" y1="689.253" y2="689.253"/><line style="stroke:#181818;stroke-width:1.0;" x1="355" x2="363" y1="692.253" y2="692.253"/><line style="stroke:#181818;stroke-width:1.0;" x1="359" x2="359" y1="693.253" y2="685.253"/><line style="stroke:#181818;stroke-width:1.0;" x1="359" x2="359" y1="733.9774" y2="744.9774"/><ellipse cx="359" cy="733.9774" fill="none" rx="4" ry="4" style="stroke:#181818;stroke-width:1.0;"/><line style="stroke:#181818;stroke-width:1.0;" x1="363" x2="355" y1="740.9774" y2="740.9774"/></g><!--SRC=[hLNDRjim3BxdANpUeG-WIu0cpP1XQOCwHJ4Cmy36RAFD5br9HXiqVVT9bkL8ihDqm4wcFlwBdsZrcuiQ95HPoGNgVOqPIRsZoGH5KsKvRZKdeNukI5QWixT9bdqrM2FHI3bMN82q63nCtbEV5HLGShrllMw4JM24fLYZL2ICkBcSEozjhMRKI8MgjVwKpK13IK_V42JBSYsvU78u5HW1QucF_3M2hflg0OtRKcXpNd5n9xXMxNbg0NYD0UC1LHXrZcehUMtRyAYrCwaaFXk_BwP-v-YRPRtq_KVGqvMGL9POT4tTAOoxwPoMXI-sXuu1Wt3vZkhQ-Cv0wlyKyXwuBhdouKQy1ndMfBYBzw6QE-Xq0ZVuk0bjEcJP73HkU8KjTYMA2CaRKS2UPPT49K8xZnKDe4s3AiNkiH13TBCpPQJWGl8Koi7GFmLdKCFMjDjpoj_hG64PIu-e58MtUajKXLHpxusb3z0rwPuL6xwqwPcdqpumveKMz7KQs8k6mUqC0h9PVWV7piApssYz6B5_KTBBTcVTk-7tW1r_MDc9YbVmYsHgIs9hualmD1h6OLvGnoZCVTGm1ekFpkApXA9fpxVut729bJ4mVOxZKTS-zvb5ThmS5iXnfAYkBbxKShYtfYUlR7W17qW-tkcvGQRRkJSCymHPN4rZhGsMyb-g7inKfKDDxjNotzQwWfRJNVwRiaWQkCQN49dQ8Fu_TJXSN1pUZYklt_NlLd4uAgAjdIhx_PigJgK97bNdqfFztrGnwGE3BkCu0KOYTRpg5xtrfqEwkaxh_VRw0m00]--></g></svg>