<?xml version="1.0" encoding="us-ascii" standalone="no"?><svg xmlns="http://www.w3.org/2000/svg" xmlns:xlink="http://www.w3.org/1999/xlink" contentStyleType="text/css" height="782px" preserveAspectRatio="none" style="width:1321px;height:782px;background:#FFFFFF;" version="1.1" viewBox="0 0 1321 782" width="1321px" zoomAndPan="magnify"><defs/><g><!--class Sections_Format--><g id="elem_Sections_Format"><rect codeLine="3" fill="#F1F1F1" height="96.8906" id="Sections_Format" rx="2.5" ry="2.5" style="stroke:#181818;stroke-width:0.5;" width="153" x="7" y="679"/><ellipse cx="22" cy="695" fill="#EB937F" rx="11" ry="11" style="stroke:#181818;stroke-width:1.0;"/><path d="M20.7969,695.875 L22.25,695.875 L22.25,695.9844 C22.25,696.3906 22.2813,696.5469 22.3594,696.7031 C22.5156,696.9531 22.7969,697.1094 23.0938,697.1094 C23.3438,697.1094 23.6094,696.9688 23.7656,696.75 C23.8906,696.5938 23.9219,696.4375 23.9219,695.9844 L23.9219,694.0625 C23.9219,693.9063 23.9219,693.8594 23.9063,693.7031 C23.8438,693.2344 23.5313,692.9219 23.0781,692.9219 C22.8281,692.9219 22.5625,693.0625 22.3906,693.2813 C22.2813,693.4531 22.25,693.6094 22.25,694.0625 L22.25,694.1875 L20.7969,694.1875 L20.7969,691.7813 L24.7813,691.7813 L24.7813,692.6406 C24.7813,693.0469 24.8125,693.2188 24.8906,693.375 C25.0625,693.625 25.3438,693.7813 25.625,693.7813 C25.8906,693.7813 26.1563,693.6406 26.3281,693.4219 C26.4375,693.25 26.4688,693.1094 26.4688,692.6406 L26.4688,690.0938 L18.8438,690.0938 C18.4063,690.0938 18.2813,690.1094 18.125,690.2031 C17.875,690.3594 17.7188,690.6563 17.7188,690.9375 C17.7188,691.2188 17.8594,691.4688 18.0781,691.6406 C18.2344,691.75 18.4219,691.7813 18.8438,691.7813 L19.0938,691.7813 L19.0938,698.2969 L18.8438,698.2969 C18.4375,698.2969 18.2813,698.3125 18.125,698.4219 C17.875,698.5938 17.7188,698.8594 17.7188,699.1563 C17.7188,699.4219 17.8594,699.6719 18.0781,699.8281 C18.2188,699.9531 18.4531,700 18.8438,700 L26.8438,700 L26.8438,697.4219 C26.8438,696.9844 26.8125,696.8438 26.7344,696.6875 C26.5625,696.4375 26.2813,696.2813 26,696.2813 C25.7344,696.2813 25.4688,696.3906 25.2969,696.6406 C25.1875,696.7969 25.1563,696.9375 25.1563,697.4219 L25.1563,698.2969 L20.7969,698.2969 L20.7969,695.875 Z " fill="#000000"/><text fill="#000000" font-family="sans-serif" font-size="14" lengthAdjust="spacing" textLength="121" x="36" y="699.8467">Sections_Format</text><line style="stroke:#181818;stroke-width:0.5;" x1="8" x2="159" y1="711" y2="711"/><text fill="#000000" font-family="sans-serif" font-size="14" lengthAdjust="spacing" textLength="55" x="13" y="727.9951">Lecture</text><text fill="#000000" font-family="sans-serif" font-size="14" lengthAdjust="spacing" textLength="59" x="13" y="744.292">Seminar</text><text fill="#000000" font-family="sans-serif" font-size="14" lengthAdjust="spacing" textLength="26" x="13" y="760.5889">Lab</text><line style="stroke:#181818;stroke-width:0.5;" x1="8" x2="159" y1="767.8906" y2="767.8906"/></g><!--class Sections_Modality--><g id="elem_Sections_Modality"><rect codeLine="9" fill="#F1F1F1" height="96.8906" id="Sections_Modality" rx="2.5" ry="2.5" style="stroke:#181818;stroke-width:0.5;" width="162" x="195.5" y="679"/><ellipse cx="210.5" cy="695" fill="#EB937F" rx="11" ry="11" style="stroke:#181818;stroke-width:1.0;"/><path d="M209.2969,695.875 L210.75,695.875 L210.75,695.9844 C210.75,696.3906 210.7813,696.5469 210.8594,696.7031 C211.0156,696.9531 211.2969,697.1094 211.5938,697.1094 C211.8438,697.1094 212.1094,696.9688 212.2656,696.75 C212.3906,696.5938 212.4219,696.4375 212.4219,695.9844 L212.4219,694.0625 C212.4219,693.9063 212.4219,693.8594 212.4063,693.7031 C212.3438,693.2344 212.0313,692.9219 211.5781,692.9219 C211.3281,692.9219 211.0625,693.0625 210.8906,693.2813 C210.7813,693.4531 210.75,693.6094 210.75,694.0625 L210.75,694.1875 L209.2969,694.1875 L209.2969,691.7813 L213.2813,691.7813 L213.2813,692.6406 C213.2813,693.0469 213.3125,693.2188 213.3906,693.375 C213.5625,693.625 213.8438,693.7813 214.125,693.7813 C214.3906,693.7813 214.6563,693.6406 214.8281,693.4219 C214.9375,693.25 214.9688,693.1094 214.9688,692.6406 L214.9688,690.0938 L207.3438,690.0938 C206.9063,690.0938 206.7813,690.1094 206.625,690.2031 C206.375,690.3594 206.2188,690.6563 206.2188,690.9375 C206.2188,691.2188 206.3594,691.4688 206.5781,691.6406 C206.7344,691.75 206.9219,691.7813 207.3438,691.7813 L207.5938,691.7813 L207.5938,698.2969 L207.3438,698.2969 C206.9375,698.2969 206.7813,698.3125 206.625,698.4219 C206.375,698.5938 206.2188,698.8594 206.2188,699.1563 C206.2188,699.4219 206.3594,699.6719 206.5781,699.8281 C206.7188,699.9531 206.9531,700 207.3438,700 L215.3438,700 L215.3438,697.4219 C215.3438,696.9844 215.3125,696.8438 215.2344,696.6875 C215.0625,696.4375 214.7813,696.2813 214.5,696.2813 C214.2344,696.2813 213.9688,696.3906 213.7969,696.6406 C213.6875,696.7969 213.6563,696.9375 213.6563,697.4219 L213.6563,698.2969 L209.2969,698.2969 L209.2969,695.875 Z " fill="#000000"/><text fill="#000000" font-family="sans-serif" font-size="14" lengthAdjust="spacing" textLength="130" x="224.5" y="699.8467">Sections_Modality</text><line style="stroke:#181818;stroke-width:0.5;" x1="196.5" x2="356.5" y1="711" y2="711"/><text fill="#000000" font-family="sans-serif" font-size="14" lengthAdjust="spacing" textLength="46" x="201.5" y="727.9951">Online</text><text fill="#000000" font-family="sans-serif" font-size="14" lengthAdjust="spacing" textLength="62" x="201.5" y="744.292">InPerson</text><text fill="#000000" font-family="sans-serif" font-size="14" lengthAdjust="spacing" textLength="30" x="201.5" y="760.5889">TBD</text><line style="stroke:#181818;stroke-width:0.5;" x1="196.5" x2="356.5" y1="767.8906" y2="767.8906"/></g><!--class Courses--><g id="elem_Courses"><rect codeLine="15" fill="#F1F1F1" height="210.9688" id="Courses" rx="2.5" ry="2.5" style="stroke:#181818;stroke-width:0.5;" width="170" x="94.5" y="7"/><ellipse cx="147.25" cy="23" fill="#ADD1B2" rx="11" ry="11" style="stroke:#181818;stroke-width:1.0;"/><path d="M146.0469,23.875 L147.5,23.875 L147.5,23.9844 C147.5,24.3906 147.5313,24.5469 147.6094,24.7031 C147.7656,24.9531 148.0469,25.1094 148.3438,25.1094 C148.5938,25.1094 148.8594,24.9688 149.0156,24.75 C149.1406,24.5938 149.1719,24.4375 149.1719,23.9844 L149.1719,22.0625 C149.1719,21.9063 149.1719,21.8594 149.1563,21.7031 C149.0938,21.2344 148.7813,20.9219 148.3281,20.9219 C148.0781,20.9219 147.8125,21.0625 147.6406,21.2813 C147.5313,21.4531 147.5,21.6094 147.5,22.0625 L147.5,22.1875 L146.0469,22.1875 L146.0469,19.7813 L150.0313,19.7813 L150.0313,20.6406 C150.0313,21.0469 150.0625,21.2188 150.1406,21.375 C150.3125,21.625 150.5938,21.7813 150.875,21.7813 C151.1406,21.7813 151.4063,21.6406 151.5781,21.4219 C151.6875,21.25 151.7188,21.1094 151.7188,20.6406 L151.7188,18.0938 L144.0938,18.0938 C143.6563,18.0938 143.5313,18.1094 143.375,18.2031 C143.125,18.3594 142.9688,18.6563 142.9688,18.9375 C142.9688,19.2188 143.1094,19.4688 143.3281,19.6406 C143.4844,19.75 143.6719,19.7813 144.0938,19.7813 L144.3438,19.7813 L144.3438,26.2969 L144.0938,26.2969 C143.6875,26.2969 143.5313,26.3125 143.375,26.4219 C143.125,26.5938 142.9688,26.8594 142.9688,27.1563 C142.9688,27.4219 143.1094,27.6719 143.3281,27.8281 C143.4688,27.9531 143.7031,28 144.0938,28 L152.0938,28 L152.0938,25.4219 C152.0938,24.9844 152.0625,24.8438 151.9844,24.6875 C151.8125,24.4375 151.5313,24.2813 151.25,24.2813 C150.9844,24.2813 150.7188,24.3906 150.5469,24.6406 C150.4375,24.7969 150.4063,24.9375 150.4063,25.4219 L150.4063,26.2969 L146.0469,26.2969 L146.0469,23.875 Z " fill="#000000"/><text fill="#000000" font-family="sans-serif" font-size="14" lengthAdjust="spacing" textLength="56" x="167.75" y="27.8467">Courses</text><line style="stroke:#181818;stroke-width:0.5;" x1="95.5" x2="263.5" y1="39" y2="39"/><ellipse cx="105.5" cy="52.6484" fill="#000000" rx="3" ry="3" style="stroke:#000000;stroke-width:1.0;"/><text fill="#000000" font-family="sans-serif" font-size="14" lengthAdjust="spacing" textLength="140" x="114.5" y="55.9951">CatalogYear: String</text><ellipse cx="105.5" cy="68.9453" fill="#000000" rx="3" ry="3" style="stroke:#000000;stroke-width:1.0;"/><text fill="#000000" font-family="sans-serif" font-size="14" lengthAdjust="spacing" textLength="90" x="114.5" y="72.292">Code: String</text><ellipse cx="105.5" cy="85.2422" fill="#000000" rx="3" ry="3" style="stroke:#000000;stroke-width:1.0;"/><text fill="#000000" font-family="sans-serif" font-size="14" lengthAdjust="spacing" textLength="95" x="114.5" y="88.5889">Prefix: String</text><ellipse cx="105.5" cy="101.5391" fill="#000000" rx="3" ry="3" style="stroke:#000000;stroke-width:1.0;"/><text fill="#000000" font-family="sans-serif" font-size="14" lengthAdjust="spacing" textLength="86" x="114.5" y="104.8857">Number: Int</text><text fill="#000000" font-family="sans-serif" font-size="14" lengthAdjust="spacing" textLength="97" x="114.5" y="121.1826">MinUnits: Int?</text><text fill="#000000" font-family="sans-serif" font-size="14" lengthAdjust="spacing" textLength="100" x="114.5" y="137.4795">MaxUnits: Int?</text><ellipse cx="105.5" cy="150.4297" fill="#000000" rx="3" ry="3" style="stroke:#000000;stroke-width:1.0;"/><text fill="#000000" font-family="sans-serif" font-size="14" lengthAdjust="spacing" textLength="94" x="114.5" y="153.7764">Name: String</text><text fill="#000000" font-family="sans-serif" font-size="14" lengthAdjust="spacing" textLength="144" x="114.5" y="170.0732">Description: String?</text><text fill="#000000" font-family="sans-serif" font-size="14" lengthAdjust="spacing" textLength="100" x="114.5" y="186.3701">Prereqs: Json?</text><ellipse cx="105.5" cy="199.3203" fill="#000000" rx="3" ry="3" style="stroke:#000000;stroke-width:1.0;"/><text fill="#000000" font-family="sans-serif" font-size="14" lengthAdjust="spacing" textLength="143" x="114.5" y="202.667">Sections: Sections[]</text><line style="stroke:#181818;stroke-width:0.5;" x1="95.5" x2="263.5" y1="209.9688" y2="209.9688"/></g><!--class Enrolled--><g id="elem_Enrolled"><rect codeLine="28" fill="#F1F1F1" height="80.5938" id="Enrolled" rx="2.5" ry="2.5" style="stroke:#181818;stroke-width:0.5;" width="123" x="302" y="72"/><ellipse cx="331.4" cy="88" fill="#ADD1B2" rx="11" ry="11" style="stroke:#181818;stroke-width:1.0;"/><path d="M330.1969,88.875 L331.65,88.875 L331.65,88.9844 C331.65,89.3906 331.6813,89.5469 331.7594,89.7031 C331.9156,89.9531 332.1969,90.1094 332.4938,90.1094 C332.7438,90.1094 333.0094,89.9688 333.1656,89.75 C333.2906,89.5938 333.3219,89.4375 333.3219,88.9844 L333.3219,87.0625 C333.3219,86.9063 333.3219,86.8594 333.3063,86.7031 C333.2438,86.2344 332.9313,85.9219 332.4781,85.9219 C332.2281,85.9219 331.9625,86.0625 331.7906,86.2813 C331.6813,86.4531 331.65,86.6094 331.65,87.0625 L331.65,87.1875 L330.1969,87.1875 L330.1969,84.7813 L334.1813,84.7813 L334.1813,85.6406 C334.1813,86.0469 334.2125,86.2188 334.2906,86.375 C334.4625,86.625 334.7438,86.7813 335.025,86.7813 C335.2906,86.7813 335.5563,86.6406 335.7281,86.4219 C335.8375,86.25 335.8688,86.1094 335.8688,85.6406 L335.8688,83.0938 L328.2438,83.0938 C327.8063,83.0938 327.6813,83.1094 327.525,83.2031 C327.275,83.3594 327.1188,83.6563 327.1188,83.9375 C327.1188,84.2188 327.2594,84.4688 327.4781,84.6406 C327.6344,84.75 327.8219,84.7813 328.2438,84.7813 L328.4938,84.7813 L328.4938,91.2969 L328.2438,91.2969 C327.8375,91.2969 327.6813,91.3125 327.525,91.4219 C327.275,91.5938 327.1188,91.8594 327.1188,92.1563 C327.1188,92.4219 327.2594,92.6719 327.4781,92.8281 C327.6188,92.9531 327.8531,93 328.2438,93 L336.2438,93 L336.2438,90.4219 C336.2438,89.9844 336.2125,89.8438 336.1344,89.6875 C335.9625,89.4375 335.6813,89.2813 335.4,89.2813 C335.1344,89.2813 334.8688,89.3906 334.6969,89.6406 C334.5875,89.7969 334.5563,89.9375 334.5563,90.4219 L334.5563,91.2969 L330.1969,91.2969 L330.1969,88.875 Z " fill="#000000"/><text fill="#000000" font-family="sans-serif" font-size="14" lengthAdjust="spacing" textLength="59" x="348.6" y="92.8467">Enrolled</text><line style="stroke:#181818;stroke-width:0.5;" x1="303" x2="424" y1="104" y2="104"/><ellipse cx="313" cy="117.6484" fill="#000000" rx="3" ry="3" style="stroke:#000000;stroke-width:1.0;"/><text fill="#000000" font-family="sans-serif" font-size="14" lengthAdjust="spacing" textLength="84" x="322" y="120.9951">User: String</text><ellipse cx="313" cy="133.9453" fill="#000000" rx="3" ry="3" style="stroke:#000000;stroke-width:1.0;"/><text fill="#000000" font-family="sans-serif" font-size="14" lengthAdjust="spacing" textLength="97" x="322" y="137.292">SectionId: Int</text><line style="stroke:#181818;stroke-width:0.5;" x1="303" x2="424" y1="144.5938" y2="144.5938"/></g><!--class Sections--><g id="elem_Sections"><rect codeLine="33" fill="#F1F1F1" height="341.3438" id="Sections" rx="2.5" ry="2.5" style="stroke:#181818;stroke-width:0.5;" width="233" x="63" y="278"/><ellipse cx="144.25" cy="294" fill="#ADD1B2" rx="11" ry="11" style="stroke:#181818;stroke-width:1.0;"/><path d="M143.0469,294.875 L144.5,294.875 L144.5,294.9844 C144.5,295.3906 144.5313,295.5469 144.6094,295.7031 C144.7656,295.9531 145.0469,296.1094 145.3438,296.1094 C145.5938,296.1094 145.8594,295.9688 146.0156,295.75 C146.1406,295.5938 146.1719,295.4375 146.1719,294.9844 L146.1719,293.0625 C146.1719,292.9063 146.1719,292.8594 146.1563,292.7031 C146.0938,292.2344 145.7813,291.9219 145.3281,291.9219 C145.0781,291.9219 144.8125,292.0625 144.6406,292.2813 C144.5313,292.4531 144.5,292.6094 144.5,293.0625 L144.5,293.1875 L143.0469,293.1875 L143.0469,290.7813 L147.0313,290.7813 L147.0313,291.6406 C147.0313,292.0469 147.0625,292.2188 147.1406,292.375 C147.3125,292.625 147.5938,292.7813 147.875,292.7813 C148.1406,292.7813 148.4063,292.6406 148.5781,292.4219 C148.6875,292.25 148.7188,292.1094 148.7188,291.6406 L148.7188,289.0938 L141.0938,289.0938 C140.6563,289.0938 140.5313,289.1094 140.375,289.2031 C140.125,289.3594 139.9688,289.6563 139.9688,289.9375 C139.9688,290.2188 140.1094,290.4688 140.3281,290.6406 C140.4844,290.75 140.6719,290.7813 141.0938,290.7813 L141.3438,290.7813 L141.3438,297.2969 L141.0938,297.2969 C140.6875,297.2969 140.5313,297.3125 140.375,297.4219 C140.125,297.5938 139.9688,297.8594 139.9688,298.1563 C139.9688,298.4219 140.1094,298.6719 140.3281,298.8281 C140.4688,298.9531 140.7031,299 141.0938,299 L149.0938,299 L149.0938,296.4219 C149.0938,295.9844 149.0625,295.8438 148.9844,295.6875 C148.8125,295.4375 148.5313,295.2813 148.25,295.2813 C147.9844,295.2813 147.7188,295.3906 147.5469,295.6406 C147.4375,295.7969 147.4063,295.9375 147.4063,296.4219 L147.4063,297.2969 L143.0469,297.2969 L143.0469,294.875 Z " fill="#000000"/><text fill="#000000" font-family="sans-serif" font-size="14" lengthAdjust="spacing" textLength="62" x="164.75" y="298.8467">Sections</text><line style="stroke:#181818;stroke-width:0.5;" x1="64" x2="295" y1="310" y2="310"/><ellipse cx="74" cy="323.6484" fill="#000000" rx="3" ry="3" style="stroke:#000000;stroke-width:1.0;"/><text fill="#000000" font-family="sans-serif" font-size="14" lengthAdjust="spacing" textLength="102" x="83" y="326.9951">Course: String</text><ellipse cx="74" cy="339.9453" fill="#000000" rx="3" ry="3" style="stroke:#000000;stroke-width:1.0;"/><text fill="#000000" font-family="sans-serif" font-size="14" lengthAdjust="spacing" textLength="117" x="83" y="343.292">Start: DateTime</text><ellipse cx="74" cy="356.2422" fill="#000000" rx="3" ry="3" style="stroke:#000000;stroke-width:1.0;"/><text fill="#000000" font-family="sans-serif" font-size="14" lengthAdjust="spacing" textLength="107" x="83" y="359.5889">End: DateTime</text><text fill="#000000" font-family="sans-serif" font-size="14" lengthAdjust="spacing" textLength="125" x="83" y="375.8857">Sunday: Boolean?</text><text fill="#000000" font-family="sans-serif" font-size="14" lengthAdjust="spacing" textLength="129" x="83" y="392.1826">Monday: Boolean?</text><text fill="#000000" font-family="sans-serif" font-size="14" lengthAdjust="spacing" textLength="132" x="83" y="408.4795">Tuesday: Boolean?</text><text fill="#000000" font-family="sans-serif" font-size="14" lengthAdjust="spacing" textLength="156" x="83" y="424.7764">Wednesday: Boolean?</text><text fill="#000000" font-family="sans-serif" font-size="14" lengthAdjust="spacing" textLength="138" x="83" y="441.0732">Thursday: Boolean?</text><text fill="#000000" font-family="sans-serif" font-size="14" lengthAdjust="spacing" textLength="117" x="83" y="457.3701">Friday: Boolean?</text><text fill="#000000" font-family="sans-serif" font-size="14" lengthAdjust="spacing" textLength="137" x="83" y="473.667">Saturday: Boolean?</text><text fill="#000000" font-family="sans-serif" font-size="14" lengthAdjust="spacing" textLength="99" x="83" y="489.9639">Capacity: Int?</text><text fill="#000000" font-family="sans-serif" font-size="14" lengthAdjust="spacing" textLength="154" x="83" y="506.2607">WaitlistCapacity: Int?</text><ellipse cx="74" cy="519.2109" fill="#000000" rx="3" ry="3" style="stroke:#000000;stroke-width:1.0;"/><text fill="#000000" font-family="sans-serif" font-size="14" lengthAdjust="spacing" textLength="121" x="83" y="522.5576">Professor: String</text><text fill="#000000" font-family="sans-serif" font-size="14" lengthAdjust="spacing" textLength="102" x="83" y="538.8545">Room: String?</text><text fill="#000000" font-family="sans-serif" font-size="14" lengthAdjust="spacing" textLength="189" x="83" y="555.1514">Format: Sections_Format?</text><text fill="#000000" font-family="sans-serif" font-size="14" lengthAdjust="spacing" textLength="207" x="83" y="571.4482">Modality: Sections_Modality?</text><ellipse cx="74" cy="584.3984" fill="#000000" rx="3" ry="3" style="stroke:#000000;stroke-width:1.0;"/><text fill="#000000" font-family="sans-serif" font-size="14" lengthAdjust="spacing" textLength="140" x="83" y="587.7451">CatalogYear: String</text><ellipse cx="74" cy="600.6953" fill="#000000" rx="3" ry="3" style="stroke:#000000;stroke-width:1.0;"/><text fill="#000000" font-family="sans-serif" font-size="14" lengthAdjust="spacing" textLength="121" x="83" y="604.042">Courses: Courses</text><line style="stroke:#181818;stroke-width:0.5;" x1="64" x2="295" y1="611.3438" y2="611.3438"/></g><!--class Flowcharts--><g id="elem_Flowcharts"><rect codeLine="54" fill="#F1F1F1" height="178.375" id="Flowcharts" rx="2.5" ry="2.5" style="stroke:#181818;stroke-width:0.5;" width="405" x="462" y="23.5"/><ellipse cx="621.75" cy="39.5" fill="#ADD1B2" rx="11" ry="11" style="stroke:#181818;stroke-width:1.0;"/><path d="M620.5469,40.375 L622,40.375 L622,40.4844 C622,40.8906 622.0313,41.0469 622.1094,41.2031 C622.2656,41.4531 622.5469,41.6094 622.8438,41.6094 C623.0938,41.6094 623.3594,41.4688 623.5156,41.25 C623.6406,41.0938 623.6719,40.9375 623.6719,40.4844 L623.6719,38.5625 C623.6719,38.4063 623.6719,38.3594 623.6563,38.2031 C623.5938,37.7344 623.2813,37.4219 622.8281,37.4219 C622.5781,37.4219 622.3125,37.5625 622.1406,37.7813 C622.0313,37.9531 622,38.1094 622,38.5625 L622,38.6875 L620.5469,38.6875 L620.5469,36.2813 L624.5313,36.2813 L624.5313,37.1406 C624.5313,37.5469 624.5625,37.7188 624.6406,37.875 C624.8125,38.125 625.0938,38.2813 625.375,38.2813 C625.6406,38.2813 625.9063,38.1406 626.0781,37.9219 C626.1875,37.75 626.2188,37.6094 626.2188,37.1406 L626.2188,34.5938 L618.5938,34.5938 C618.1563,34.5938 618.0313,34.6094 617.875,34.7031 C617.625,34.8594 617.4688,35.1563 617.4688,35.4375 C617.4688,35.7188 617.6094,35.9688 617.8281,36.1406 C617.9844,36.25 618.1719,36.2813 618.5938,36.2813 L618.8438,36.2813 L618.8438,42.7969 L618.5938,42.7969 C618.1875,42.7969 618.0313,42.8125 617.875,42.9219 C617.625,43.0938 617.4688,43.3594 617.4688,43.6563 C617.4688,43.9219 617.6094,44.1719 617.8281,44.3281 C617.9688,44.4531 618.2031,44.5 618.5938,44.5 L626.5938,44.5 L626.5938,41.9219 C626.5938,41.4844 626.5625,41.3438 626.4844,41.1875 C626.3125,40.9375 626.0313,40.7813 625.75,40.7813 C625.4844,40.7813 625.2188,40.8906 625.0469,41.1406 C624.9375,41.2969 624.9063,41.4375 624.9063,41.9219 L624.9063,42.7969 L620.5469,42.7969 L620.5469,40.375 Z " fill="#000000"/><text fill="#000000" font-family="sans-serif" font-size="14" lengthAdjust="spacing" textLength="77" x="642.25" y="44.3467">Flowcharts</text><line style="stroke:#181818;stroke-width:0.5;" x1="463" x2="866" y1="55.5" y2="55.5"/><ellipse cx="473" cy="69.1484" fill="#000000" rx="3" ry="3" style="stroke:#000000;stroke-width:1.0;"/><text fill="#000000" font-family="sans-serif" font-size="14" lengthAdjust="spacing" textLength="136" x="482" y="72.4951">FlowchartId: String</text><ellipse cx="473" cy="85.4453" fill="#000000" rx="3" ry="3" style="stroke:#000000;stroke-width:1.0;"/><text fill="#000000" font-family="sans-serif" font-size="14" lengthAdjust="spacing" textLength="140" x="482" y="88.792">CatalogYear: String</text><ellipse cx="473" cy="101.7422" fill="#000000" rx="3" ry="3" style="stroke:#000000;stroke-width:1.0;"/><text fill="#000000" font-family="sans-serif" font-size="14" lengthAdjust="spacing" textLength="105" x="482" y="105.0889">MajorId: String</text><ellipse cx="473" cy="118.0391" fill="#000000" rx="3" ry="3" style="stroke:#000000;stroke-width:1.0;"/><text fill="#000000" font-family="sans-serif" font-size="14" lengthAdjust="spacing" textLength="170" x="482" y="121.3857">ConcentrationId: String</text><ellipse cx="473" cy="134.3359" fill="#000000" rx="3" ry="3" style="stroke:#000000;stroke-width:1.0;"/><text fill="#000000" font-family="sans-serif" font-size="14" lengthAdjust="spacing" textLength="126" x="482" y="137.6826">Catalog: Catalogs</text><ellipse cx="473" cy="150.6328" fill="#000000" rx="3" ry="3" style="stroke:#000000;stroke-width:1.0;"/><text fill="#000000" font-family="sans-serif" font-size="14" lengthAdjust="spacing" textLength="94" x="482" y="153.9795">Major: Majors</text><ellipse cx="473" cy="166.9297" fill="#000000" rx="3" ry="3" style="stroke:#000000;stroke-width:1.0;"/><text fill="#000000" font-family="sans-serif" font-size="14" lengthAdjust="spacing" textLength="224" x="482" y="170.2764">Concentration: Concentrations</text><ellipse cx="473" cy="183.2266" fill="#000000" rx="3" ry="3" style="stroke:#000000;stroke-width:1.0;"/><text fill="#000000" font-family="sans-serif" font-size="14" lengthAdjust="spacing" textLength="379" x="482" y="186.5732">GraduationRequirements: GraduationRequirements[]</text><line style="stroke:#181818;stroke-width:0.5;" x1="463" x2="866" y1="193.875" y2="193.875"/></g><!--class Catalogs--><g id="elem_Catalogs"><rect codeLine="65" fill="#F1F1F1" height="80.5938" id="Catalogs" rx="2.5" ry="2.5" style="stroke:#181818;stroke-width:0.5;" width="199" x="331" y="408"/><ellipse cx="395.25" cy="424" fill="#ADD1B2" rx="11" ry="11" style="stroke:#181818;stroke-width:1.0;"/><path d="M394.0469,424.875 L395.5,424.875 L395.5,424.9844 C395.5,425.3906 395.5313,425.5469 395.6094,425.7031 C395.7656,425.9531 396.0469,426.1094 396.3438,426.1094 C396.5938,426.1094 396.8594,425.9688 397.0156,425.75 C397.1406,425.5938 397.1719,425.4375 397.1719,424.9844 L397.1719,423.0625 C397.1719,422.9063 397.1719,422.8594 397.1563,422.7031 C397.0938,422.2344 396.7813,421.9219 396.3281,421.9219 C396.0781,421.9219 395.8125,422.0625 395.6406,422.2813 C395.5313,422.4531 395.5,422.6094 395.5,423.0625 L395.5,423.1875 L394.0469,423.1875 L394.0469,420.7813 L398.0313,420.7813 L398.0313,421.6406 C398.0313,422.0469 398.0625,422.2188 398.1406,422.375 C398.3125,422.625 398.5938,422.7813 398.875,422.7813 C399.1406,422.7813 399.4063,422.6406 399.5781,422.4219 C399.6875,422.25 399.7188,422.1094 399.7188,421.6406 L399.7188,419.0938 L392.0938,419.0938 C391.6563,419.0938 391.5313,419.1094 391.375,419.2031 C391.125,419.3594 390.9688,419.6563 390.9688,419.9375 C390.9688,420.2188 391.1094,420.4688 391.3281,420.6406 C391.4844,420.75 391.6719,420.7813 392.0938,420.7813 L392.3438,420.7813 L392.3438,427.2969 L392.0938,427.2969 C391.6875,427.2969 391.5313,427.3125 391.375,427.4219 C391.125,427.5938 390.9688,427.8594 390.9688,428.1563 C390.9688,428.4219 391.1094,428.6719 391.3281,428.8281 C391.4688,428.9531 391.7031,429 392.0938,429 L400.0938,429 L400.0938,426.4219 C400.0938,425.9844 400.0625,425.8438 399.9844,425.6875 C399.8125,425.4375 399.5313,425.2813 399.25,425.2813 C398.9844,425.2813 398.7188,425.3906 398.5469,425.6406 C398.4375,425.7969 398.4063,425.9375 398.4063,426.4219 L398.4063,427.2969 L394.0469,427.2969 L394.0469,424.875 Z " fill="#000000"/><text fill="#000000" font-family="sans-serif" font-size="14" lengthAdjust="spacing" textLength="62" x="415.75" y="428.8467">Catalogs</text><line style="stroke:#181818;stroke-width:0.5;" x1="332" x2="529" y1="440" y2="440"/><ellipse cx="342" cy="453.6484" fill="#000000" rx="3" ry="3" style="stroke:#000000;stroke-width:1.0;"/><text fill="#000000" font-family="sans-serif" font-size="14" lengthAdjust="spacing" textLength="140" x="351" y="456.9951">CatalogYear: String</text><ellipse cx="342" cy="469.9453" fill="#000000" rx="3" ry="3" style="stroke:#000000;stroke-width:1.0;"/><text fill="#000000" font-family="sans-serif" font-size="14" lengthAdjust="spacing" textLength="173" x="351" y="473.292">Flowcharts: Flowcharts[]</text><line style="stroke:#181818;stroke-width:0.5;" x1="332" x2="529" y1="480.5938" y2="480.5938"/></g><!--class Concentrations--><g id="elem_Concentrations"><rect codeLine="70" fill="#F1F1F1" height="129.4844" id="Concentrations" rx="2.5" ry="2.5" style="stroke:#181818;stroke-width:0.5;" width="199" x="565" y="384"/><ellipse cx="605.2" cy="400" fill="#ADD1B2" rx="11" ry="11" style="stroke:#181818;stroke-width:1.0;"/><path d="M603.9969,400.875 L605.45,400.875 L605.45,400.9844 C605.45,401.3906 605.4813,401.5469 605.5594,401.7031 C605.7156,401.9531 605.9969,402.1094 606.2938,402.1094 C606.5438,402.1094 606.8094,401.9688 606.9656,401.75 C607.0906,401.5938 607.1219,401.4375 607.1219,400.9844 L607.1219,399.0625 C607.1219,398.9063 607.1219,398.8594 607.1063,398.7031 C607.0438,398.2344 606.7313,397.9219 606.2781,397.9219 C606.0281,397.9219 605.7625,398.0625 605.5906,398.2813 C605.4813,398.4531 605.45,398.6094 605.45,399.0625 L605.45,399.1875 L603.9969,399.1875 L603.9969,396.7813 L607.9813,396.7813 L607.9813,397.6406 C607.9813,398.0469 608.0125,398.2188 608.0906,398.375 C608.2625,398.625 608.5438,398.7813 608.825,398.7813 C609.0906,398.7813 609.3563,398.6406 609.5281,398.4219 C609.6375,398.25 609.6688,398.1094 609.6688,397.6406 L609.6688,395.0938 L602.0438,395.0938 C601.6063,395.0938 601.4813,395.1094 601.325,395.2031 C601.075,395.3594 600.9188,395.6563 600.9188,395.9375 C600.9188,396.2188 601.0594,396.4688 601.2781,396.6406 C601.4344,396.75 601.6219,396.7813 602.0438,396.7813 L602.2938,396.7813 L602.2938,403.2969 L602.0438,403.2969 C601.6375,403.2969 601.4813,403.3125 601.325,403.4219 C601.075,403.5938 600.9188,403.8594 600.9188,404.1563 C600.9188,404.4219 601.0594,404.6719 601.2781,404.8281 C601.4188,404.9531 601.6531,405 602.0438,405 L610.0438,405 L610.0438,402.4219 C610.0438,401.9844 610.0125,401.8438 609.9344,401.6875 C609.7625,401.4375 609.4813,401.2813 609.2,401.2813 C608.9344,401.2813 608.6688,401.3906 608.4969,401.6406 C608.3875,401.7969 608.3563,401.9375 608.3563,402.4219 L608.3563,403.2969 L603.9969,403.2969 L603.9969,400.875 Z " fill="#000000"/><text fill="#000000" font-family="sans-serif" font-size="14" lengthAdjust="spacing" textLength="111" x="624.8" y="404.8467">Concentrations</text><line style="stroke:#181818;stroke-width:0.5;" x1="566" x2="763" y1="416" y2="416"/><ellipse cx="576" cy="429.6484" fill="#000000" rx="3" ry="3" style="stroke:#000000;stroke-width:1.0;"/><text fill="#000000" font-family="sans-serif" font-size="14" lengthAdjust="spacing" textLength="66" x="585" y="432.9951">Id: String</text><text fill="#000000" font-family="sans-serif" font-size="14" lengthAdjust="spacing" textLength="101" x="585" y="449.292">Name: String?</text><ellipse cx="576" cy="462.2422" fill="#000000" rx="3" ry="3" style="stroke:#000000;stroke-width:1.0;"/><text fill="#000000" font-family="sans-serif" font-size="14" lengthAdjust="spacing" textLength="105" x="585" y="465.5889">MajorId: String</text><ellipse cx="576" cy="478.5391" fill="#000000" rx="3" ry="3" style="stroke:#000000;stroke-width:1.0;"/><text fill="#000000" font-family="sans-serif" font-size="14" lengthAdjust="spacing" textLength="94" x="585" y="481.8857">Major: Majors</text><ellipse cx="576" cy="494.8359" fill="#000000" rx="3" ry="3" style="stroke:#000000;stroke-width:1.0;"/><text fill="#000000" font-family="sans-serif" font-size="14" lengthAdjust="spacing" textLength="173" x="585" y="498.1826">Flowcharts: Flowcharts[]</text><line style="stroke:#181818;stroke-width:0.5;" x1="566" x2="763" y1="505.4844" y2="505.4844"/></g><!--class GraduationRequirements--><g id="elem_GraduationRequirements"><rect codeLine="78" fill="#F1F1F1" height="96.8906" id="GraduationRequirements" rx="2.5" ry="2.5" style="stroke:#181818;stroke-width:0.5;" width="212" x="799.5" y="400"/><ellipse cx="814.5" cy="416" fill="#ADD1B2" rx="11" ry="11" style="stroke:#181818;stroke-width:1.0;"/><path d="M813.2969,416.875 L814.75,416.875 L814.75,416.9844 C814.75,417.3906 814.7813,417.5469 814.8594,417.7031 C815.0156,417.9531 815.2969,418.1094 815.5938,418.1094 C815.8438,418.1094 816.1094,417.9688 816.2656,417.75 C816.3906,417.5938 816.4219,417.4375 816.4219,416.9844 L816.4219,415.0625 C816.4219,414.9063 816.4219,414.8594 816.4063,414.7031 C816.3438,414.2344 816.0313,413.9219 815.5781,413.9219 C815.3281,413.9219 815.0625,414.0625 814.8906,414.2813 C814.7813,414.4531 814.75,414.6094 814.75,415.0625 L814.75,415.1875 L813.2969,415.1875 L813.2969,412.7813 L817.2813,412.7813 L817.2813,413.6406 C817.2813,414.0469 817.3125,414.2188 817.3906,414.375 C817.5625,414.625 817.8438,414.7813 818.125,414.7813 C818.3906,414.7813 818.6563,414.6406 818.8281,414.4219 C818.9375,414.25 818.9688,414.1094 818.9688,413.6406 L818.9688,411.0938 L811.3438,411.0938 C810.9063,411.0938 810.7813,411.1094 810.625,411.2031 C810.375,411.3594 810.2188,411.6563 810.2188,411.9375 C810.2188,412.2188 810.3594,412.4688 810.5781,412.6406 C810.7344,412.75 810.9219,412.7813 811.3438,412.7813 L811.5938,412.7813 L811.5938,419.2969 L811.3438,419.2969 C810.9375,419.2969 810.7813,419.3125 810.625,419.4219 C810.375,419.5938 810.2188,419.8594 810.2188,420.1563 C810.2188,420.4219 810.3594,420.6719 810.5781,420.8281 C810.7188,420.9531 810.9531,421 811.3438,421 L819.3438,421 L819.3438,418.4219 C819.3438,417.9844 819.3125,417.8438 819.2344,417.6875 C819.0625,417.4375 818.7813,417.2813 818.5,417.2813 C818.2344,417.2813 817.9688,417.3906 817.7969,417.6406 C817.6875,417.7969 817.6563,417.9375 817.6563,418.4219 L817.6563,419.2969 L813.2969,419.2969 L813.2969,416.875 Z " fill="#000000"/><text fill="#000000" font-family="sans-serif" font-size="14" lengthAdjust="spacing" textLength="180" x="828.5" y="420.8467">GraduationRequirements</text><line style="stroke:#181818;stroke-width:0.5;" x1="800.5" x2="1010.5" y1="432" y2="432"/><ellipse cx="810.5" cy="445.6484" fill="#000000" rx="3" ry="3" style="stroke:#000000;stroke-width:1.0;"/><text fill="#000000" font-family="sans-serif" font-size="14" lengthAdjust="spacing" textLength="136" x="819.5" y="448.9951">FlowchartId: String</text><ellipse cx="810.5" cy="461.9453" fill="#000000" rx="3" ry="3" style="stroke:#000000;stroke-width:1.0;"/><text fill="#000000" font-family="sans-serif" font-size="14" lengthAdjust="spacing" textLength="90" x="819.5" y="465.292">Code: String</text><ellipse cx="810.5" cy="478.2422" fill="#000000" rx="3" ry="3" style="stroke:#000000;stroke-width:1.0;"/><text fill="#000000" font-family="sans-serif" font-size="14" lengthAdjust="spacing" textLength="156" x="819.5" y="481.5889">Flowchart: Flowcharts</text><line style="stroke:#181818;stroke-width:0.5;" x1="800.5" x2="1010.5" y1="488.8906" y2="488.8906"/></g><!--class Majors--><g id="elem_Majors"><rect codeLine="84" fill="#F1F1F1" height="113.1875" id="Majors" rx="2.5" ry="2.5" style="stroke:#181818;stroke-width:0.5;" width="267" x="1047" y="392"/><ellipse cx="1153.25" cy="408" fill="#ADD1B2" rx="11" ry="11" style="stroke:#181818;stroke-width:1.0;"/><path d="M1152.0469,408.875 L1153.5,408.875 L1153.5,408.9844 C1153.5,409.3906 1153.5313,409.5469 1153.6094,409.7031 C1153.7656,409.9531 1154.0469,410.1094 1154.3438,410.1094 C1154.5938,410.1094 1154.8594,409.9688 1155.0156,409.75 C1155.1406,409.5938 1155.1719,409.4375 1155.1719,408.9844 L1155.1719,407.0625 C1155.1719,406.9063 1155.1719,406.8594 1155.1563,406.7031 C1155.0938,406.2344 1154.7813,405.9219 1154.3281,405.9219 C1154.0781,405.9219 1153.8125,406.0625 1153.6406,406.2813 C1153.5313,406.4531 1153.5,406.6094 1153.5,407.0625 L1153.5,407.1875 L1152.0469,407.1875 L1152.0469,404.7813 L1156.0313,404.7813 L1156.0313,405.6406 C1156.0313,406.0469 1156.0625,406.2188 1156.1406,406.375 C1156.3125,406.625 1156.5938,406.7813 1156.875,406.7813 C1157.1406,406.7813 1157.4063,406.6406 1157.5781,406.4219 C1157.6875,406.25 1157.7188,406.1094 1157.7188,405.6406 L1157.7188,403.0938 L1150.0938,403.0938 C1149.6563,403.0938 1149.5313,403.1094 1149.375,403.2031 C1149.125,403.3594 1148.9688,403.6563 1148.9688,403.9375 C1148.9688,404.2188 1149.1094,404.4688 1149.3281,404.6406 C1149.4844,404.75 1149.6719,404.7813 1150.0938,404.7813 L1150.3438,404.7813 L1150.3438,411.2969 L1150.0938,411.2969 C1149.6875,411.2969 1149.5313,411.3125 1149.375,411.4219 C1149.125,411.5938 1148.9688,411.8594 1148.9688,412.1563 C1148.9688,412.4219 1149.1094,412.6719 1149.3281,412.8281 C1149.4688,412.9531 1149.7031,413 1150.0938,413 L1158.0938,413 L1158.0938,410.4219 C1158.0938,409.9844 1158.0625,409.8438 1157.9844,409.6875 C1157.8125,409.4375 1157.5313,409.2813 1157.25,409.2813 C1156.9844,409.2813 1156.7188,409.3906 1156.5469,409.6406 C1156.4375,409.7969 1156.4063,409.9375 1156.4063,410.4219 L1156.4063,411.2969 L1152.0469,411.2969 L1152.0469,408.875 Z " fill="#000000"/><text fill="#000000" font-family="sans-serif" font-size="14" lengthAdjust="spacing" textLength="46" x="1173.75" y="412.8467">Majors</text><line style="stroke:#181818;stroke-width:0.5;" x1="1048" x2="1313" y1="424" y2="424"/><ellipse cx="1058" cy="437.6484" fill="#000000" rx="3" ry="3" style="stroke:#000000;stroke-width:1.0;"/><text fill="#000000" font-family="sans-serif" font-size="14" lengthAdjust="spacing" textLength="66" x="1067" y="440.9951">Id: String</text><ellipse cx="1058" cy="453.9453" fill="#000000" rx="3" ry="3" style="stroke:#000000;stroke-width:1.0;"/><text fill="#000000" font-family="sans-serif" font-size="14" lengthAdjust="spacing" textLength="94" x="1067" y="457.292">Name: String</text><ellipse cx="1058" cy="470.2422" fill="#000000" rx="3" ry="3" style="stroke:#000000;stroke-width:1.0;"/><text fill="#000000" font-family="sans-serif" font-size="14" lengthAdjust="spacing" textLength="173" x="1067" y="473.5889">Flowcharts: Flowcharts[]</text><ellipse cx="1058" cy="486.5391" fill="#000000" rx="3" ry="3" style="stroke:#000000;stroke-width:1.0;"/><text fill="#000000" font-family="sans-serif" font-size="14" lengthAdjust="spacing" textLength="241" x="1067" y="489.8857">Concentrations: Concentrations[]</text><line style="stroke:#181818;stroke-width:0.5;" x1="1048" x2="1313" y1="497.1875" y2="497.1875"/></g><!--class CourseCodeMapping--><g id="elem_CourseCodeMapping"><rect codeLine="91" fill="#F1F1F1" height="80.5938" id="CourseCodeMapping" rx="2.5" ry="2.5" style="stroke:#181818;stroke-width:0.5;" width="180" x="902.5" y="72"/><ellipse cx="917.5" cy="88" fill="#ADD1B2" rx="11" ry="11" style="stroke:#181818;stroke-width:1.0;"/><path d="M916.2969,88.875 L917.75,88.875 L917.75,88.9844 C917.75,89.3906 917.7813,89.5469 917.8594,89.7031 C918.0156,89.9531 918.2969,90.1094 918.5938,90.1094 C918.8438,90.1094 919.1094,89.9688 919.2656,89.75 C919.3906,89.5938 919.4219,89.4375 919.4219,88.9844 L919.4219,87.0625 C919.4219,86.9063 919.4219,86.8594 919.4063,86.7031 C919.3438,86.2344 919.0313,85.9219 918.5781,85.9219 C918.3281,85.9219 918.0625,86.0625 917.8906,86.2813 C917.7813,86.4531 917.75,86.6094 917.75,87.0625 L917.75,87.1875 L916.2969,87.1875 L916.2969,84.7813 L920.2813,84.7813 L920.2813,85.6406 C920.2813,86.0469 920.3125,86.2188 920.3906,86.375 C920.5625,86.625 920.8438,86.7813 921.125,86.7813 C921.3906,86.7813 921.6563,86.6406 921.8281,86.4219 C921.9375,86.25 921.9688,86.1094 921.9688,85.6406 L921.9688,83.0938 L914.3438,83.0938 C913.9063,83.0938 913.7813,83.1094 913.625,83.2031 C913.375,83.3594 913.2188,83.6563 913.2188,83.9375 C913.2188,84.2188 913.3594,84.4688 913.5781,84.6406 C913.7344,84.75 913.9219,84.7813 914.3438,84.7813 L914.5938,84.7813 L914.5938,91.2969 L914.3438,91.2969 C913.9375,91.2969 913.7813,91.3125 913.625,91.4219 C913.375,91.5938 913.2188,91.8594 913.2188,92.1563 C913.2188,92.4219 913.3594,92.6719 913.5781,92.8281 C913.7188,92.9531 913.9531,93 914.3438,93 L922.3438,93 L922.3438,90.4219 C922.3438,89.9844 922.3125,89.8438 922.2344,89.6875 C922.0625,89.4375 921.7813,89.2813 921.5,89.2813 C921.2344,89.2813 920.9688,89.3906 920.7969,89.6406 C920.6875,89.7969 920.6563,89.9375 920.6563,90.4219 L920.6563,91.2969 L916.2969,91.2969 L916.2969,88.875 Z " fill="#000000"/><text fill="#000000" font-family="sans-serif" font-size="14" lengthAdjust="spacing" textLength="148" x="931.5" y="92.8467">CourseCodeMapping</text><line style="stroke:#181818;stroke-width:0.5;" x1="903.5" x2="1081.5" y1="104" y2="104"/><ellipse cx="913.5" cy="117.6484" fill="#000000" rx="3" ry="3" style="stroke:#000000;stroke-width:1.0;"/><text fill="#000000" font-family="sans-serif" font-size="14" lengthAdjust="spacing" textLength="114" x="922.5" y="120.9951">OldCode: String</text><text fill="#000000" font-family="sans-serif" font-size="14" lengthAdjust="spacing" textLength="127" x="922.5" y="137.292">NewCode: String?</text><line style="stroke:#181818;stroke-width:0.5;" x1="903.5" x2="1081.5" y1="144.5938" y2="144.5938"/></g><!--link Courses to Sections--><g id="link_Courses_Sections"><path codeLine="96" d="M151.167,226.351 C151.167,226.351 151.167,269.703 151.167,269.703 " fill="none" id="Courses-Sections" style="stroke:#181818;stroke-width:1.0;stroke-dasharray:7.0,7.0;"/><line style="stroke:#181818;stroke-width:1.0;" x1="147.167" x2="155.167" y1="222.351" y2="222.351"/><line style="stroke:#181818;stroke-width:1.0;" x1="147.167" x2="155.167" y1="225.351" y2="225.351"/><line style="stroke:#181818;stroke-width:1.0;" x1="151.167" x2="151.167" y1="226.351" y2="218.351"/><line style="stroke:#181818;stroke-width:1.0;" x1="151.167" x2="157.167" y1="269.703" y2="277.703"/><line style="stroke:#181818;stroke-width:1.0;" x1="151.167" x2="145.167" y1="269.703" y2="277.703"/><line style="stroke:#181818;stroke-width:1.0;" x1="151.167" x2="151.167" y1="269.703" y2="277.703"/><line style="stroke:#181818;stroke-width:1.0;" x1="155.167" x2="147.167" y1="267.703" y2="267.703"/></g><!--link Courses to Sections--><g id="link_Courses_Sections"><path codeLine="97" d="M207.833,226.351 C207.833,226.351 207.833,269.703 207.833,269.703 " fill="none" id="Courses-Sections-1" style="stroke:#181818;stroke-width:1.0;stroke-dasharray:7.0,7.0;"/><line style="stroke:#181818;stroke-width:1.0;" x1="203.833" x2="211.833" y1="222.351" y2="222.351"/><line style="stroke:#181818;stroke-width:1.0;" x1="203.833" x2="211.833" y1="225.351" y2="225.351"/><line style="stroke:#181818;stroke-width:1.0;" x1="207.833" x2="207.833" y1="226.351" y2="218.351"/><line style="stroke:#181818;stroke-width:1.0;" x1="207.833" x2="213.833" y1="269.703" y2="277.703"/><line style="stroke:#181818;stroke-width:1.0;" x1="207.833" x2="201.833" y1="269.703" y2="277.703"/><line style="stroke:#181818;stroke-width:1.0;" x1="207.833" x2="207.833" y1="269.703" y2="277.703"/><line style="stroke:#181818;stroke-width:1.0;" x1="211.833" x2="203.833" y1="267.703" y2="267.703"/></g><!--link Flowcharts to Catalogs--><g id="link_Flowcharts_Catalogs"><path codeLine="98" d="M484.667,209.66 C484.667,209.66 484.667,399.814 484.667,399.814 " fill="none" id="Flowcharts-Catalogs" style="stroke:#181818;stroke-width:1.0;stroke-dasharray:7.0,7.0;"/><line style="stroke:#181818;stroke-width:1.0;" x1="484.667" x2="478.667" y1="209.66" y2="201.66"/><line style="stroke:#181818;stroke-width:1.0;" x1="484.667" x2="490.667" y1="209.66" y2="201.66"/><line style="stroke:#181818;stroke-width:1.0;" x1="484.667" x2="484.667" y1="209.66" y2="201.66"/><line style="stroke:#181818;stroke-width:1.0;" x1="480.667" x2="488.667" y1="211.66" y2="211.66"/><line style="stroke:#181818;stroke-width:1.0;" x1="488.667" x2="480.667" y1="403.814" y2="403.814"/><line style="stroke:#181818;stroke-width:1.0;" x1="488.667" x2="480.667" y1="400.814" y2="400.814"/><line style="stroke:#181818;stroke-width:1.0;" x1="484.667" x2="484.667" y1="399.814" y2="407.814"/></g><!--link Flowcharts to Catalogs--><g id="link_Flowcharts_Catalogs"><path codeLine="99" d="M507.333,209.66 C507.333,209.66 507.333,399.814 507.333,399.814 " fill="none" id="Flowcharts-Catalogs-1" style="stroke:#181818;stroke-width:1.0;stroke-dasharray:7.0,7.0;"/><line style="stroke:#181818;stroke-width:1.0;" x1="507.333" x2="501.333" y1="209.66" y2="201.66"/><line style="stroke:#181818;stroke-width:1.0;" x1="507.333" x2="513.333" y1="209.66" y2="201.66"/><line style="stroke:#181818;stroke-width:1.0;" x1="507.333" x2="507.333" y1="209.66" y2="201.66"/><line style="stroke:#181818;stroke-width:1.0;" x1="503.333" x2="511.333" y1="211.66" y2="211.66"/><line style="stroke:#181818;stroke-width:1.0;" x1="511.333" x2="503.333" y1="403.814" y2="403.814"/><line style="stroke:#181818;stroke-width:1.0;" x1="511.333" x2="503.333" y1="400.814" y2="400.814"/><line style="stroke:#181818;stroke-width:1.0;" x1="507.333" x2="507.333" y1="399.814" y2="407.814"/></g><!--link Flowcharts to Concentrations--><g id="link_Flowcharts_Concentrations"><path codeLine="100" d="M664.5,209.66 C664.5,209.66 664.5,375.972 664.5,375.972 " fill="none" id="Flowcharts-Concentrations" style="stroke:#181818;stroke-width:1.0;stroke-dasharray:7.0,7.0;"/><line style="stroke:#181818;stroke-width:1.0;" x1="664.5" x2="658.5" y1="209.66" y2="201.66"/><line style="stroke:#181818;stroke-width:1.0;" x1="664.5" x2="670.5" y1="209.66" y2="201.66"/><line style="stroke:#181818;stroke-width:1.0;" x1="664.5" x2="664.5" y1="209.66" y2="201.66"/><line style="stroke:#181818;stroke-width:1.0;" x1="660.5" x2="668.5" y1="211.66" y2="211.66"/><line style="stroke:#181818;stroke-width:1.0;" x1="668.5" x2="660.5" y1="379.972" y2="379.972"/><line style="stroke:#181818;stroke-width:1.0;" x1="668.5" x2="660.5" y1="376.972" y2="376.972"/><line style="stroke:#181818;stroke-width:1.0;" x1="664.5" x2="664.5" y1="375.972" y2="383.972"/></g><!--link Flowcharts to GraduationRequirements--><g id="link_Flowcharts_GraduationRequirements"><path codeLine="101" d="M822,209.66 C822,209.66 822,391.533 822,391.533 " fill="none" id="Flowcharts-GraduationRequirements" style="stroke:#181818;stroke-width:1.0;stroke-dasharray:7.0,7.0;"/><line style="stroke:#181818;stroke-width:1.0;" x1="818" x2="826" y1="205.66" y2="205.66"/><line style="stroke:#181818;stroke-width:1.0;" x1="818" x2="826" y1="208.66" y2="208.66"/><line style="stroke:#181818;stroke-width:1.0;" x1="822" x2="822" y1="209.66" y2="201.66"/><line style="stroke:#181818;stroke-width:1.0;" x1="822" x2="828" y1="391.533" y2="399.533"/><line style="stroke:#181818;stroke-width:1.0;" x1="822" x2="816" y1="391.533" y2="399.533"/><line style="stroke:#181818;stroke-width:1.0;" x1="822" x2="822" y1="391.533" y2="399.533"/><line style="stroke:#181818;stroke-width:1.0;" x1="826" x2="818" y1="389.533" y2="389.533"/></g><!--link Flowcharts to Majors--><g id="link_Flowcharts_Majors"><path codeLine="102" d="M844.5,209.812 C844.5,209.812 844.5,396 844.5,396 C844.5,396 1038.74,396 1038.74,396 " fill="none" id="Flowcharts-Majors" style="stroke:#181818;stroke-width:1.0;stroke-dasharray:7.0,7.0;"/><line style="stroke:#181818;stroke-width:1.0;" x1="844.5" x2="838.5" y1="209.812" y2="201.812"/><line style="stroke:#181818;stroke-width:1.0;" x1="844.5" x2="850.5" y1="209.812" y2="201.812"/><line style="stroke:#181818;stroke-width:1.0;" x1="844.5" x2="844.5" y1="209.812" y2="201.812"/><line style="stroke:#181818;stroke-width:1.0;" x1="840.5" x2="848.5" y1="211.812" y2="211.812"/><line style="stroke:#181818;stroke-width:1.0;" x1="1042.74" x2="1042.74" y1="392" y2="400"/><line style="stroke:#181818;stroke-width:1.0;" x1="1039.74" x2="1039.74" y1="392" y2="400"/><line style="stroke:#181818;stroke-width:1.0;" x1="1038.74" x2="1046.74" y1="396" y2="396"/></g><!--link Sections to Sections_Format--><g id="link_Sections_Sections_Format"><path codeLine="103" d="M111.5,627.232 C111.5,627.232 111.5,670.942 111.5,670.942 " fill="none" id="Sections-Sections_Format" style="stroke:#181818;stroke-width:1.0;stroke-dasharray:7.0,7.0;"/><line style="stroke:#181818;stroke-width:1.0;" x1="107.5" x2="115.5" y1="623.232" y2="623.232"/><line style="stroke:#181818;stroke-width:1.0;" x1="107.5" x2="115.5" y1="626.232" y2="626.232"/><line style="stroke:#181818;stroke-width:1.0;" x1="111.5" x2="111.5" y1="627.232" y2="619.232"/><line style="stroke:#181818;stroke-width:1.0;" x1="111.5" x2="111.5" y1="667.9418" y2="678.9418"/><ellipse cx="111.5" cy="667.9418" fill="none" rx="4" ry="4" style="stroke:#181818;stroke-width:1.0;"/><line style="stroke:#181818;stroke-width:1.0;" x1="115.5" x2="107.5" y1="674.9418" y2="674.9418"/></g><!--link Sections to Sections_Modality--><g id="link_Sections_Sections_Modality"><path codeLine="104" d="M245.75,627.232 C245.75,627.232 245.75,670.942 245.75,670.942 " fill="none" id="Sections-Sections_Modality" style="stroke:#181818;stroke-width:1.0;stroke-dasharray:7.0,7.0;"/><line style="stroke:#181818;stroke-width:1.0;" x1="241.75" x2="249.75" y1="623.232" y2="623.232"/><line style="stroke:#181818;stroke-width:1.0;" x1="241.75" x2="249.75" y1="626.232" y2="626.232"/><line style="stroke:#181818;stroke-width:1.0;" x1="245.75" x2="245.75" y1="627.232" y2="619.232"/><line style="stroke:#181818;stroke-width:1.0;" x1="245.75" x2="245.75" y1="667.9418" y2="678.9418"/><ellipse cx="245.75" cy="667.9418" fill="none" rx="4" ry="4" style="stroke:#181818;stroke-width:1.0;"/><line style="stroke:#181818;stroke-width:1.0;" x1="249.75" x2="241.75" y1="674.9418" y2="674.9418"/></g><!--SRC=[bLJBRjim4BpxAtJk8H_0Yu7OSU6YIeB8GL0KHR6HDZ5RYQkG518Zoh-Nb4IPfEIwFMart9rz3Qb-Sr63X2efkK1zg34XgVUqMA1egYJ3N7CIwkU6P0KwULyaoLU3DHADbM751KYBmUFY8uv9gO2IwqCNTIDi0cDinIrAHSAOkyjr7wMjrueQgL1rtf-I5MWewVaRWcH9fYKNpprE1GR0hSGd_XP0rqtrY2PiAxJvJxcu5rohxdzf0NWB0HC1bS-wHfLBNjis76hzJ2g9BoRkYwc_3tJDij7w_iFhwKf8AaiiXgRk5ORT347ReY_s6EZOt3IwsOIX6gHcoHeqxdY57NObYW396b70WIMNH2L2Lt9A4sZNe8gn1op45DtjJHank94yXZ8m2ed15TIGczx6iJy0roLNUd9WbqfFg1JvqxeZglnjz99aiKRx9dlbiQaObsVKrMcGESFRoAQartnlPkvsCW9sUpx72UuKVf6CVKdaXb-2Ky6KXpb37LbO_r5J3XR-zXwV9HHDzt-7BmsNM1a7q-Gy7WZOvJvpAu_3OPuTCWLr3Nn1o_ubN9uSsNG0_v1yljDpYuoVcj7Hp-DbwMkQQstomlobwibELRpKQAvMgRRM5EhQi0_vRyeYQk0QNtraQKdSezks5nVj-tXTJkBUBVYmH-rHdVzt5AhKSnWopcziXcaGmlXWsdXgurVXzBbx6Fu0]--></g></svg>