<?xml version="1.0" encoding="us-ascii" standalone="no"?><svg xmlns="http://www.w3.org/2000/svg" xmlns:xlink="http://www.w3.org/1999/xlink" contentStyleType="text/css" height="555px" preserveAspectRatio="none" style="width:1665px;height:555px;background:#FFFFFF;" version="1.1" viewBox="0 0 1665 555" width="1665px" zoomAndPan="magnify"><defs/><g><!--class Sections_Format--><g id="elem_Sections_Format"><rect codeLine="6" fill="#F1F1F1" height="96.8906" id="Sections_Format" rx="2.5" ry="2.5" style="stroke:#181818;stroke-width:0.5;" width="147" x="1312.5" y="155"/><ellipse cx="1327.5" cy="171" fill="#EB937F" rx="11" ry="11" style="stroke:#181818;stroke-width:1.0;"/><path d="M1331.6094,177 L1323.8906,177 L1323.8906,164.6094 L1331.6094,164.6094 L1331.6094,166.7656 L1326.3438,166.7656 L1326.3438,169.4375 L1331.1094,169.4375 L1331.1094,171.5938 L1326.3438,171.5938 L1326.3438,174.8438 L1331.6094,174.8438 L1331.6094,177 Z " fill="#000000"/><text fill="#000000" font-family="sans-serif" font-size="14" lengthAdjust="spacing" textLength="115" x="1341.5" y="175.8467">Sections_Format</text><line style="stroke:#181818;stroke-width:0.5;" x1="1313.5" x2="1458.5" y1="187" y2="187"/><text fill="#000000" font-family="sans-serif" font-size="14" lengthAdjust="spacing" textLength="52" x="1318.5" y="203.9951">Lecture</text><text fill="#000000" font-family="sans-serif" font-size="14" lengthAdjust="spacing" textLength="56" x="1318.5" y="220.292">Seminar</text><text fill="#000000" font-family="sans-serif" font-size="14" lengthAdjust="spacing" textLength="24" x="1318.5" y="236.5889">Lab</text><line style="stroke:#181818;stroke-width:0.5;" x1="1313.5" x2="1458.5" y1="243.8906" y2="243.8906"/></g><!--class Sections_Modality--><g id="elem_Sections_Modality"><rect codeLine="12" fill="#F1F1F1" height="96.8906" id="Sections_Modality" rx="2.5" ry="2.5" style="stroke:#181818;stroke-width:0.5;" width="155" x="1308.5" y="287"/><ellipse cx="1323.5" cy="303" fill="#EB937F" rx="11" ry="11" style="stroke:#181818;stroke-width:1.0;"/><path d="M1327.6094,309 L1319.8906,309 L1319.8906,296.6094 L1327.6094,296.6094 L1327.6094,298.7656 L1322.3438,298.7656 L1322.3438,301.4375 L1327.1094,301.4375 L1327.1094,303.5938 L1322.3438,303.5938 L1322.3438,306.8438 L1327.6094,306.8438 L1327.6094,309 Z " fill="#000000"/><text fill="#000000" font-family="sans-serif" font-size="14" lengthAdjust="spacing" textLength="123" x="1337.5" y="307.8467">Sections_Modality</text><line style="stroke:#181818;stroke-width:0.5;" x1="1309.5" x2="1462.5" y1="319" y2="319"/><text fill="#000000" font-family="sans-serif" font-size="14" lengthAdjust="spacing" textLength="44" x="1314.5" y="335.9951">Online</text><text fill="#000000" font-family="sans-serif" font-size="14" lengthAdjust="spacing" textLength="61" x="1314.5" y="352.292">InPerson</text><text fill="#000000" font-family="sans-serif" font-size="14" lengthAdjust="spacing" textLength="30" x="1314.5" y="368.5889">TBD</text><line style="stroke:#181818;stroke-width:0.5;" x1="1309.5" x2="1462.5" y1="375.8906" y2="375.8906"/></g><!--class Enrolled_Type--><g id="elem_Enrolled_Type"><rect codeLine="18" fill="#F1F1F1" height="96.8906" id="Enrolled_Type" rx="2.5" ry="2.5" style="stroke:#181818;stroke-width:0.5;" width="129" x="1529" y="435"/><ellipse cx="1544" cy="451" fill="#EB937F" rx="11" ry="11" style="stroke:#181818;stroke-width:1.0;"/><path d="M1548.1094,457 L1540.3906,457 L1540.3906,444.6094 L1548.1094,444.6094 L1548.1094,446.7656 L1542.8438,446.7656 L1542.8438,449.4375 L1547.6094,449.4375 L1547.6094,451.5938 L1542.8438,451.5938 L1542.8438,454.8438 L1548.1094,454.8438 L1548.1094,457 Z " fill="#000000"/><text fill="#000000" font-family="sans-serif" font-size="14" lengthAdjust="spacing" textLength="97" x="1558" y="455.8467">Enrolled_Type</text><line style="stroke:#181818;stroke-width:0.5;" x1="1530" x2="1657" y1="467" y2="467"/><text fill="#000000" font-family="sans-serif" font-size="14" lengthAdjust="spacing" textLength="56" x="1535" y="483.9951">Enrolled</text><text fill="#000000" font-family="sans-serif" font-size="14" lengthAdjust="spacing" textLength="48" x="1535" y="500.292">Waitlist</text><text fill="#000000" font-family="sans-serif" font-size="14" lengthAdjust="spacing" textLength="94" x="1535" y="516.5889">ShoppingCart</text><line style="stroke:#181818;stroke-width:0.5;" x1="1530" x2="1657" y1="523.8906" y2="523.8906"/></g><!--class Courses--><g id="elem_Courses"><rect codeLine="24" fill="#F1F1F1" height="210.9688" id="Courses" rx="2.5" ry="2.5" style="stroke:#181818;stroke-width:0.5;" width="165" x="777" y="230"/><ellipse cx="826.25" cy="246" fill="#ADD1B2" rx="11" ry="11" style="stroke:#181818;stroke-width:1.0;"/><path d="M830.3594,252 L822.6406,252 L822.6406,239.6094 L830.3594,239.6094 L830.3594,241.7656 L825.0938,241.7656 L825.0938,244.4375 L829.8594,244.4375 L829.8594,246.5938 L825.0938,246.5938 L825.0938,249.8438 L830.3594,249.8438 L830.3594,252 Z " fill="#000000"/><text fill="#000000" font-family="sans-serif" font-size="14" lengthAdjust="spacing" textLength="58" x="846.75" y="250.8467">Courses</text><line style="stroke:#181818;stroke-width:0.5;" x1="778" x2="941" y1="262" y2="262"/><ellipse cx="788" cy="275.6484" fill="#000000" rx="3" ry="3" style="stroke:#000000;stroke-width:1.0;"/><text fill="#000000" font-family="sans-serif" font-size="14" lengthAdjust="spacing" textLength="132" x="797" y="278.9951">CatalogYear: String</text><ellipse cx="788" cy="291.9453" fill="#000000" rx="3" ry="3" style="stroke:#000000;stroke-width:1.0;"/><text fill="#000000" font-family="sans-serif" font-size="14" lengthAdjust="spacing" textLength="86" x="797" y="295.292">Code: String</text><ellipse cx="788" cy="308.2422" fill="#000000" rx="3" ry="3" style="stroke:#000000;stroke-width:1.0;"/><text fill="#000000" font-family="sans-serif" font-size="14" lengthAdjust="spacing" textLength="86" x="797" y="311.5889">Prefix: String</text><ellipse cx="788" cy="324.5391" fill="#000000" rx="3" ry="3" style="stroke:#000000;stroke-width:1.0;"/><text fill="#000000" font-family="sans-serif" font-size="14" lengthAdjust="spacing" textLength="81" x="797" y="327.8857">Number: Int</text><text fill="#000000" font-family="sans-serif" font-size="14" lengthAdjust="spacing" textLength="92" x="797" y="344.1826">MinUnits: Int?</text><text fill="#000000" font-family="sans-serif" font-size="14" lengthAdjust="spacing" textLength="95" x="797" y="360.4795">MaxUnits: Int?</text><ellipse cx="788" cy="373.4297" fill="#000000" rx="3" ry="3" style="stroke:#000000;stroke-width:1.0;"/><text fill="#000000" font-family="sans-serif" font-size="14" lengthAdjust="spacing" textLength="89" x="797" y="376.7764">Name: String</text><text fill="#000000" font-family="sans-serif" font-size="14" lengthAdjust="spacing" textLength="135" x="797" y="393.0732">Description: String?</text><text fill="#000000" font-family="sans-serif" font-size="14" lengthAdjust="spacing" textLength="99" x="797" y="409.3701">Prereqs: Json?</text><ellipse cx="788" cy="422.3203" fill="#000000" rx="3" ry="3" style="stroke:#000000;stroke-width:1.0;"/><text fill="#000000" font-family="sans-serif" font-size="14" lengthAdjust="spacing" textLength="139" x="797" y="425.667">Sections: Sections[]</text><line style="stroke:#181818;stroke-width:0.5;" x1="778" x2="941" y1="432.9688" y2="432.9688"/></g><!--class Enrolled--><g id="elem_Enrolled"><rect codeLine="38" fill="#F1F1F1" height="129.4844" id="Enrolled" rx="2.5" ry="2.5" style="stroke:#181818;stroke-width:0.5;" width="166" x="1303" y="419"/><ellipse cx="1353.75" cy="435" fill="#ADD1B2" rx="11" ry="11" style="stroke:#181818;stroke-width:1.0;"/><path d="M1357.8594,441 L1350.1406,441 L1350.1406,428.6094 L1357.8594,428.6094 L1357.8594,430.7656 L1352.5938,430.7656 L1352.5938,433.4375 L1357.3594,433.4375 L1357.3594,435.5938 L1352.5938,435.5938 L1352.5938,438.8438 L1357.8594,438.8438 L1357.8594,441 Z " fill="#000000"/><text fill="#000000" font-family="sans-serif" font-size="14" lengthAdjust="spacing" textLength="56" x="1374.25" y="439.8467">Enrolled</text><line style="stroke:#181818;stroke-width:0.5;" x1="1304" x2="1468" y1="451" y2="451"/><ellipse cx="1314" cy="464.6484" fill="#000000" rx="3" ry="3" style="stroke:#000000;stroke-width:1.0;"/><text fill="#000000" font-family="sans-serif" font-size="14" lengthAdjust="spacing" textLength="81" x="1323" y="467.9951">User: String</text><ellipse cx="1314" cy="480.9453" fill="#000000" rx="3" ry="3" style="stroke:#000000;stroke-width:1.0;"/><text fill="#000000" font-family="sans-serif" font-size="14" lengthAdjust="spacing" textLength="90" x="1323" y="484.292">SectionId: Int</text><ellipse cx="1314" cy="497.2422" fill="#000000" rx="3" ry="3" style="stroke:#000000;stroke-width:1.0;"/><text fill="#000000" font-family="sans-serif" font-size="14" lengthAdjust="spacing" textLength="121" x="1323" y="500.5889">Section: Sections</text><ellipse cx="1314" cy="513.5391" fill="#000000" rx="3" ry="3" style="stroke:#000000;stroke-width:1.0;"/><text fill="#000000" font-family="sans-serif" font-size="14" lengthAdjust="spacing" textLength="64" x="1323" y="516.8857">Seat: Int?</text><ellipse cx="1314" cy="529.8359" fill="#000000" rx="3" ry="3" style="stroke:#000000;stroke-width:1.0;"/><text fill="#000000" font-family="sans-serif" font-size="14" lengthAdjust="spacing" textLength="140" x="1323" y="533.1826">Type: Enrolled_Type</text><line style="stroke:#181818;stroke-width:0.5;" x1="1304" x2="1468" y1="540.4844" y2="540.4844"/></g><!--class Sections--><g id="elem_Sections"><rect codeLine="46" fill="#F1F1F1" height="406.5313" id="Sections" rx="2.5" ry="2.5" style="stroke:#181818;stroke-width:0.5;" width="241" x="1002" y="132"/><ellipse cx="1088.25" cy="148" fill="#ADD1B2" rx="11" ry="11" style="stroke:#181818;stroke-width:1.0;"/><path d="M1092.3594,154 L1084.6406,154 L1084.6406,141.6094 L1092.3594,141.6094 L1092.3594,143.7656 L1087.0938,143.7656 L1087.0938,146.4375 L1091.8594,146.4375 L1091.8594,148.5938 L1087.0938,148.5938 L1087.0938,151.8438 L1092.3594,151.8438 L1092.3594,154 Z " fill="#000000"/><text fill="#000000" font-family="sans-serif" font-size="14" lengthAdjust="spacing" textLength="60" x="1108.75" y="152.8467">Sections</text><line style="stroke:#181818;stroke-width:0.5;" x1="1003" x2="1242" y1="164" y2="164"/><ellipse cx="1013" cy="177.6484" fill="#000000" rx="3" ry="3" style="stroke:#000000;stroke-width:1.0;"/><text fill="#000000" font-family="sans-serif" font-size="14" lengthAdjust="spacing" textLength="90" x="1022" y="180.9951">SectionId: Int</text><ellipse cx="1013" cy="193.9453" fill="#000000" rx="3" ry="3" style="stroke:#000000;stroke-width:1.0;"/><text fill="#000000" font-family="sans-serif" font-size="14" lengthAdjust="spacing" textLength="99" x="1022" y="197.292">Course: String</text><ellipse cx="1013" cy="210.2422" fill="#000000" rx="3" ry="3" style="stroke:#000000;stroke-width:1.0;"/><text fill="#000000" font-family="sans-serif" font-size="14" lengthAdjust="spacing" textLength="108" x="1022" y="213.5889">Start: DateTime</text><ellipse cx="1013" cy="226.5391" fill="#000000" rx="3" ry="3" style="stroke:#000000;stroke-width:1.0;"/><text fill="#000000" font-family="sans-serif" font-size="14" lengthAdjust="spacing" textLength="103" x="1022" y="229.8857">End: DateTime</text><text fill="#000000" font-family="sans-serif" font-size="14" lengthAdjust="spacing" textLength="124" x="1022" y="246.1826">Sunday: Boolean?</text><text fill="#000000" font-family="sans-serif" font-size="14" lengthAdjust="spacing" textLength="127" x="1022" y="262.4795">Monday: Boolean?</text><text fill="#000000" font-family="sans-serif" font-size="14" lengthAdjust="spacing" textLength="132" x="1022" y="278.7764">Tuesday: Boolean?</text><text fill="#000000" font-family="sans-serif" font-size="14" lengthAdjust="spacing" textLength="154" x="1022" y="295.0732">Wednesday: Boolean?</text><text fill="#000000" font-family="sans-serif" font-size="14" lengthAdjust="spacing" textLength="137" x="1022" y="311.3701">Thursday: Boolean?</text><text fill="#000000" font-family="sans-serif" font-size="14" lengthAdjust="spacing" textLength="113" x="1022" y="327.667">Friday: Boolean?</text><text fill="#000000" font-family="sans-serif" font-size="14" lengthAdjust="spacing" textLength="133" x="1022" y="343.9639">Saturday: Boolean?</text><text fill="#000000" font-family="sans-serif" font-size="14" lengthAdjust="spacing" textLength="91" x="1022" y="360.2607">Capacity: Int?</text><text fill="#000000" font-family="sans-serif" font-size="14" lengthAdjust="spacing" textLength="139" x="1022" y="376.5576">WaitlistCapacity: Int?</text><ellipse cx="1013" cy="389.5078" fill="#000000" rx="3" ry="3" style="stroke:#000000;stroke-width:1.0;"/><text fill="#000000" font-family="sans-serif" font-size="14" lengthAdjust="spacing" textLength="115" x="1022" y="392.8545">Professor: String</text><text fill="#000000" font-family="sans-serif" font-size="14" lengthAdjust="spacing" textLength="97" x="1022" y="409.1514">Room: String?</text><text fill="#000000" font-family="sans-serif" font-size="14" lengthAdjust="spacing" textLength="179" x="1022" y="425.4482">Format: Sections_Format?</text><text fill="#000000" font-family="sans-serif" font-size="14" lengthAdjust="spacing" textLength="195" x="1022" y="441.7451">Modality: Sections_Modality?</text><ellipse cx="1013" cy="454.6953" fill="#000000" rx="3" ry="3" style="stroke:#000000;stroke-width:1.0;"/><text fill="#000000" font-family="sans-serif" font-size="14" lengthAdjust="spacing" textLength="132" x="1022" y="458.042">CatalogYear: String</text><ellipse cx="1013" cy="470.9922" fill="#000000" rx="3" ry="3" style="stroke:#000000;stroke-width:1.0;"/><text fill="#000000" font-family="sans-serif" font-size="14" lengthAdjust="spacing" textLength="125" x="1022" y="474.3389">Courses: Courses</text><ellipse cx="1013" cy="487.2891" fill="#000000" rx="3" ry="3" style="stroke:#000000;stroke-width:1.0;"/><text fill="#000000" font-family="sans-serif" font-size="14" lengthAdjust="spacing" textLength="123" x="1022" y="490.6357">Waitlists: Waitlist[]</text><ellipse cx="1013" cy="503.5859" fill="#000000" rx="3" ry="3" style="stroke:#000000;stroke-width:1.0;"/><text fill="#000000" font-family="sans-serif" font-size="14" lengthAdjust="spacing" textLength="215" x="1022" y="506.9326">ShoppingCarts: ShoppingCart[]</text><ellipse cx="1013" cy="519.8828" fill="#000000" rx="3" ry="3" style="stroke:#000000;stroke-width:1.0;"/><text fill="#000000" font-family="sans-serif" font-size="14" lengthAdjust="spacing" textLength="139" x="1022" y="523.2295">Enrolleds: Enrolled[]</text><line style="stroke:#181818;stroke-width:0.5;" x1="1003" x2="1242" y1="530.5313" y2="530.5313"/></g><!--class Flowcharts--><g id="elem_Flowcharts"><rect codeLine="71" fill="#F1F1F1" height="178.375" id="Flowcharts" rx="2.5" ry="2.5" style="stroke:#181818;stroke-width:0.5;" width="393" x="7" y="172.5"/><ellipse cx="162.25" cy="188.5" fill="#ADD1B2" rx="11" ry="11" style="stroke:#181818;stroke-width:1.0;"/><path d="M166.3594,194.5 L158.6406,194.5 L158.6406,182.1094 L166.3594,182.1094 L166.3594,184.2656 L161.0938,184.2656 L161.0938,186.9375 L165.8594,186.9375 L165.8594,189.0938 L161.0938,189.0938 L161.0938,192.3438 L166.3594,192.3438 L166.3594,194.5 Z " fill="#000000"/><text fill="#000000" font-family="sans-serif" font-size="14" lengthAdjust="spacing" textLength="74" x="182.75" y="193.3467">Flowcharts</text><line style="stroke:#181818;stroke-width:0.5;" x1="8" x2="399" y1="204.5" y2="204.5"/><ellipse cx="18" cy="218.1484" fill="#000000" rx="3" ry="3" style="stroke:#000000;stroke-width:1.0;"/><text fill="#000000" font-family="sans-serif" font-size="14" lengthAdjust="spacing" textLength="127" x="27" y="221.4951">FlowchartId: String</text><ellipse cx="18" cy="234.4453" fill="#000000" rx="3" ry="3" style="stroke:#000000;stroke-width:1.0;"/><text fill="#000000" font-family="sans-serif" font-size="14" lengthAdjust="spacing" textLength="132" x="27" y="237.792">CatalogYear: String</text><ellipse cx="18" cy="250.7422" fill="#000000" rx="3" ry="3" style="stroke:#000000;stroke-width:1.0;"/><text fill="#000000" font-family="sans-serif" font-size="14" lengthAdjust="spacing" textLength="98" x="27" y="254.0889">MajorId: String</text><ellipse cx="18" cy="267.0391" fill="#000000" rx="3" ry="3" style="stroke:#000000;stroke-width:1.0;"/><text fill="#000000" font-family="sans-serif" font-size="14" lengthAdjust="spacing" textLength="159" x="27" y="270.3857">ConcentrationId: String</text><ellipse cx="18" cy="283.3359" fill="#000000" rx="3" ry="3" style="stroke:#000000;stroke-width:1.0;"/><text fill="#000000" font-family="sans-serif" font-size="14" lengthAdjust="spacing" textLength="121" x="27" y="286.6826">Catalog: Catalogs</text><ellipse cx="18" cy="299.6328" fill="#000000" rx="3" ry="3" style="stroke:#000000;stroke-width:1.0;"/><text fill="#000000" font-family="sans-serif" font-size="14" lengthAdjust="spacing" textLength="91" x="27" y="302.9795">Major: Majors</text><ellipse cx="18" cy="315.9297" fill="#000000" rx="3" ry="3" style="stroke:#000000;stroke-width:1.0;"/><text fill="#000000" font-family="sans-serif" font-size="14" lengthAdjust="spacing" textLength="213" x="27" y="319.2764">Concentration: Concentrations</text><ellipse cx="18" cy="332.2266" fill="#000000" rx="3" ry="3" style="stroke:#000000;stroke-width:1.0;"/><text fill="#000000" font-family="sans-serif" font-size="14" lengthAdjust="spacing" textLength="367" x="27" y="335.5732">GraduationRequirements: GraduationRequirements[]</text><line style="stroke:#181818;stroke-width:0.5;" x1="8" x2="399" y1="342.875" y2="342.875"/></g><!--class Catalogs--><g id="elem_Catalogs"><rect codeLine="82" fill="#F1F1F1" height="80.5938" id="Catalogs" rx="2.5" ry="2.5" style="stroke:#181818;stroke-width:0.5;" width="193" x="492" y="7"/><ellipse cx="554.25" cy="23" fill="#ADD1B2" rx="11" ry="11" style="stroke:#181818;stroke-width:1.0;"/><path d="M558.3594,29 L550.6406,29 L550.6406,16.6094 L558.3594,16.6094 L558.3594,18.7656 L553.0938,18.7656 L553.0938,21.4375 L557.8594,21.4375 L557.8594,23.5938 L553.0938,23.5938 L553.0938,26.8438 L558.3594,26.8438 L558.3594,29 Z " fill="#000000"/><text fill="#000000" font-family="sans-serif" font-size="14" lengthAdjust="spacing" textLength="60" x="574.75" y="27.8467">Catalogs</text><line style="stroke:#181818;stroke-width:0.5;" x1="493" x2="684" y1="39" y2="39"/><ellipse cx="503" cy="52.6484" fill="#000000" rx="3" ry="3" style="stroke:#000000;stroke-width:1.0;"/><text fill="#000000" font-family="sans-serif" font-size="14" lengthAdjust="spacing" textLength="132" x="512" y="55.9951">CatalogYear: String</text><ellipse cx="503" cy="68.9453" fill="#000000" rx="3" ry="3" style="stroke:#000000;stroke-width:1.0;"/><text fill="#000000" font-family="sans-serif" font-size="14" lengthAdjust="spacing" textLength="167" x="512" y="72.292">Flowcharts: Flowcharts[]</text><line style="stroke:#181818;stroke-width:0.5;" x1="493" x2="684" y1="79.5938" y2="79.5938"/></g><!--class Concentrations--><g id="elem_Concentrations"><rect codeLine="87" fill="#F1F1F1" height="129.4844" id="Concentrations" rx="2.5" ry="2.5" style="stroke:#181818;stroke-width:0.5;" width="193" x="492" y="123"/><ellipse cx="531.75" cy="139" fill="#ADD1B2" rx="11" ry="11" style="stroke:#181818;stroke-width:1.0;"/><path d="M535.8594,145 L528.1406,145 L528.1406,132.6094 L535.8594,132.6094 L535.8594,134.7656 L530.5938,134.7656 L530.5938,137.4375 L535.3594,137.4375 L535.3594,139.5938 L530.5938,139.5938 L530.5938,142.8438 L535.8594,142.8438 L535.8594,145 Z " fill="#000000"/><text fill="#000000" font-family="sans-serif" font-size="14" lengthAdjust="spacing" textLength="106" x="551.25" y="143.8467">Concentrations</text><line style="stroke:#181818;stroke-width:0.5;" x1="493" x2="684" y1="155" y2="155"/><ellipse cx="503" cy="168.6484" fill="#000000" rx="3" ry="3" style="stroke:#000000;stroke-width:1.0;"/><text fill="#000000" font-family="sans-serif" font-size="14" lengthAdjust="spacing" textLength="61" x="512" y="171.9951">Id: String</text><text fill="#000000" font-family="sans-serif" font-size="14" lengthAdjust="spacing" textLength="96" x="512" y="188.292">Name: String?</text><ellipse cx="503" cy="201.2422" fill="#000000" rx="3" ry="3" style="stroke:#000000;stroke-width:1.0;"/><text fill="#000000" font-family="sans-serif" font-size="14" lengthAdjust="spacing" textLength="98" x="512" y="204.5889">MajorId: String</text><ellipse cx="503" cy="217.5391" fill="#000000" rx="3" ry="3" style="stroke:#000000;stroke-width:1.0;"/><text fill="#000000" font-family="sans-serif" font-size="14" lengthAdjust="spacing" textLength="91" x="512" y="220.8857">Major: Majors</text><ellipse cx="503" cy="233.8359" fill="#000000" rx="3" ry="3" style="stroke:#000000;stroke-width:1.0;"/><text fill="#000000" font-family="sans-serif" font-size="14" lengthAdjust="spacing" textLength="167" x="512" y="237.1826">Flowcharts: Flowcharts[]</text><line style="stroke:#181818;stroke-width:0.5;" x1="493" x2="684" y1="244.4844" y2="244.4844"/></g><!--class GraduationRequirements--><g id="elem_GraduationRequirements"><rect codeLine="95" fill="#F1F1F1" height="96.8906" id="GraduationRequirements" rx="2.5" ry="2.5" style="stroke:#181818;stroke-width:0.5;" width="206" x="485.5" y="287"/><ellipse cx="500.5" cy="303" fill="#ADD1B2" rx="11" ry="11" style="stroke:#181818;stroke-width:1.0;"/><path d="M504.6094,309 L496.8906,309 L496.8906,296.6094 L504.6094,296.6094 L504.6094,298.7656 L499.3438,298.7656 L499.3438,301.4375 L504.1094,301.4375 L504.1094,303.5938 L499.3438,303.5938 L499.3438,306.8438 L504.6094,306.8438 L504.6094,309 Z " fill="#000000"/><text fill="#000000" font-family="sans-serif" font-size="14" lengthAdjust="spacing" textLength="174" x="514.5" y="307.8467">GraduationRequirements</text><line style="stroke:#181818;stroke-width:0.5;" x1="486.5" x2="690.5" y1="319" y2="319"/><ellipse cx="496.5" cy="332.6484" fill="#000000" rx="3" ry="3" style="stroke:#000000;stroke-width:1.0;"/><text fill="#000000" font-family="sans-serif" font-size="14" lengthAdjust="spacing" textLength="127" x="505.5" y="335.9951">FlowchartId: String</text><ellipse cx="496.5" cy="348.9453" fill="#000000" rx="3" ry="3" style="stroke:#000000;stroke-width:1.0;"/><text fill="#000000" font-family="sans-serif" font-size="14" lengthAdjust="spacing" textLength="86" x="505.5" y="352.292">Code: String</text><ellipse cx="496.5" cy="365.2422" fill="#000000" rx="3" ry="3" style="stroke:#000000;stroke-width:1.0;"/><text fill="#000000" font-family="sans-serif" font-size="14" lengthAdjust="spacing" textLength="149" x="505.5" y="368.5889">Flowchart: Flowcharts</text><line style="stroke:#181818;stroke-width:0.5;" x1="486.5" x2="690.5" y1="375.8906" y2="375.8906"/></g><!--class Majors--><g id="elem_Majors"><rect codeLine="101" fill="#F1F1F1" height="113.1875" id="Majors" rx="2.5" ry="2.5" style="stroke:#181818;stroke-width:0.5;" width="257" x="460" y="419"/><ellipse cx="561.75" cy="435" fill="#ADD1B2" rx="11" ry="11" style="stroke:#181818;stroke-width:1.0;"/><path d="M565.8594,441 L558.1406,441 L558.1406,428.6094 L565.8594,428.6094 L565.8594,430.7656 L560.5938,430.7656 L560.5938,433.4375 L565.3594,433.4375 L565.3594,435.5938 L560.5938,435.5938 L560.5938,438.8438 L565.8594,438.8438 L565.8594,441 Z " fill="#000000"/><text fill="#000000" font-family="sans-serif" font-size="14" lengthAdjust="spacing" textLength="45" x="582.25" y="439.8467">Majors</text><line style="stroke:#181818;stroke-width:0.5;" x1="461" x2="716" y1="451" y2="451"/><ellipse cx="471" cy="464.6484" fill="#000000" rx="3" ry="3" style="stroke:#000000;stroke-width:1.0;"/><text fill="#000000" font-family="sans-serif" font-size="14" lengthAdjust="spacing" textLength="61" x="480" y="467.9951">Id: String</text><ellipse cx="471" cy="480.9453" fill="#000000" rx="3" ry="3" style="stroke:#000000;stroke-width:1.0;"/><text fill="#000000" font-family="sans-serif" font-size="14" lengthAdjust="spacing" textLength="89" x="480" y="484.292">Name: String</text><ellipse cx="471" cy="497.2422" fill="#000000" rx="3" ry="3" style="stroke:#000000;stroke-width:1.0;"/><text fill="#000000" font-family="sans-serif" font-size="14" lengthAdjust="spacing" textLength="167" x="480" y="500.5889">Flowcharts: Flowcharts[]</text><ellipse cx="471" cy="513.5391" fill="#000000" rx="3" ry="3" style="stroke:#000000;stroke-width:1.0;"/><text fill="#000000" font-family="sans-serif" font-size="14" lengthAdjust="spacing" textLength="231" x="480" y="516.8857">Concentrations: Concentrations[]</text><line style="stroke:#181818;stroke-width:0.5;" x1="461" x2="716" y1="524.1875" y2="524.1875"/></g><!--reverse link Courses to Sections--><g id="link_Courses_Sections"><path codeLine="108" d="M955.35,335.5 C955.35,335.5 1001.58,335.5 1001.58,335.5 " fill="none" id="Courses-backto-Sections" style="stroke:#181818;stroke-width:1.0;"/><polygon fill="#181818" points="942.35,335.5,948.35,339.5,954.35,335.5,948.35,331.5,942.35,335.5" style="stroke:#181818;stroke-width:1.0;"/><text fill="#000000" font-family="sans-serif" font-size="13" lengthAdjust="spacing" textLength="8" x="950.0851" y="348.2422">1</text><text fill="#000000" font-family="sans-serif" font-size="13" lengthAdjust="spacing" textLength="23" x="970.9245" y="348.0179">0..*</text></g><!--reverse link Sections to Enrolled--><g id="link_Sections_Enrolled"><path codeLine="109" d="M1256.07,479 C1256.07,479 1302.79,479 1302.79,479 " fill="none" id="Sections-backto-Enrolled" style="stroke:#181818;stroke-width:1.0;"/><polygon fill="#181818" points="1243.07,479,1249.07,483,1255.07,479,1249.07,475,1243.07,479" style="stroke:#181818;stroke-width:1.0;"/><text fill="#000000" font-family="sans-serif" font-size="13" lengthAdjust="spacing" textLength="8" x="1251.0503" y="500.7596">1</text><text fill="#000000" font-family="sans-serif" font-size="13" lengthAdjust="spacing" textLength="23" x="1271.9468" y="491.3008">0..*</text></g><!--reverse link Enrolled to Enrolled_Type--><g id="link_Enrolled_Enrolled_Type"><path codeLine="110" d="M1482.2,483.5 C1482.2,483.5 1528.81,483.5 1528.81,483.5 " fill="none" id="Enrolled-backto-Enrolled_Type" style="stroke:#181818;stroke-width:1.0;"/><polygon fill="#181818" points="1469.2,483.5,1475.2,487.5,1481.2,483.5,1475.2,479.5,1469.2,483.5" style="stroke:#181818;stroke-width:1.0;"/><text fill="#000000" font-family="sans-serif" font-size="13" lengthAdjust="spacing" textLength="8" x="1476.9663" y="496.2192">1</text><text fill="#000000" font-family="sans-serif" font-size="13" lengthAdjust="spacing" textLength="8" x="1512.8677" y="496.4481">1</text></g><!--reverse link Sections to Sections_Format--><g id="link_Sections_Sections_Format"><path codeLine="111" d="M1256.07,203.5 C1256.07,203.5 1312.2,203.5 1312.2,203.5 " fill="none" id="Sections-backto-Sections_Format" style="stroke:#181818;stroke-width:1.0;"/><polygon fill="#181818" points="1243.07,203.5,1249.07,207.5,1255.07,203.5,1249.07,199.5,1243.07,203.5" style="stroke:#181818;stroke-width:1.0;"/><text fill="#000000" font-family="sans-serif" font-size="13" lengthAdjust="spacing" textLength="8" x="1251.0503" y="207.6104">1</text><text fill="#000000" font-family="sans-serif" font-size="13" lengthAdjust="spacing" textLength="8" x="1296.5416" y="216.3171">1</text></g><!--reverse link Sections to Sections_Modality--><g id="link_Sections_Sections_Modality"><path codeLine="112" d="M1256.07,335.5 C1256.07,335.5 1308.47,335.5 1308.47,335.5 " fill="none" id="Sections-backto-Sections_Modality" style="stroke:#181818;stroke-width:1.0;"/><polygon fill="#181818" points="1243.07,335.5,1249.07,339.5,1255.07,335.5,1249.07,331.5,1243.07,335.5" style="stroke:#181818;stroke-width:1.0;"/><text fill="#000000" font-family="sans-serif" font-size="13" lengthAdjust="spacing" textLength="8" x="1251.0503" y="348.0666">1</text><text fill="#000000" font-family="sans-serif" font-size="13" lengthAdjust="spacing" textLength="8" x="1292.4444" y="348.3171">1</text></g><!--reverse link Flowcharts to Catalogs--><g id="link_Flowcharts_Catalogs"><path codeLine="113" d="M204,159.29 C204,159.29 204,47.5 204,47.5 C204,47.5 378.07,47.5 491.97,47.5 " fill="none" id="Flowcharts-backto-Catalogs" style="stroke:#181818;stroke-width:1.0;"/><polygon fill="none" points="204,172.29,208,166.29,204,160.29,200,166.29,204,172.29" style="stroke:#181818;stroke-width:1.0;"/><text fill="#000000" font-family="sans-serif" font-size="13" lengthAdjust="spacing" textLength="23" x="180.0891" y="161.3381">0..*</text><text fill="#000000" font-family="sans-serif" font-size="13" lengthAdjust="spacing" textLength="8" x="475.959" y="60.186">1</text></g><!--reverse link Flowcharts to Concentrations--><g id="link_Flowcharts_Concentrations"><path codeLine="114" d="M413.23,212.25 C413.23,212.25 491.84,212.25 491.84,212.25 " fill="none" id="Flowcharts-backto-Concentrations" style="stroke:#181818;stroke-width:1.0;"/><polygon fill="none" points="400.23,212.25,406.23,216.25,412.23,212.25,406.23,208.25,400.23,212.25" style="stroke:#181818;stroke-width:1.0;"/><text fill="#000000" font-family="sans-serif" font-size="13" lengthAdjust="spacing" textLength="23" x="407.7133" y="222.8122">0..*</text><text fill="#000000" font-family="sans-serif" font-size="13" lengthAdjust="spacing" textLength="8" x="476.1332" y="226.7726">1</text></g><!--reverse link Flowcharts to Majors--><g id="link_Flowcharts_Majors"><path codeLine="115" d="M413.07,329.33 C413.07,329.33 473,329.33 473,329.33 C473,329.33 473,377.86 473,418.99 " fill="none" id="Flowcharts-backto-Majors" style="stroke:#181818;stroke-width:1.0;"/><polygon fill="none" points="400.07,329.33,406.07,333.33,412.07,329.33,406.07,325.33,400.07,329.33" style="stroke:#181818;stroke-width:1.0;"/><text fill="#000000" font-family="sans-serif" font-size="13" lengthAdjust="spacing" textLength="23" x="408.1977" y="344.3347">0..*</text><text fill="#000000" font-family="sans-serif" font-size="13" lengthAdjust="spacing" textLength="8" x="449.6891" y="407.8521">1</text></g><!--reverse link Flowcharts to GraduationRequirements--><g id="link_Flowcharts_GraduationRequirements"><path codeLine="116" d="M413.23,308.17 C413.23,308.17 485.41,308.17 485.41,308.17 " fill="none" id="Flowcharts-backto-GraduationRequirements" style="stroke:#181818;stroke-width:1.0;"/><polygon fill="#181818" points="400.23,308.17,406.23,312.17,412.23,308.17,406.23,304.17,400.23,308.17" style="stroke:#181818;stroke-width:1.0;"/><text fill="#000000" font-family="sans-serif" font-size="13" lengthAdjust="spacing" textLength="8" x="408.071" y="322.3482">1</text><text fill="#000000" font-family="sans-serif" font-size="13" lengthAdjust="spacing" textLength="23" x="454.3529" y="318.8511">0..*</text></g><!--reverse link GraduationRequirements to Courses--><g id="link_GraduationRequirements_Courses"><path codeLine="117" d="M704.73,335.5 C704.73,335.5 776.76,335.5 776.76,335.5 " fill="none" id="GraduationRequirements-backto-Courses" style="stroke:#181818;stroke-width:1.0;"/><polygon fill="none" points="691.73,335.5,697.73,339.5,703.73,335.5,697.73,331.5,691.73,335.5" style="stroke:#181818;stroke-width:1.0;"/><text fill="#000000" font-family="sans-serif" font-size="13" lengthAdjust="spacing" textLength="8" x="699.6047" y="348.1266">1</text><text fill="#000000" font-family="sans-serif" font-size="13" lengthAdjust="spacing" textLength="8" x="761.0347" y="348.2422">1</text></g><!--SRC=[ZLLRQzim57xthn1-6GHQbbUz19es8sFPIfDInYZbn3w9jTcIAyciOUo_Jx8iHxAJPayv-d9ktxbP_MAy1WaLAHb7VQYH2AaBaIGbxZJHWaYsBpJ9cSHCCy6J17bJaRLxgPU5a1LeyYSXv8l16eb6McF5E4YBmJRvExHPYHnAfW-jrJTk8njXoUzHAXE1aCtDRMzrnwKeIynVDZOvQ-4H8pu1qoLJsiOiH5qplf-3rCvOsn1pqKY5gZMSa3beACN-EuAaPAsbqNUuo342xYNks5i4VMsgBHgp9RVXLem_SgPL-vvP0DvYm5X05NgzHPL9LjiQUDJgcL0INutTPqFU6VfAqLxwyMmvVJ0HTfYJmbYGRQC95vemJbHMO0NaWDhJzZNgU3ygZ0btVfUvvzD3nvWT2ZgWP9j0uvu4nVQMNTGJGLmxubIqwHWbjw1nmofiiJkUHyYwuJaSABaHeaHegxGI8sZJe1fYJvZpCRefJ1f3S27P45g3cUWXE8SQCaEtBukVmj4VTex43fKIOVKVXAZ20N0hH8SxvKYwJQ7ZvPbT6EXsxAaNMj3dQM0lchbgUn0iZvswuDbf-9QhO_VTJ7QjNvJYTrPOywxvFM3R7sPs9kCL_1Hog2juPlnBy6CqzaEze8vUgFjHOnyqVZgDJnBofdq_u6jZ3brb50pFqtZ4siU-S5wEnQ6177kAykhyHPJ3Qp8xMx9n0VuZ-6ccbnevl9czOXWdYE9oEaLjT2hVoNhKKpLiggFc3tywJSdawega7w-l9-dnkFMtQg3GVrtw4zehJDF1vHlxcAR3DRwWvDSv2HQeoqHqkls0lwCIJ_LvnMukGeMO_kbHICvCY3KEad2dvXy0]--></g></svg>