<?xml version="1.0" encoding="us-ascii" standalone="no"?><svg xmlns="http://www.w3.org/2000/svg" xmlns:xlink="http://www.w3.org/1999/xlink" contentStyleType="text/css" height="1630px" preserveAspectRatio="none" style="width:3270px;height:1630px;background:#FFFFFF;" version="1.1" viewBox="0 0 3270 1630" width="3270px" zoomAndPan="magnify"><defs/><g><!--class Sections_Format--><g id="elem_Sections_Format"><rect codeLine="13" fill="#F1F1F1" height="193.7813" id="Sections_Format" rx="5" ry="5" style="stroke:#181818;stroke-width:1.0;" width="294" x="2565" y="27"/><ellipse cx="2595" cy="59" fill="#EB937F" rx="22" ry="22" style="stroke:#181818;stroke-width:2.0;"/><path d="M2603.2188,71 L2587.7813,71 L2587.7813,46.2188 L2603.2188,46.2188 L2603.2188,50.5313 L2592.6875,50.5313 L2592.6875,55.875 L2602.2188,55.875 L2602.2188,60.1875 L2592.6875,60.1875 L2592.6875,66.6875 L2603.2188,66.6875 L2603.2188,71 Z " fill="#000000"/><text fill="#000000" font-family="sans-serif" font-size="28" lengthAdjust="spacing" textLength="230" x="2623" y="68.6934">Sections_Format</text><line style="stroke:#181818;stroke-width:1.0;" x1="2567" x2="2857" y1="91" y2="91"/><text fill="#000000" font-family="sans-serif" font-size="28" lengthAdjust="spacing" textLength="104" x="2577" y="124.9902">Lecture</text><text fill="#000000" font-family="sans-serif" font-size="28" lengthAdjust="spacing" textLength="112" x="2577" y="157.584">Seminar</text><text fill="#000000" font-family="sans-serif" font-size="28" lengthAdjust="spacing" textLength="48" x="2577" y="190.1777">Lab</text><line style="stroke:#181818;stroke-width:1.0;" x1="2567" x2="2857" y1="204.7813" y2="204.7813"/></g><!--class Sections_Modality--><g id="elem_Sections_Modality"><rect codeLine="19" fill="#F1F1F1" height="193.7813" id="Sections_Modality" rx="5" ry="5" style="stroke:#181818;stroke-width:1.0;" width="310" x="2557" y="291"/><ellipse cx="2587" cy="323" fill="#EB937F" rx="22" ry="22" style="stroke:#181818;stroke-width:2.0;"/><path d="M2595.2188,335 L2579.7813,335 L2579.7813,310.2188 L2595.2188,310.2188 L2595.2188,314.5313 L2584.6875,314.5313 L2584.6875,319.875 L2594.2188,319.875 L2594.2188,324.1875 L2584.6875,324.1875 L2584.6875,330.6875 L2595.2188,330.6875 L2595.2188,335 Z " fill="#000000"/><text fill="#000000" font-family="sans-serif" font-size="28" lengthAdjust="spacing" textLength="246" x="2615" y="332.6934">Sections_Modality</text><line style="stroke:#181818;stroke-width:1.0;" x1="2559" x2="2865" y1="355" y2="355"/><text fill="#000000" font-family="sans-serif" font-size="28" lengthAdjust="spacing" textLength="88" x="2569" y="388.9902">Online</text><text fill="#000000" font-family="sans-serif" font-size="28" lengthAdjust="spacing" textLength="122" x="2569" y="421.584">InPerson</text><text fill="#000000" font-family="sans-serif" font-size="28" lengthAdjust="spacing" textLength="60" x="2569" y="454.1777">TBD</text><line style="stroke:#181818;stroke-width:1.0;" x1="2559" x2="2865" y1="468.7813" y2="468.7813"/></g><!--class Enrolled_Type--><g id="elem_Enrolled_Type"><rect codeLine="25" fill="#F1F1F1" height="193.7813" id="Enrolled_Type" rx="5" ry="5" style="stroke:#181818;stroke-width:1.0;" width="258" x="2998" y="587"/><ellipse cx="3028" cy="619" fill="#EB937F" rx="22" ry="22" style="stroke:#181818;stroke-width:2.0;"/><path d="M3036.2188,631 L3020.7813,631 L3020.7813,606.2188 L3036.2188,606.2188 L3036.2188,610.5313 L3025.6875,610.5313 L3025.6875,615.875 L3035.2188,615.875 L3035.2188,620.1875 L3025.6875,620.1875 L3025.6875,626.6875 L3036.2188,626.6875 L3036.2188,631 Z " fill="#000000"/><text fill="#000000" font-family="sans-serif" font-size="28" lengthAdjust="spacing" textLength="194" x="3056" y="628.6934">Enrolled_Type</text><line style="stroke:#181818;stroke-width:1.0;" x1="3000" x2="3254" y1="651" y2="651"/><text fill="#000000" font-family="sans-serif" font-size="28" lengthAdjust="spacing" textLength="112" x="3010" y="684.9902">Enrolled</text><text fill="#000000" font-family="sans-serif" font-size="28" lengthAdjust="spacing" textLength="96" x="3010" y="717.584">Waitlist</text><text fill="#000000" font-family="sans-serif" font-size="28" lengthAdjust="spacing" textLength="188" x="3010" y="750.1777">ShoppingCart</text><line style="stroke:#181818;stroke-width:1.0;" x1="3000" x2="3254" y1="764.7813" y2="764.7813"/></g><!--class Courses--><g id="elem_Courses"><rect codeLine="31" fill="#F1F1F1" height="421.9375" id="Courses" rx="5" ry="5" style="stroke:#181818;stroke-width:1.0;" width="330" x="1467" y="1045"/><ellipse cx="1565.5" cy="1077" fill="#ADD1B2" rx="22" ry="22" style="stroke:#181818;stroke-width:2.0;"/><path d="M1573.7188,1089 L1558.2813,1089 L1558.2813,1064.2188 L1573.7188,1064.2188 L1573.7188,1068.5313 L1563.1875,1068.5313 L1563.1875,1073.875 L1572.7188,1073.875 L1572.7188,1078.1875 L1563.1875,1078.1875 L1563.1875,1084.6875 L1573.7188,1084.6875 L1573.7188,1089 Z " fill="#000000"/><text fill="#000000" font-family="sans-serif" font-size="28" lengthAdjust="spacing" textLength="116" x="1606.5" y="1086.6934">Courses</text><line style="stroke:#181818;stroke-width:1.0;" x1="1469" x2="1795" y1="1109" y2="1109"/><ellipse cx="1489" cy="1136.2969" fill="#000000" rx="6" ry="6" style="stroke:#000000;stroke-width:2.0;"/><text fill="#000000" font-family="sans-serif" font-size="28" lengthAdjust="spacing" textLength="264" x="1507" y="1142.9902">CatalogYear: String</text><ellipse cx="1489" cy="1168.8906" fill="#000000" rx="6" ry="6" style="stroke:#000000;stroke-width:2.0;"/><text fill="#000000" font-family="sans-serif" font-size="28" lengthAdjust="spacing" textLength="172" x="1507" y="1175.584">Code: String</text><ellipse cx="1489" cy="1201.4844" fill="#000000" rx="6" ry="6" style="stroke:#000000;stroke-width:2.0;"/><text fill="#000000" font-family="sans-serif" font-size="28" lengthAdjust="spacing" textLength="172" x="1507" y="1208.1777">Prefix: String</text><ellipse cx="1489" cy="1234.0781" fill="#000000" rx="6" ry="6" style="stroke:#000000;stroke-width:2.0;"/><text fill="#000000" font-family="sans-serif" font-size="28" lengthAdjust="spacing" textLength="162" x="1507" y="1240.7715">Number: Int</text><text fill="#000000" font-family="sans-serif" font-size="28" lengthAdjust="spacing" textLength="184" x="1507" y="1273.3652">MinUnits: Int?</text><text fill="#000000" font-family="sans-serif" font-size="28" lengthAdjust="spacing" textLength="190" x="1507" y="1305.959">MaxUnits: Int?</text><ellipse cx="1489" cy="1331.8594" fill="#000000" rx="6" ry="6" style="stroke:#000000;stroke-width:2.0;"/><text fill="#000000" font-family="sans-serif" font-size="28" lengthAdjust="spacing" textLength="178" x="1507" y="1338.5527">Name: String</text><text fill="#000000" font-family="sans-serif" font-size="28" lengthAdjust="spacing" textLength="270" x="1507" y="1371.1465">Description: String?</text><text fill="#000000" font-family="sans-serif" font-size="28" lengthAdjust="spacing" textLength="198" x="1507" y="1403.7402">Prereqs: Json?</text><ellipse cx="1489" cy="1429.6406" fill="#000000" rx="6" ry="6" style="stroke:#000000;stroke-width:2.0;"/><text fill="#000000" font-family="sans-serif" font-size="28" lengthAdjust="spacing" textLength="278" x="1507" y="1436.334">Sections: Sections[]</text><line style="stroke:#181818;stroke-width:1.0;" x1="1469" x2="1795" y1="1450.9375" y2="1450.9375"/></g><!--class Enrolled--><g id="elem_Enrolled"><rect codeLine="45" fill="#F1F1F1" height="258.9688" id="Enrolled" rx="5" ry="5" style="stroke:#181818;stroke-width:1.0;" width="332" x="2546" y="555"/><ellipse cx="2647.5" cy="587" fill="#ADD1B2" rx="22" ry="22" style="stroke:#181818;stroke-width:2.0;"/><path d="M2655.7188,599 L2640.2813,599 L2640.2813,574.2188 L2655.7188,574.2188 L2655.7188,578.5313 L2645.1875,578.5313 L2645.1875,583.875 L2654.7188,583.875 L2654.7188,588.1875 L2645.1875,588.1875 L2645.1875,594.6875 L2655.7188,594.6875 L2655.7188,599 Z " fill="#000000"/><text fill="#000000" font-family="sans-serif" font-size="28" lengthAdjust="spacing" textLength="112" x="2688.5" y="596.6934">Enrolled</text><line style="stroke:#181818;stroke-width:1.0;" x1="2548" x2="2876" y1="619" y2="619"/><ellipse cx="2568" cy="646.2969" fill="#000000" rx="6" ry="6" style="stroke:#000000;stroke-width:2.0;"/><text fill="#000000" font-family="sans-serif" font-size="28" lengthAdjust="spacing" textLength="162" x="2586" y="652.9902">User: String</text><ellipse cx="2568" cy="678.8906" fill="#000000" rx="6" ry="6" style="stroke:#000000;stroke-width:2.0;"/><text fill="#000000" font-family="sans-serif" font-size="28" lengthAdjust="spacing" textLength="180" x="2586" y="685.584">SectionId: Int</text><ellipse cx="2568" cy="711.4844" fill="#000000" rx="6" ry="6" style="stroke:#000000;stroke-width:2.0;"/><text fill="#000000" font-family="sans-serif" font-size="28" lengthAdjust="spacing" textLength="242" x="2586" y="718.1777">Section: Sections</text><ellipse cx="2568" cy="744.0781" fill="#000000" rx="6" ry="6" style="stroke:#000000;stroke-width:2.0;"/><text fill="#000000" font-family="sans-serif" font-size="28" lengthAdjust="spacing" textLength="128" x="2586" y="750.7715">Seat: Int?</text><ellipse cx="2568" cy="776.6719" fill="#000000" rx="6" ry="6" style="stroke:#000000;stroke-width:2.0;"/><text fill="#000000" font-family="sans-serif" font-size="28" lengthAdjust="spacing" textLength="280" x="2586" y="783.3652">Type: Enrolled_Type</text><line style="stroke:#181818;stroke-width:1.0;" x1="2548" x2="2876" y1="797.9688" y2="797.9688"/></g><!--class Terms--><g id="elem_Terms"><rect codeLine="53" fill="#F1F1F1" height="161.1875" id="Terms" rx="5" ry="5" style="stroke:#181818;stroke-width:1.0;" width="360" x="1452" y="307"/><ellipse cx="1579.5" cy="339" fill="#ADD1B2" rx="22" ry="22" style="stroke:#181818;stroke-width:2.0;"/><path d="M1587.7188,351 L1572.2813,351 L1572.2813,326.2188 L1587.7188,326.2188 L1587.7188,330.5313 L1577.1875,330.5313 L1577.1875,335.875 L1586.7188,335.875 L1586.7188,340.1875 L1577.1875,340.1875 L1577.1875,346.6875 L1587.7188,346.6875 L1587.7188,351 Z " fill="#000000"/><text fill="#000000" font-family="sans-serif" font-size="28" lengthAdjust="spacing" textLength="88" x="1620.5" y="348.6934">Terms</text><line style="stroke:#181818;stroke-width:1.0;" x1="1454" x2="1810" y1="371" y2="371"/><ellipse cx="1474" cy="398.2969" fill="#000000" rx="6" ry="6" style="stroke:#000000;stroke-width:2.0;"/><text fill="#000000" font-family="sans-serif" font-size="28" lengthAdjust="spacing" textLength="114" x="1492" y="404.9902">Year: Int</text><ellipse cx="1474" cy="430.8906" fill="#000000" rx="6" ry="6" style="stroke:#000000;stroke-width:2.0;"/><text fill="#000000" font-family="sans-serif" font-size="28" lengthAdjust="spacing" textLength="308" x="1492" y="437.584">Season: Season_Type</text><line style="stroke:#181818;stroke-width:1.0;" x1="1454" x2="1810" y1="452.1875" y2="452.1875"/></g><!--class Season_Type--><g id="elem_Season_Type"><rect codeLine="58" fill="#F1F1F1" height="226.375" id="Season_Type" rx="5" ry="5" style="stroke:#181818;stroke-width:1.0;" width="250" x="1001" y="275"/><ellipse cx="1031" cy="307" fill="#EB937F" rx="22" ry="22" style="stroke:#181818;stroke-width:2.0;"/><path d="M1039.2188,319 L1023.7813,319 L1023.7813,294.2188 L1039.2188,294.2188 L1039.2188,298.5313 L1028.6875,298.5313 L1028.6875,303.875 L1038.2188,303.875 L1038.2188,308.1875 L1028.6875,308.1875 L1028.6875,314.6875 L1039.2188,314.6875 L1039.2188,319 Z " fill="#000000"/><text fill="#000000" font-family="sans-serif" font-size="28" lengthAdjust="spacing" textLength="186" x="1059" y="316.6934">Season_Type</text><line style="stroke:#181818;stroke-width:1.0;" x1="1003" x2="1249" y1="339" y2="339"/><text fill="#000000" font-family="sans-serif" font-size="28" lengthAdjust="spacing" textLength="44" x="1013" y="372.9902">Fall</text><text fill="#000000" font-family="sans-serif" font-size="28" lengthAdjust="spacing" textLength="88" x="1013" y="405.584">Winter</text><text fill="#000000" font-family="sans-serif" font-size="28" lengthAdjust="spacing" textLength="88" x="1013" y="438.1777">Spring</text><text fill="#000000" font-family="sans-serif" font-size="28" lengthAdjust="spacing" textLength="116" x="1013" y="470.7715">Summer</text><line style="stroke:#181818;stroke-width:1.0;" x1="1003" x2="1249" y1="485.375" y2="485.375"/></g><!--class Sections--><g id="elem_Sections"><rect codeLine="65" fill="#F1F1F1" height="747.875" id="Sections" rx="5" ry="5" style="stroke:#181818;stroke-width:1.0;" width="442" x="1958" y="14"/><ellipse cx="2110.5" cy="46" fill="#ADD1B2" rx="22" ry="22" style="stroke:#181818;stroke-width:2.0;"/><path d="M2118.7188,58 L2103.2813,58 L2103.2813,33.2188 L2118.7188,33.2188 L2118.7188,37.5313 L2108.1875,37.5313 L2108.1875,42.875 L2117.7188,42.875 L2117.7188,47.1875 L2108.1875,47.1875 L2108.1875,53.6875 L2118.7188,53.6875 L2118.7188,58 Z " fill="#000000"/><text fill="#000000" font-family="sans-serif" font-size="28" lengthAdjust="spacing" textLength="120" x="2151.5" y="55.6934">Sections</text><line style="stroke:#181818;stroke-width:1.0;" x1="1960" x2="2398" y1="78" y2="78"/><ellipse cx="1980" cy="105.2969" fill="#000000" rx="6" ry="6" style="stroke:#000000;stroke-width:2.0;"/><text fill="#000000" font-family="sans-serif" font-size="28" lengthAdjust="spacing" textLength="180" x="1998" y="111.9902">SectionId: Int</text><ellipse cx="1980" cy="137.8906" fill="#000000" rx="6" ry="6" style="stroke:#000000;stroke-width:2.0;"/><text fill="#000000" font-family="sans-serif" font-size="28" lengthAdjust="spacing" textLength="178" x="1998" y="144.584">Term: Terms</text><ellipse cx="1980" cy="170.4844" fill="#000000" rx="6" ry="6" style="stroke:#000000;stroke-width:2.0;"/><text fill="#000000" font-family="sans-serif" font-size="28" lengthAdjust="spacing" textLength="198" x="1998" y="177.1777">Course: String</text><ellipse cx="1980" cy="203.0781" fill="#000000" rx="6" ry="6" style="stroke:#000000;stroke-width:2.0;"/><text fill="#000000" font-family="sans-serif" font-size="28" lengthAdjust="spacing" textLength="150" x="1998" y="209.7715">Start: Time</text><ellipse cx="1980" cy="235.6719" fill="#000000" rx="6" ry="6" style="stroke:#000000;stroke-width:2.0;"/><text fill="#000000" font-family="sans-serif" font-size="28" lengthAdjust="spacing" textLength="140" x="1998" y="242.3652">End: Time</text><text fill="#000000" font-family="sans-serif" font-size="28" lengthAdjust="spacing" textLength="248" x="1998" y="274.959">Sunday: Boolean?</text><text fill="#000000" font-family="sans-serif" font-size="28" lengthAdjust="spacing" textLength="254" x="1998" y="307.5527">Monday: Boolean?</text><text fill="#000000" font-family="sans-serif" font-size="28" lengthAdjust="spacing" textLength="264" x="1998" y="340.1465">Tuesday: Boolean?</text><text fill="#000000" font-family="sans-serif" font-size="28" lengthAdjust="spacing" textLength="308" x="1998" y="372.7402">Wednesday: Boolean?</text><text fill="#000000" font-family="sans-serif" font-size="28" lengthAdjust="spacing" textLength="274" x="1998" y="405.334">Thursday: Boolean?</text><text fill="#000000" font-family="sans-serif" font-size="28" lengthAdjust="spacing" textLength="226" x="1998" y="437.9277">Friday: Boolean?</text><text fill="#000000" font-family="sans-serif" font-size="28" lengthAdjust="spacing" textLength="266" x="1998" y="470.5215">Saturday: Boolean?</text><text fill="#000000" font-family="sans-serif" font-size="28" lengthAdjust="spacing" textLength="182" x="1998" y="503.1152">Capacity: Int?</text><text fill="#000000" font-family="sans-serif" font-size="28" lengthAdjust="spacing" textLength="278" x="1998" y="535.709">WaitlistCapacity: Int?</text><ellipse cx="1980" cy="561.6094" fill="#000000" rx="6" ry="6" style="stroke:#000000;stroke-width:2.0;"/><text fill="#000000" font-family="sans-serif" font-size="28" lengthAdjust="spacing" textLength="230" x="1998" y="568.3027">Professor: String</text><text fill="#000000" font-family="sans-serif" font-size="28" lengthAdjust="spacing" textLength="194" x="1998" y="600.8965">Room: String?</text><text fill="#000000" font-family="sans-serif" font-size="28" lengthAdjust="spacing" textLength="358" x="1998" y="633.4902">Format: Sections_Format?</text><text fill="#000000" font-family="sans-serif" font-size="28" lengthAdjust="spacing" textLength="390" x="1998" y="666.084">Modality: Sections_Modality?</text><ellipse cx="1980" cy="691.9844" fill="#000000" rx="6" ry="6" style="stroke:#000000;stroke-width:2.0;"/><text fill="#000000" font-family="sans-serif" font-size="28" lengthAdjust="spacing" textLength="250" x="1998" y="698.6777">Courses: Courses</text><ellipse cx="1980" cy="724.5781" fill="#000000" rx="6" ry="6" style="stroke:#000000;stroke-width:2.0;"/><text fill="#000000" font-family="sans-serif" font-size="28" lengthAdjust="spacing" textLength="278" x="1998" y="731.2715">Enrolleds: Enrolled[]</text><line style="stroke:#181818;stroke-width:1.0;" x1="1960" x2="2398" y1="745.875" y2="745.875"/></g><!--class Flowcharts--><g id="elem_Flowcharts"><rect codeLine="88" fill="#F1F1F1" height="356.75" id="Flowcharts" rx="5" ry="5" style="stroke:#181818;stroke-width:1.0;" width="786" x="14" y="930"/><ellipse cx="324.5" cy="962" fill="#ADD1B2" rx="22" ry="22" style="stroke:#181818;stroke-width:2.0;"/><path d="M332.7188,974 L317.2813,974 L317.2813,949.2188 L332.7188,949.2188 L332.7188,953.5313 L322.1875,953.5313 L322.1875,958.875 L331.7188,958.875 L331.7188,963.1875 L322.1875,963.1875 L322.1875,969.6875 L332.7188,969.6875 L332.7188,974 Z " fill="#000000"/><text fill="#000000" font-family="sans-serif" font-size="28" lengthAdjust="spacing" textLength="148" x="365.5" y="971.6934">Flowcharts</text><line style="stroke:#181818;stroke-width:1.0;" x1="16" x2="798" y1="994" y2="994"/><ellipse cx="36" cy="1021.2969" fill="#000000" rx="6" ry="6" style="stroke:#000000;stroke-width:2.0;"/><text fill="#000000" font-family="sans-serif" font-size="28" lengthAdjust="spacing" textLength="254" x="54" y="1027.9902">FlowchartId: String</text><ellipse cx="36" cy="1053.8906" fill="#000000" rx="6" ry="6" style="stroke:#000000;stroke-width:2.0;"/><text fill="#000000" font-family="sans-serif" font-size="28" lengthAdjust="spacing" textLength="264" x="54" y="1060.584">CatalogYear: String</text><ellipse cx="36" cy="1086.4844" fill="#000000" rx="6" ry="6" style="stroke:#000000;stroke-width:2.0;"/><text fill="#000000" font-family="sans-serif" font-size="28" lengthAdjust="spacing" textLength="196" x="54" y="1093.1777">MajorId: String</text><ellipse cx="36" cy="1119.0781" fill="#000000" rx="6" ry="6" style="stroke:#000000;stroke-width:2.0;"/><text fill="#000000" font-family="sans-serif" font-size="28" lengthAdjust="spacing" textLength="318" x="54" y="1125.7715">ConcentrationId: String</text><ellipse cx="36" cy="1151.6719" fill="#000000" rx="6" ry="6" style="stroke:#000000;stroke-width:2.0;"/><text fill="#000000" font-family="sans-serif" font-size="28" lengthAdjust="spacing" textLength="242" x="54" y="1158.3652">Catalog: Catalogs</text><ellipse cx="36" cy="1184.2656" fill="#000000" rx="6" ry="6" style="stroke:#000000;stroke-width:2.0;"/><text fill="#000000" font-family="sans-serif" font-size="28" lengthAdjust="spacing" textLength="182" x="54" y="1190.959">Major: Majors</text><ellipse cx="36" cy="1216.8594" fill="#000000" rx="6" ry="6" style="stroke:#000000;stroke-width:2.0;"/><text fill="#000000" font-family="sans-serif" font-size="28" lengthAdjust="spacing" textLength="426" x="54" y="1223.5527">Concentration: Concentrations</text><ellipse cx="36" cy="1249.4531" fill="#000000" rx="6" ry="6" style="stroke:#000000;stroke-width:2.0;"/><text fill="#000000" font-family="sans-serif" font-size="28" lengthAdjust="spacing" textLength="734" x="54" y="1256.1465">GraduationRequirements: GraduationRequirements[]</text><line style="stroke:#181818;stroke-width:1.0;" x1="16" x2="798" y1="1270.75" y2="1270.75"/></g><!--class Catalogs--><g id="elem_Catalogs"><rect codeLine="99" fill="#F1F1F1" height="161.1875" id="Catalogs" rx="5" ry="5" style="stroke:#181818;stroke-width:1.0;" width="386" x="933" y="599"/><ellipse cx="1057.5" cy="631" fill="#ADD1B2" rx="22" ry="22" style="stroke:#181818;stroke-width:2.0;"/><path d="M1065.7188,643 L1050.2813,643 L1050.2813,618.2188 L1065.7188,618.2188 L1065.7188,622.5313 L1055.1875,622.5313 L1055.1875,627.875 L1064.7188,627.875 L1064.7188,632.1875 L1055.1875,632.1875 L1055.1875,638.6875 L1065.7188,638.6875 L1065.7188,643 Z " fill="#000000"/><text fill="#000000" font-family="sans-serif" font-size="28" lengthAdjust="spacing" textLength="120" x="1098.5" y="640.6934">Catalogs</text><line style="stroke:#181818;stroke-width:1.0;" x1="935" x2="1317" y1="663" y2="663"/><ellipse cx="955" cy="690.2969" fill="#000000" rx="6" ry="6" style="stroke:#000000;stroke-width:2.0;"/><text fill="#000000" font-family="sans-serif" font-size="28" lengthAdjust="spacing" textLength="264" x="973" y="696.9902">CatalogYear: String</text><ellipse cx="955" cy="722.8906" fill="#000000" rx="6" ry="6" style="stroke:#000000;stroke-width:2.0;"/><text fill="#000000" font-family="sans-serif" font-size="28" lengthAdjust="spacing" textLength="334" x="973" y="729.584">Flowcharts: Flowcharts[]</text><line style="stroke:#181818;stroke-width:1.0;" x1="935" x2="1317" y1="744.1875" y2="744.1875"/></g><!--class Concentrations--><g id="elem_Concentrations"><rect codeLine="104" fill="#F1F1F1" height="258.9688" id="Concentrations" rx="5" ry="5" style="stroke:#181818;stroke-width:1.0;" width="386" x="933" y="831"/><ellipse cx="1012.5" cy="863" fill="#ADD1B2" rx="22" ry="22" style="stroke:#181818;stroke-width:2.0;"/><path d="M1020.7188,875 L1005.2813,875 L1005.2813,850.2188 L1020.7188,850.2188 L1020.7188,854.5313 L1010.1875,854.5313 L1010.1875,859.875 L1019.7188,859.875 L1019.7188,864.1875 L1010.1875,864.1875 L1010.1875,870.6875 L1020.7188,870.6875 L1020.7188,875 Z " fill="#000000"/><text fill="#000000" font-family="sans-serif" font-size="28" lengthAdjust="spacing" textLength="212" x="1051.5" y="872.6934">Concentrations</text><line style="stroke:#181818;stroke-width:1.0;" x1="935" x2="1317" y1="895" y2="895"/><ellipse cx="955" cy="922.2969" fill="#000000" rx="6" ry="6" style="stroke:#000000;stroke-width:2.0;"/><text fill="#000000" font-family="sans-serif" font-size="28" lengthAdjust="spacing" textLength="122" x="973" y="928.9902">Id: String</text><text fill="#000000" font-family="sans-serif" font-size="28" lengthAdjust="spacing" textLength="192" x="973" y="961.584">Name: String?</text><ellipse cx="955" cy="987.4844" fill="#000000" rx="6" ry="6" style="stroke:#000000;stroke-width:2.0;"/><text fill="#000000" font-family="sans-serif" font-size="28" lengthAdjust="spacing" textLength="196" x="973" y="994.1777">MajorId: String</text><ellipse cx="955" cy="1020.0781" fill="#000000" rx="6" ry="6" style="stroke:#000000;stroke-width:2.0;"/><text fill="#000000" font-family="sans-serif" font-size="28" lengthAdjust="spacing" textLength="182" x="973" y="1026.7715">Major: Majors</text><ellipse cx="955" cy="1052.6719" fill="#000000" rx="6" ry="6" style="stroke:#000000;stroke-width:2.0;"/><text fill="#000000" font-family="sans-serif" font-size="28" lengthAdjust="spacing" textLength="334" x="973" y="1059.3652">Flowcharts: Flowcharts[]</text><line style="stroke:#181818;stroke-width:1.0;" x1="935" x2="1317" y1="1073.9688" y2="1073.9688"/></g><!--class GraduationRequirements--><g id="elem_GraduationRequirements"><rect codeLine="112" fill="#F1F1F1" height="193.7813" id="GraduationRequirements" rx="5" ry="5" style="stroke:#181818;stroke-width:1.0;" width="412" x="920" y="1159"/><ellipse cx="950" cy="1191" fill="#ADD1B2" rx="22" ry="22" style="stroke:#181818;stroke-width:2.0;"/><path d="M958.2188,1203 L942.7813,1203 L942.7813,1178.2188 L958.2188,1178.2188 L958.2188,1182.5313 L947.6875,1182.5313 L947.6875,1187.875 L957.2188,1187.875 L957.2188,1192.1875 L947.6875,1192.1875 L947.6875,1198.6875 L958.2188,1198.6875 L958.2188,1203 Z " fill="#000000"/><text fill="#000000" font-family="sans-serif" font-size="28" lengthAdjust="spacing" textLength="348" x="978" y="1200.6934">GraduationRequirements</text><line style="stroke:#181818;stroke-width:1.0;" x1="922" x2="1330" y1="1223" y2="1223"/><ellipse cx="942" cy="1250.2969" fill="#000000" rx="6" ry="6" style="stroke:#000000;stroke-width:2.0;"/><text fill="#000000" font-family="sans-serif" font-size="28" lengthAdjust="spacing" textLength="254" x="960" y="1256.9902">FlowchartId: String</text><ellipse cx="942" cy="1282.8906" fill="#000000" rx="6" ry="6" style="stroke:#000000;stroke-width:2.0;"/><text fill="#000000" font-family="sans-serif" font-size="28" lengthAdjust="spacing" textLength="172" x="960" y="1289.584">Code: String</text><ellipse cx="942" cy="1315.4844" fill="#000000" rx="6" ry="6" style="stroke:#000000;stroke-width:2.0;"/><text fill="#000000" font-family="sans-serif" font-size="28" lengthAdjust="spacing" textLength="298" x="960" y="1322.1777">Flowchart: Flowcharts</text><line style="stroke:#181818;stroke-width:1.0;" x1="922" x2="1330" y1="1336.7813" y2="1336.7813"/></g><!--class Majors--><g id="elem_Majors"><rect codeLine="118" fill="#F1F1F1" height="193.7813" id="Majors" rx="5" ry="5" style="stroke:#181818;stroke-width:1.0;" width="386" x="933" y="1423"/><ellipse cx="1072.5" cy="1455" fill="#ADD1B2" rx="22" ry="22" style="stroke:#181818;stroke-width:2.0;"/><path d="M1080.7188,1467 L1065.2813,1467 L1065.2813,1442.2188 L1080.7188,1442.2188 L1080.7188,1446.5313 L1070.1875,1446.5313 L1070.1875,1451.875 L1079.7188,1451.875 L1079.7188,1456.1875 L1070.1875,1456.1875 L1070.1875,1462.6875 L1080.7188,1462.6875 L1080.7188,1467 Z " fill="#000000"/><text fill="#000000" font-family="sans-serif" font-size="28" lengthAdjust="spacing" textLength="90" x="1113.5" y="1464.6934">Majors</text><line style="stroke:#181818;stroke-width:1.0;" x1="935" x2="1317" y1="1487" y2="1487"/><ellipse cx="955" cy="1514.2969" fill="#000000" rx="6" ry="6" style="stroke:#000000;stroke-width:2.0;"/><text fill="#000000" font-family="sans-serif" font-size="28" lengthAdjust="spacing" textLength="122" x="973" y="1520.9902">Id: String</text><ellipse cx="955" cy="1546.8906" fill="#000000" rx="6" ry="6" style="stroke:#000000;stroke-width:2.0;"/><text fill="#000000" font-family="sans-serif" font-size="28" lengthAdjust="spacing" textLength="178" x="973" y="1553.584">Name: String</text><ellipse cx="955" cy="1579.4844" fill="#000000" rx="6" ry="6" style="stroke:#000000;stroke-width:2.0;"/><text fill="#000000" font-family="sans-serif" font-size="28" lengthAdjust="spacing" textLength="334" x="973" y="1586.1777">Flowcharts: Flowcharts[]</text><line style="stroke:#181818;stroke-width:1.0;" x1="935" x2="1317" y1="1600.7813" y2="1600.7813"/></g><!--class User--><g id="elem_User"><rect codeLine="124" fill="#B0E0E6" height="275.5" id="User" rx="5" ry="5" style="stroke:#6495ED;stroke-width:1.0;" width="494" x="1932" y="832"/><ellipse cx="2108.5" cy="872.2656" fill="#ADD1B2" rx="22" ry="22" style="stroke:#181818;stroke-width:2.0;"/><path d="M2116.7188,884.2656 L2101.2813,884.2656 L2101.2813,859.4844 L2116.7188,859.4844 L2116.7188,863.7969 L2106.1875,863.7969 L2106.1875,869.1406 L2115.7188,869.1406 L2115.7188,873.4531 L2106.1875,873.4531 L2106.1875,879.9531 L2116.7188,879.9531 L2116.7188,884.2656 Z " fill="#000000"/><text fill="#000000" font-family="sans-serif" font-size="24" font-style="italic" lengthAdjust="spacing" textLength="132" x="2145.5" y="864.2773">&#171;External&#187;</text><text fill="#000000" font-family="sans-serif" font-size="28" lengthAdjust="spacing" textLength="64" x="2179.5" y="895.9277">User</text><line style="stroke:#6495ED;stroke-width:1.0;" x1="1934" x2="2424" y1="912.5313" y2="912.5313"/><ellipse cx="1954" cy="939.8281" fill="#000000" rx="6" ry="6" style="stroke:#000000;stroke-width:2.0;"/><text fill="#000000" font-family="sans-serif" font-size="28" lengthAdjust="spacing" textLength="122" x="1972" y="946.5215">Id: String</text><ellipse cx="1954" cy="972.4219" fill="#000000" rx="6" ry="6" style="stroke:#000000;stroke-width:2.0;"/><text fill="#000000" font-family="sans-serif" font-size="28" lengthAdjust="spacing" textLength="170" x="1972" y="979.1152">Email: String</text><text fill="#000000" font-family="sans-serif" font-size="28" lengthAdjust="spacing" textLength="268" x="1972" y="1011.709">FlowchartId: String?</text><text fill="#000000" font-family="sans-serif" font-size="28" lengthAdjust="spacing" textLength="442" x="1972" y="1044.3027">OnboardingComplete: Boolean?</text><text fill="#000000" font-family="sans-serif" font-size="28" lengthAdjust="spacing" textLength="238" x="1972" y="1076.8965">Role: Role_Type?</text><line style="stroke:#6495ED;stroke-width:1.0;" x1="1934" x2="2424" y1="1091.5" y2="1091.5"/></g><!--class Role_Type--><g id="elem_Role_Type"><rect codeLine="132" fill="#B0E0E6" height="177.7188" id="Role_Type" rx="5" ry="5" style="stroke:#6495ED;stroke-width:1.0;" width="208" x="2608" y="883"/><ellipse cx="2638" cy="923.2656" fill="#EB937F" rx="22" ry="22" style="stroke:#181818;stroke-width:2.0;"/><path d="M2646.2188,935.2656 L2630.7813,935.2656 L2630.7813,910.4844 L2646.2188,910.4844 L2646.2188,914.7969 L2635.6875,914.7969 L2635.6875,920.1406 L2645.2188,920.1406 L2645.2188,924.4531 L2635.6875,924.4531 L2635.6875,930.9531 L2646.2188,930.9531 L2646.2188,935.2656 Z " fill="#000000"/><text fill="#000000" font-family="sans-serif" font-size="24" font-style="italic" lengthAdjust="spacing" textLength="132" x="2672" y="915.2773">&#171;External&#187;</text><text fill="#000000" font-family="sans-serif" font-size="28" lengthAdjust="spacing" textLength="144" x="2666" y="946.9277">Role_Type</text><line style="stroke:#6495ED;stroke-width:1.0;" x1="2610" x2="2814" y1="963.5313" y2="963.5313"/><text fill="#000000" font-family="sans-serif" font-size="28" lengthAdjust="spacing" textLength="64" x="2620" y="997.5215">User</text><text fill="#000000" font-family="sans-serif" font-size="28" lengthAdjust="spacing" textLength="86" x="2620" y="1030.1152">Admin</text><line style="stroke:#6495ED;stroke-width:1.0;" x1="2610" x2="2814" y1="1044.7188" y2="1044.7188"/></g><!--class Prereqs--><g id="elem_Prereqs"><rect codeLine="137" fill="#F0E68C" height="210.3125" id="Prereqs" rx="5" ry="5" style="stroke:#B8860B;stroke-width:1.0;" width="312" x="2023" y="1179"/><ellipse cx="2116.5" cy="1219.2656" fill="#ADD1B2" rx="22" ry="22" style="stroke:#181818;stroke-width:2.0;"/><path d="M2122.4375,1230.5469 Q2121.2813,1231.1406 2120,1231.4219 Q2118.7188,1231.7344 2117.3125,1231.7344 Q2112.3125,1231.7344 2109.6563,1228.4531 Q2107.0313,1225.1406 2107.0313,1218.8906 Q2107.0313,1212.6406 2109.6563,1209.3281 Q2112.3125,1206.0156 2117.3125,1206.0156 Q2118.7188,1206.0156 2120,1206.3281 Q2121.3125,1206.6406 2122.4375,1207.2344 L2122.4375,1212.6719 Q2121.1875,1211.5156 2120,1210.9844 Q2118.8125,1210.4219 2117.5625,1210.4219 Q2114.875,1210.4219 2113.5,1212.5781 Q2112.125,1214.7031 2112.125,1218.8906 Q2112.125,1223.0781 2113.5,1225.2344 Q2114.875,1227.3594 2117.5625,1227.3594 Q2118.8125,1227.3594 2120,1226.8281 Q2121.1875,1226.2656 2122.4375,1225.1094 L2122.4375,1230.5469 Z " fill="#000000"/><text fill="#000000" font-family="sans-serif" font-size="24" font-style="italic" lengthAdjust="spacing" textLength="86" x="2168.5" y="1211.2773">&#171;JSON&#187;</text><text fill="#000000" font-family="sans-serif" font-size="28" lengthAdjust="spacing" textLength="108" x="2157.5" y="1242.9277">Prereqs</text><line style="stroke:#B8860B;stroke-width:1.0;" x1="2025" x2="2333" y1="1259.5313" y2="1259.5313"/><ellipse cx="2045" cy="1286.8281" fill="#000000" rx="6" ry="6" style="stroke:#000000;stroke-width:2.0;"/><text fill="#000000" font-family="sans-serif" font-size="28" lengthAdjust="spacing" textLength="260" x="2063" y="1293.5215">Type: Prereq_Type</text><text fill="#000000" font-family="sans-serif" font-size="28" lengthAdjust="spacing" textLength="254" x="2063" y="1326.1152">Children: Prereqs?</text><text fill="#000000" font-family="sans-serif" font-size="28" lengthAdjust="spacing" textLength="186" x="2063" y="1358.709">Code: String?</text><line style="stroke:#B8860B;stroke-width:1.0;" x1="2025" x2="2333" y1="1373.3125" y2="1373.3125"/></g><!--class Prereq_Type--><g id="elem_Prereq_Type"><rect codeLine="143" fill="#F0E68C" height="210.3125" id="Prereq_Type" rx="5" ry="5" style="stroke:#B8860B;stroke-width:1.0;" width="238" x="2593" y="1179"/><ellipse cx="2623" cy="1219.2656" fill="#EB937F" rx="22" ry="22" style="stroke:#181818;stroke-width:2.0;"/><path d="M2631.2188,1231.2656 L2615.7813,1231.2656 L2615.7813,1206.4844 L2631.2188,1206.4844 L2631.2188,1210.7969 L2620.6875,1210.7969 L2620.6875,1216.1406 L2630.2188,1216.1406 L2630.2188,1220.4531 L2620.6875,1220.4531 L2620.6875,1226.9531 L2631.2188,1226.9531 L2631.2188,1231.2656 Z " fill="#000000"/><text fill="#000000" font-family="sans-serif" font-size="24" font-style="italic" lengthAdjust="spacing" textLength="86" x="2695" y="1211.2773">&#171;JSON&#187;</text><text fill="#000000" font-family="sans-serif" font-size="28" lengthAdjust="spacing" textLength="174" x="2651" y="1242.9277">Prereq_Type</text><line style="stroke:#B8860B;stroke-width:1.0;" x1="2595" x2="2829" y1="1259.5313" y2="1259.5313"/><text fill="#000000" font-family="sans-serif" font-size="28" lengthAdjust="spacing" textLength="54" x="2605" y="1293.5215">And</text><text fill="#000000" font-family="sans-serif" font-size="28" lengthAdjust="spacing" textLength="32" x="2605" y="1326.1152">Or</text><text fill="#000000" font-family="sans-serif" font-size="28" lengthAdjust="spacing" textLength="166" x="2605" y="1358.709">Prerequisite</text><line style="stroke:#B8860B;stroke-width:1.0;" x1="2595" x2="2829" y1="1373.3125" y2="1373.3125"/></g><!--reverse link Courses to Sections--><g id="link_Courses_Sections"><path codeLine="150" d="M1632,1018.78 C1632,1018.78 1632,680 1632,680 C1632,680 1805.68,680 1957.3,680 " fill="none" id="Courses-backto-Sections" style="stroke:#181818;stroke-width:2.0;"/><polygon fill="#181818" points="1632,1044.78,1640,1032.78,1632,1020.78,1624,1032.78,1632,1044.78" style="stroke:#181818;stroke-width:2.0;"/><text fill="#000000" font-family="sans-serif" font-size="26" lengthAdjust="spacing" textLength="16" x="1615.4375" y="1023.0192">1</text><text fill="#000000" font-family="sans-serif" font-size="26" lengthAdjust="spacing" textLength="46" x="1895.6239" y="723.8135">0..*</text></g><!--reverse link Terms to Sections--><g id="link_Terms_Sections"><path codeLine="151" d="M1838.62,388 C1838.62,388 1957.58,388 1957.58,388 " fill="none" id="Terms-backto-Sections" style="stroke:#181818;stroke-width:2.0;"/><polygon fill="#181818" points="1812.62,388,1824.62,396,1836.62,388,1824.62,380,1812.62,388" style="stroke:#181818;stroke-width:2.0;"/><text fill="#000000" font-family="sans-serif" font-size="26" lengthAdjust="spacing" textLength="16" x="1828.2401" y="413.4206">1</text><text fill="#000000" font-family="sans-serif" font-size="26" lengthAdjust="spacing" textLength="46" x="1895.9218" y="413.1072">0..*</text></g><!--reverse link Sections to Enrolled--><g id="link_Sections_Enrolled"><path codeLine="152" d="M2426.4,658.5 C2426.4,658.5 2545.74,658.5 2545.74,658.5 " fill="none" id="Sections-backto-Enrolled" style="stroke:#181818;stroke-width:2.0;"/><polygon fill="#181818" points="2400.4,658.5,2412.4,666.5,2424.4,658.5,2412.4,650.5,2400.4,658.5" style="stroke:#181818;stroke-width:2.0;"/><text fill="#000000" font-family="sans-serif" font-size="26" lengthAdjust="spacing" textLength="16" x="2415.8128" y="701.8289">1</text><text fill="#000000" font-family="sans-serif" font-size="26" lengthAdjust="spacing" textLength="46" x="2484.0669" y="681.7351">0..*</text></g><!--reverse link Flowcharts to Catalogs--><g id="link_Flowcharts_Catalogs"><path codeLine="153" d="M408,903.58 C408,903.58 408,680 408,680 C408,680 719.98,680 932.64,680 " fill="none" id="Flowcharts-backto-Catalogs" style="stroke:#181818;stroke-width:2.0;"/><polygon fill="none" points="408,929.58,416,917.58,408,905.58,400,917.58,408,929.58" style="stroke:#181818;stroke-width:2.0;"/><text fill="#000000" font-family="sans-serif" font-size="26" lengthAdjust="spacing" textLength="46" x="360.1781" y="907.6761">0..*</text><text fill="#000000" font-family="sans-serif" font-size="26" lengthAdjust="spacing" textLength="16" x="901.2234" y="705.3235">1</text></g><!--reverse link Flowcharts to Concentrations--><g id="link_Flowcharts_Concentrations"><path codeLine="154" d="M826.16,1009.5 C826.16,1009.5 932.62,1009.5 932.62,1009.5 " fill="none" id="Flowcharts-backto-Concentrations" style="stroke:#181818;stroke-width:2.0;"/><polygon fill="none" points="800.16,1009.5,812.16,1017.5,824.16,1009.5,812.16,1001.5,800.16,1009.5" style="stroke:#181818;stroke-width:2.0;"/><text fill="#000000" font-family="sans-serif" font-size="26" lengthAdjust="spacing" textLength="46" x="816.4163" y="1030.3626">0..*</text><text fill="#000000" font-family="sans-serif" font-size="26" lengthAdjust="spacing" textLength="16" x="901.2018" y="1038.5452">1</text></g><!--reverse link Flowcharts to Majors--><g id="link_Flowcharts_Majors"><path codeLine="155" d="M408,1312.32 C408,1312.32 408,1520 408,1520 C408,1520 719.98,1520 932.64,1520 " fill="none" id="Flowcharts-backto-Majors" style="stroke:#181818;stroke-width:2.0;"/><polygon fill="none" points="408,1286.32,400,1298.32,408,1310.32,416,1298.32,408,1286.32" style="stroke:#181818;stroke-width:2.0;"/><text fill="#000000" font-family="sans-serif" font-size="26" lengthAdjust="spacing" textLength="46" x="360.1094" y="1327.0464">0..*</text><text fill="#000000" font-family="sans-serif" font-size="26" lengthAdjust="spacing" textLength="16" x="901.2234" y="1545.3008">1</text></g><!--reverse link Flowcharts to GraduationRequirements--><g id="link_Flowcharts_GraduationRequirements"><path codeLine="156" d="M826.16,1222.5 C826.16,1222.5 919.18,1222.5 919.18,1222.5 " fill="none" id="Flowcharts-backto-GraduationRequirements" style="stroke:#181818;stroke-width:2.0;"/><polygon fill="#181818" points="800.16,1222.5,812.16,1230.5,824.16,1222.5,812.16,1214.5,800.16,1222.5" style="stroke:#181818;stroke-width:2.0;"/><text fill="#000000" font-family="sans-serif" font-size="26" lengthAdjust="spacing" textLength="16" x="815.8303" y="1251.6829">1</text><text fill="#000000" font-family="sans-serif" font-size="26" lengthAdjust="spacing" textLength="46" x="857.739" y="1245.4071">0..*</text></g><!--link GraduationRequirements to Courses--><g id="link_GraduationRequirements_Courses"><path codeLine="157" d="M1332.54,1256 C1332.54,1256 1440.36,1256 1440.36,1256 " fill="none" id="GraduationRequirements-to-Courses" style="stroke:#181818;stroke-width:2.0;"/><polygon fill="#181818" points="1466.36,1256,1454.36,1248,1442.36,1256,1454.36,1264,1466.36,1256" style="stroke:#181818;stroke-width:2.0;"/><text fill="#000000" font-family="sans-serif" font-size="26" lengthAdjust="spacing" textLength="46" x="1347.9622" y="1281.1579">0..*</text><text fill="#000000" font-family="sans-serif" font-size="26" lengthAdjust="spacing" textLength="16" x="1434.8952" y="1281.4843">1</text></g><!--reverse link User to Enrolled--><g id="link_User_Enrolled"><path codeLine="158" d="M2414,805.68 C2414,805.68 2414,787.5 2414,787.5 C2414,787.5 2477.32,787.5 2545.58,787.5 " fill="none" id="User-backto-Enrolled" style="stroke:#181818;stroke-width:2.0;"/><polygon fill="#181818" points="2414,831.68,2422,819.68,2414,807.68,2406,819.68,2414,831.68" style="stroke:#181818;stroke-width:2.0;"/><text fill="#000000" font-family="sans-serif" font-size="26" lengthAdjust="spacing" textLength="16" x="2421.4094" y="810.0421">1</text><text fill="#000000" font-family="sans-serif" font-size="26" lengthAdjust="spacing" textLength="46" x="2483.8937" y="821.418">0..*</text></g><!--link Enrolled to Enrolled_Type--><!--link Sections to Sections_Format--><!--link Sections to Sections_Modality--><!--link User to Role_Type--><!--link Prereqs to Prereq_Type--><!--link Courses to Prereqs--><!--link Season_Type to Terms--><!--SRC=[ZLPRJzim57xFhx1ucOJKQUnjqRGA2aniOo1QD4qJGgO-9HwEdTcE1aBxxpkEOyTEMhQNnlvyxjUQ1ouRgcbD19TWdneWIjjA5IO-73US7BnxMoJGMb1Zo7D1o15TFznhrKgsK4Bfz-zF7YreISM73-HI_MQWZqGBZb1fl4o95ahBZL2_1yAnn4_BYwz8-BcY3tmig7yxflhXen8Cv9LYnP-Y4B2nn2gY-Nrb2UCQrfOhMHGWsvei_StSdYfTKzivyWMnLZi3bb1pIRN3w9qJblESAqO5jqyTruLqOSF3cRm4RL038QkZuyXr8hKI0jZjoaNMSGG4Zzyeju8RwtHMgccul5zGRJspTIeMgjK6VAJtoO9QAjJzTw2w94khaTxZYa46N6hOyCSC-jhMTu1iPzAfE-VoMd9hkllS0VGn1v23rgdKOp1hpHiNWu0wEbIbuHVoVKBdFME8L1bFFswSJwy8gjW08nMoaBlM4gaiuPAOTGKr9KzWWzyXIBtZrmPoZtl1Pomu5A51QOzIc_Zaib3cIKcYlG9TXrZx80_2gV6otJVXwmeZOXtlAHN29PTBh76NsgOtUzdMDIA3lc1fhtABKywYqjlLPzhLGnuAYoM3DBo6xduYMRmjiOdeKuajemJGBZtdQWAjMZ1Zx1imEKLN5QeVWwUQZw4bnLOQWmlQq3Mw7TCHod_ou0fORS0ObMRzIgawhJpVk-MucRsJlaNBQTVEapXYXVQ7FdA-BCnG8Rvm-tITufHQLnZjaB08k9Ib_RYZJy_fJwN7j4gkKRwc8VLJEMKuc45AwJzcAgFChvxYewQixUvNyAl5QLWZ0Vgv7S-y3hh_COE6u9J9EPUKsTNBornEHyvyPyYc0VWFvTiz_LSYnuCr4gPw4YtUfcskJURfVrdj1X_9rkLMqISrvI91jlWpxvRLdQAQkJMZwaQ0XQn1h_1KTh_TC9l72HUXgIdEGFmSCboPZjx_CUYN0edx-JcPllxHpr2S2XKNJ8CCkEb6HHBtmOo4CPTyADqslT1n7RNSSDjDw29iqBs3FR8_cv6zDwzVx-yDIyBF_5slSKAF2E8IJsP2_wGS5LB7dds196_KtOHzgQS4kJtRgxlOKVGz4vdDzdix_13igcsNft4bptvKdE4_hPlPQ976O2KKe-7yCasOqTwGX28MO14gAtbCwobaU_8S4ZrhcrJniCt_0W00]--></g></svg>